<svg xmlns="http://www.w3.org/2000/svg" width="1443.37" height="332.653" viewBox="0 0 1443.37 332.653">
  <g id="Group_37077" data-name="Group 37077" transform="translate(2 -1735.347)">
    <path id="Path_82560" data-name="Path 82560" d="M-2044,3140.8c11.286.022,994.571.039,1005.857.066q64.582.16,129.166.3c13.683.011,27.367-.3,41.051-.46,1.378-.016,2.758,0,4.335,0-.259-4.89,2.833-6.53,6.429-7.751q6.238-2.118,12.448-4.321a7.845,7.845,0,0,0,3-1.79q-2.816-.48-5.632-.959c-7.185-1.208-7.071-.193-6.416-7.637.92-10.441,2.2-20.863,3.711-31.237,1.8-12.36,3.594-24.7,4.618-37.164.891-10.849,2.238-21.659,3.353-32.489,1.289-12.521,2.6-25.039,3.8-37.569.832-8.752,1.489-17.52,2.19-26.284.1-1.287.014-2.59.014-4.72-9,10.072-18.361,18.8-30.22,25.786-.4-17.618.841-34.487,1.745-51.492l-3.295-1.026c-.689,2.982-2.706,3.034-4.929,2.277a73.429,73.429,0,0,1-6.959-2.662c-2.124-.974-3.95-2.319-2.376-5.293-4.6-2.1-9.481-3.349-12.564-8.127,2.768-1.8,5.2-3.751,7.929-5.075,7.81-3.782,15.593-7.708,23.686-10.789,5.027-1.914,7.464-4.644,8.61-9.96a223.366,223.366,0,0,1,11.187-35.087c.294-.742.614-1.474.964-2.19.068-.14.328-.187.893-.482l8.208,14.5c1.83-2.889,3.752-5.361,5.044-8.128a25.488,25.488,0,0,0,2.449-8.221,115.992,115.992,0,0,0,.053-13.186,4.182,4.182,0,0,0-1.028-2.29c-1.734-2.124-1.638-2.814.69-4.489a4.433,4.433,0,0,0,1.47-1.709c3.675-8.538,9.163-11.89,18.382-11.028a21.083,21.083,0,0,1,10.382,3.524,10.421,10.421,0,0,1,4.84,7.577,3.659,3.659,0,0,0,.615,1.923c1.164,1.333,1.411,2.545.176,3.971-.252.289-.153.921-.144,1.394q.23,12.588.478,25.177c.02,1.082,0,2.165,0,3.492,4.253.738,8.247,1.523,12.269,2.107a14.728,14.728,0,0,1,11.121,7.287c6.905,11.613,13.207,23.535,17.948,36.218a37.832,37.832,0,0,1,2.562,13.489c-.025,4.945-1.435,6.549-6.212,7.594a21.706,21.706,0,0,1-10.075-.4c-2.48-.617-4.992-1.106-7.505-1.655,0,3.9-.114,7.365.027,10.819.211,5.192.691,10.372.892,15.564.333,8.591.448,17.19.813,25.779.415,9.783,1,19.559,1.513,29.338.249,4.792.558,9.582.716,14.376.5,15.088,1.075,30.175,1.359,45.267.33,17.494.381,34.992.553,52.489,0,.3,0,.6,0,.9-.056,4.6-1.056,5.947-5.6,7.14-3.378.887-6.8,1.619-10.194,2.428-.577.137-1.144.316-1.843.51a110.226,110.226,0,0,1,10.866,2.285c3.79,1.184,7.4,2.944,11.073,4.493a8.745,8.745,0,0,1,1.771,1.118c2.611,1.957,2.851,3.364,1.007,7.016,89.1.129,67.028-.035,156.106-.72-.4.264-.789.72-1.212.757-1.49.133-2.992.148-4.49.16-29.767.246-59.535.593-89.3.7-58.839.22-6.678.355-65.518.4-8.277.007-16.557-.644-24.83-1.081a10.3,10.3,0,0,1-3.721-.991,4.4,4.4,0,0,1-2.623-5.167c.185-1.181.608-2.325.774-3.507.416-2.948-.368-3.723-3.35-3.654-8.481.2-16.963.35-25.444.528-.393.008-.785.091-1.456.173-.065.741-.191,1.493-.184,2.244.019,1.9.128,3.8.144,5.7.038,4.391-.209,4.874-4.668,5.014-6.784.214-13.58.156-20.37.062-2.162-.03-4.646-.115-5.684-2.53-1.051-2.443.352-4.424,1.851-6.254a1.563,1.563,0,0,0,.321-1.243c-3.23,1.244-6.553,2.3-9.659,3.8-2.107,1.019-2.239,2.474-1.155,5.835a27.8,27.8,0,0,1-3.116.4c-6.292.1-12.585.191-18.877.206q-71.625.163-143.25.27c-15.183.009-1002.367-.275-1017.55-.425Zm1208.13-194.643,1.005.545c.4,11.442-1.043,22.805-2.1,34.173-1.067,11.439-2.381,22.854-3.585,34.279q-1.789,16.984-3.574,33.97c.411-.236.48-.553.668-.762.628-.7,1.3-1.364,1.954-2.041.623.715,1.267,1.413,1.858,2.153a2.962,2.962,0,0,1,.3.841c2.089,5.714,4.079,11.468,6.3,17.13a71.539,71.539,0,0,1,4.161,14.665,164.136,164.136,0,0,0,3.98,18.741,33.6,33.6,0,0,0,13.539,18.539c2.323,1.613,5.108,3.194,7.814,3.462a20.36,20.36,0,0,1,9.1,3.255,7.341,7.341,0,0,0,5.708,1c6.155-1.283,12.336-2.455,18.456-3.887,4.7-1.1,5.129-1.782,5.09-6.586-.146-18.3-.2-36.6-.538-54.889-.278-14.991-.88-29.977-1.4-44.962-.171-4.893-.548-9.779-.833-14.667-.448-7.683-1.013-15.362-1.321-23.051-.556-13.884-.919-27.775-1.446-41.66-.2-5.272-.633-10.535-.957-15.765l-16.171-7.106c-2.906,2.068-6.43,1.731-10.159,1.438,2.3,7.05,4.532,13.663,6.618,20.321,2.1,6.716,4.352,13.4,6.076,21.091-16.126-4.54-29.611-12.837-43.327-20.812l-10.454,13.838.684.657Zm6.874-72.074c-1.912,1.222-4.205,1.361-4.49,3.908-.844,7.546-.778,14.976,2.886,21.935,1.117,2.12,2.245,4.24,3.218,6.428.59,1.327,1.139,2.771.375,4.225-5.678.446-7.579,1.3-10.563,4.787a21.573,21.573,0,0,0-1.816,2.382,182.158,182.158,0,0,0-22.322,48.565,13.069,13.069,0,0,0-.221,2,8.96,8.96,0,0,0,1.113-.516c.658-.452,1.308-.919,1.937-1.411A129.592,129.592,0,0,0-832.09,2937.9c3.113-4.5,1.767-4.851,7.437-1.5,10.75,6.356,21.6,12.519,33.454,16.657,1.151.4,2.337.705,3.858,1.158-.384-1.528-.579-2.505-.875-3.45-3.463-11.054-7.009-22.084-10.361-33.172a5.974,5.974,0,0,0-4.281-4.371,24.945,24.945,0,0,1-6.649-3.328c-2.95-2.159-2.783-5.366.231-7.461a26.349,26.349,0,0,1,4.574-2.153c.629-.275,1.517-.236,1.932-.675,2.412-2.553,5.36-2.769,8.3-2.092l15.133-15.653c-4.683,0-9.125-.445-13.423.149a45.877,45.877,0,0,1-9.153.488,66.43,66.43,0,0,0-15.779,1.249c-3.545.658-5.474-.42-7.112-3.248C-826.043,2878.365-827.5,2876.36-829,2874.083Zm-1.385-1.005c-1.087-3.8-2.041-7.122-2.988-10.45a6.952,6.952,0,0,0-.366-1.44c-2.526-4.637-5.086-9.257-7.815-14.2-.54,1.139-.972,1.91-1.284,2.728a274.875,274.875,0,0,0-11.307,36.905,6.653,6.653,0,0,1-4.446,5.3c-8.287,3.443-16.526,7.018-24.666,10.8-3.3,1.531-6.291,3.722-9.709,5.785,3.339,3.556,7.251,4.9,11.253,6.26.626-.864,1.156-1.706,1.794-2.454,2.489-2.92,5.374-3.323,8.448-1.1,2.6,1.885,4.515,4.3,4.636,7.668a2.293,2.293,0,0,0,2,2.505c1.563.354,1.964,1.394,1.822,2.922-.3,3.182-.541,6.373-.666,9.566q-.714,18.268-1.315,36.543a4.585,4.585,0,0,0,.431,1.405,23.275,23.275,0,0,0,.973-3.765c4.7-18.511,13.121-35.34,23.322-51.35,2.706-4.248,6.327-7.17,11.56-7.622.135-.012.249-.268.6-.672a40.562,40.562,0,0,0-2.243-4.991c-4.067-6.653-5.306-13.89-4.938-21.562.185-3.846.586-7.4,4.942-8.838C-830.264,2872.992-830.218,2872.867-830.381,2873.078Zm35.128,253.72.142-.837c-2.1-.785-4.145-2.032-6.3-2.248a20.338,20.338,0,0,1-9.254-3.091,36.287,36.287,0,0,1-14.861-18.266,86.436,86.436,0,0,1-3.711-14.155c-1.347-7.461-2.251-14.96-5.366-22.028-2.324-5.274-4-10.836-5.971-16.265-.229-.629-.535-1.231-.8-1.845l-.645-.068a44.353,44.353,0,0,0-1.438,5.931c-.777,7.339-1.479,14.689-2.03,22.049a162.427,162.427,0,0,0,.857,34.373,34.868,34.868,0,0,0,2.686,9.44c2.024,4.5,5.627,5.787,10.245,4.307.475-.152.958-.278,1.436-.42a5.842,5.842,0,0,1,6.466,1.9,4.948,4.948,0,0,0,2.939,1.629A141.148,141.148,0,0,0-795.253,3126.8Zm18.575-245.516-16.352,16.651,5.893,4.784a16.6,16.6,0,0,1,3.281-.494c8.373.449,16.745.928,25.11,1.5,3.709.254,7.061,1.377,9.166,4.814.2.324.639.5.967.741l.572-.334c-1.014-3.1-1.7-6.358-3.1-9.274-4.831-10.084-9.918-20.045-14.888-30.062-2.745-5.531-7.041-8.745-13.285-9.37-3.441-.345-6.847-1.027-10.16-1.541-1.4,7.366-2.719,14.346-4.079,21.518,2.992,0,5.67-.073,8.342.02C-782.521,2880.331-779.691,2879.524-776.678,2881.282Zm-41.727-27.233c2.975-2.246,4.331-2.344,6.738.467,3.139,3.667,8.773,2.861,11.253-.435a16.986,16.986,0,0,0,3.347-6.554,140.373,140.373,0,0,0,1.727-14.784,20.4,20.4,0,0,0-.589-4.417c-1.632-.21-3-.484-4.382-.543-2.809-.12-5.718-1.015-8.2,1.4-.562.549-1.9.38-2.883.4-2.441.049-4.884.016-7.344.016-.617,4.29-1.362,8.7-1.857,13.148A20.649,20.649,0,0,0-818.405,2854.049Zm32.956,49.468c-.4,2.247-.736,4.386-1.164,6.507a2.6,2.6,0,0,0,1.8,3.293c6.584,2.572,13.075,5.432,19.789,7.6a39.134,39.134,0,0,0,11.191,1.458,5.71,5.71,0,0,0,5.775-7.526c-1.587-5.587-4.6-9.539-10.867-9.813-5.173-.226-10.334-.7-15.5-1.014C-777.982,2903.808-781.545,2903.692-785.449,2903.517Zm-8.78-74.813c.064.943.113,1.727.172,2.511a44.549,44.549,0,0,1-1.714,16.884,21.42,21.42,0,0,1-3.814,7c-3.027,3.668-9.2,4.762-12.879.4a3.443,3.443,0,0,0-1.355-1.146,3.391,3.391,0,0,0-2.222-.073c-.355.163-.418,1.217-.4,1.865a8.87,8.87,0,0,0,.445,2.041,51.955,51.955,0,0,1,1.967,13.565c.01,3.22.8,6.437,1.257,9.8,4.173-.262,7.843-.5,11.514-.719,1.291-.077,1.662-1,1.816-2.015a79.14,79.14,0,0,0,1.218-9.173c.105-3.172-.4-6.36-.541-9.545-.118-2.654,1.171-3.883,3.806-3.74,1.054.057,2.1.244,3.66.432,0-2.368.014-4.439,0-6.509q-.076-9.736-.171-19.473C-791.488,2829.2-791.835,2827.989-794.229,2828.7Zm5.88,299.719c0,2.2-.088,4.373.019,6.535.2,4.1.625,4.839,4.642,5.146,7.359.563,14.747.787,22.127,1.033,1.939.065,4.035-.426,4.607-2.591.628-2.373-1.47-3.258-3.1-4.176a48.1,48.1,0,0,0-18.1-5.932C-781.358,3128.062-784.656,3127.317-788.349,3128.423Zm-35.339.116a41.478,41.478,0,0,1-6.247-.878c-4.661-1.443-8.87.005-12.959,1.858a30.656,30.656,0,0,0-6.257,3.979c-1.58,1.252-2.868,3.063-2.1,5.223.744,2.1,2.923,1.853,4.635,1.878,6.376.094,12.754.074,19.131.009a31.934,31.934,0,0,0,4.338-.663C-823.337,3136-823.508,3132.36-823.688,3128.539Zm30.109-301.948.057-.665c-6.564-1.78-22.524-.757-29.018,1.74a2.04,2.04,0,0,0-1.455,2.262c.02,3,.015,6,.088,9,.142,5.786-1.147,11.125-4.861,15.7-3.046,3.749-3.907,7.492-.568,11.607a53.824,53.824,0,0,1,3.582,5.921c2.766-4.383,5.238-7.986,7.312-11.8.524-.966.159-2.836-.45-3.926-3.409-6.1-3.827-12.482-2.454-19.189.634-3.1.874-6.272,1.32-9.621.908.076,1.672.153,2.438.2,3.7.24,7.5,1.557,10.854-1.356.5-.431,1.533-.347,2.314-.321C-800.8,2826.25-797.192,2826.432-793.579,2826.591Zm-29.755-4.333c10.587-1.207,20.639-2.373,30.669.144.17-3.667-.962-5.9-4.066-7.791a21.189,21.189,0,0,0-16.929-2.533C-818.546,2813.364-821.512,2816.821-823.334,2822.258ZM-839,3125.677c-3.6-3-5.193-6.774-6.161-10.962-1.7-7.338-1.87-14.813-2.078-22.281-.116-4.172-.021-8.35-.021-12.525-2.47,14.448-5.206,28.855-5.33,43.725,4.191.674,8.008,1.294,11.827,1.9C-840.183,3125.621-839.589,3125.63-839,3125.677Zm14.02-252.446a2.763,2.763,0,0,0,.2.75c.92,1.653,1.848,3.3,2.808,4.932,2.263,3.841,2.273,3.843,6.542,2.324a4.17,4.17,0,0,0,.883-.569c-.345-3.312-.779-6.467-.975-9.636-.194-3.142.189-6.351-1.5-9.548Zm36.293,34.756c.314-2.665.468-5.375-2.508-6.949a6.9,6.9,0,0,0-2.6-1.2c-.44-.011-.891,1.289-1.38,1.965-.227.312-.578.532-.84.824a42.271,42.271,0,0,0-3.311,3.772,4.539,4.539,0,0,0,3.051,7.135,13.116,13.116,0,0,0,2.672.219c4.283-.2,4.819-.782,4.916-5.079C-788.684,2908.476-788.688,2908.277-788.688,2907.987Zm-2.841-49.447a23.335,23.335,0,0,0-2.446-.708c-2.864-.483-3.565.189-3.373,3.14.026.4.1.793.1,1.189.011,3.957.113,7.918-.029,11.87a58.673,58.673,0,0,1-.952,6.446l2.871-.215C-793.548,2872.919-791.513,2865.96-791.529,2858.54Zm-77,61.4c.478-3.117-1.236-6.271-4.46-8.076-1.8-1.006-3.584-.963-4.958.451-1.047,1.079-2.364,2.684-2.244,3.927.179,1.841,2.222,2.618,4.029,3.054a9.748,9.748,0,0,0,1.485.148C-872.632,2919.614-870.591,2919.777-868.525,2919.943Zm69.645-16.236c-1.251-.421-2.168-.477-2.713-.956-2.614-2.3-4.816-.743-6.917.721-2.182,1.52-2.207,3.851-.111,5.459,2.291,1.757,4.958,2.726,8.509,3.582C-802.524,2908.96-801.558,2906.267-798.88,2903.707Zm-24.691-77.09c10.383-3.224,20.611-3.405,31.47-2.144-.735-.531-.939-.784-1.188-.843-9.686-2.313-19.386-1.347-29.082-.076C-823.964,2823.763-823.683,2824.942-823.571,2826.617Zm-46.275,96.072c-.682-2.056-2.164-1.963-3.639-1.767a8.377,8.377,0,0,1-5.905-1.483c-.481-.317-1.014-.554-1.524-.828C-877.736,2921.488-874.138,2923.138-869.846,2922.689ZM-832,3126.1l7.02.743C-827.372,3124.3-828.254,3124.218-832,3126.1Z" transform="translate(2042 -1074.628)" fill="#fff"/>
    <g id="Group_37068" data-name="Group 37068" transform="translate(2042 -1074.628)">
      <path id="Path_82561" data-name="Path 82561" d="M-829,2874.083c1.5,2.277,2.953,4.282,4.188,6.414,1.638,2.828,3.567,3.906,7.112,3.248a66.43,66.43,0,0,1,15.779-1.249,45.877,45.877,0,0,0,9.153-.488c4.3-.594,8.74-.149,13.423-.149l-15.133,15.653c-2.936-.677-5.884-.461-8.3,2.092-.415.439-1.3.4-1.932.675a26.349,26.349,0,0,0-4.574,2.153c-3.014,2.1-3.181,5.3-.231,7.461a24.945,24.945,0,0,0,6.649,3.328,5.974,5.974,0,0,1,4.281,4.371c3.352,11.088,6.9,22.118,10.361,33.172.3.945.491,1.922.875,3.45-1.521-.453-2.707-.756-3.858-1.158-11.853-4.138-22.7-10.3-33.454-16.657-5.67-3.352-4.324-3-7.437,1.5a129.592,129.592,0,0,1-26.789,28.486c-.629.492-1.279.959-1.937,1.411a8.96,8.96,0,0,1-1.113.516,13.069,13.069,0,0,1,.221-2,182.158,182.158,0,0,1,22.322-48.565,21.573,21.573,0,0,1,1.816-2.382c2.984-3.483,4.885-4.341,10.563-4.787.764-1.454.215-2.9-.375-4.225-.973-2.188-2.1-4.308-3.218-6.428-3.664-6.959-3.73-14.389-2.886-21.935C-833.2,2875.444-830.908,2875.3-829,2874.083Z" fill="#9fc"/>
      <path id="Path_82562" data-name="Path 82562" d="M-830.381,2873.078c.163-.211.117-.086.039-.06-4.356,1.436-4.757,4.992-4.942,8.838-.368,7.672.871,14.909,4.938,21.562a40.562,40.562,0,0,1,2.243,4.991c-.35.4-.464.66-.6.672-5.233.452-8.854,3.374-11.56,7.622-10.2,16.01-18.617,32.839-23.322,51.35a23.275,23.275,0,0,1-.973,3.765,4.585,4.585,0,0,1-.431-1.405q.621-18.273,1.315-36.543c.125-3.193.37-6.384.666-9.566.142-1.528-.259-2.568-1.822-2.922a2.293,2.293,0,0,1-2-2.505c-.121-3.369-2.033-5.783-4.636-7.668-3.074-2.227-5.959-1.824-8.448,1.1-.638.748-1.168,1.59-1.794,2.454-4-1.357-7.914-2.7-11.253-6.26,3.418-2.063,6.411-4.254,9.709-5.785,8.14-3.779,16.379-7.354,24.666-10.8a6.653,6.653,0,0,0,4.446-5.3,274.875,274.875,0,0,1,11.307-36.905c.312-.818.744-1.589,1.284-2.728,2.729,4.946,5.289,9.566,7.815,14.2a6.952,6.952,0,0,1,.366,1.44C-832.422,2865.956-831.468,2869.281-830.381,2873.078Z" fill="#9fc"/>
    </g>
  </g>
</svg>
