<svg xmlns="http://www.w3.org/2000/svg" xmlns:xlink="http://www.w3.org/1999/xlink" width="611.033" height="371.287" viewBox="0 0 611.033 371.287">
  <defs>
    <linearGradient id="linear-gradient" x1="0.443" y1="1.182" x2="0.5" y2="-0.087" gradientUnits="objectBoundingBox">
      <stop offset="0" stop-color="#9fc"/>
      <stop offset="1" stop-color="#0b3d41"/>
    </linearGradient>
  </defs>
  <g id="Group_37062" data-name="Group 37062" transform="translate(459.075 -1423.511)">
    <path id="Path_82552" data-name="Path 82552" d="M-443.587,1708.821c.023,1.137-.426,2.215-1.609,2.014-.768-.13-1.953-1.185-1.951-1.823a11.961,11.961,0,0,1,.925-5.4c1.915-3.614,5.128-6.063,8.692-8.005,1.309-.713,2.672-1.327,4.081-2.021-7.376-24.582-14.8-49.093-20.2-74.263-1.888.073-1.512,1.276-1.247,2.289.935,3.575,1.893,7.143,2.9,10.7q8.07,28.538,16.137,57.074c.374,1.329,1.279,2.773-.221,4.752a23.033,23.033,0,0,1-1.59-3.169c-2.372-7.628-4.84-15.231-6.976-22.926-4.221-15.2-8.227-30.46-12.387-45.678a28.666,28.666,0,0,0-2.044-4.307,9.88,9.88,0,0,1,2.411-.9c14.117-1.5,28.11-3.789,42.008-6.653,3.521-.726,6.983-1.73,10.476-2.589,2.474-.608,4.949-1.147,7.264,1.73a18.2,18.2,0,0,0-.416-2.136c-1.543-4.325-.105-8.082,2.945-10.92a49.336,49.336,0,0,0,10.828-15.663,25.241,25.241,0,0,1,12.243-12.229c1.164-.569,2.242-1.311,3.385-1.926,5.586-3.011,7.228-8.01,6.761-13.878a33.193,33.193,0,0,1,2.86-17.494,7.2,7.2,0,0,0,.682-4.271,7.869,7.869,0,0,1,1.011-4.817,50.773,50.773,0,0,1,6.769-9.039c8.033-7.958,17.818-10.34,28.718-7.658a50.316,50.316,0,0,1,19.12,9.66c.157.123.28.331.453.383,4.787,1.433,3.935,5.582,4.43,9.1.2,1.429.468,2.853.784,4.262.695,3.086,1.694,6.131,2.079,9.252a8.78,8.78,0,0,0,2.419,5.576c3.177,3.192,3.052,4.235.713,8.023a13.576,13.576,0,0,0-1.692,5.6c-.289,2.769-.024,5.589-.135,8.382-.187,4.717-2.736,7.167-7.41,7.147a31.318,31.318,0,0,1-4.464-.41c-4.7-.7-7.546.518-9.5,4.886a73.265,73.265,0,0,0-3.448,10.5,4.8,4.8,0,0,0,.6,3.109c6.137,11.778,12.226,23.584,18.606,35.231,1.85,3.377,4.559,6.29,6.932,9.371a20.686,20.686,0,0,0,2.525,2.2,38.069,38.069,0,0,0,.23-5.044c-.473-4.68-1.237-9.274-3.688-13.459-2.731-4.664-2.806-9.686-1.449-14.8.845-3.182,1.892-6.324,2.512-9.549a67.212,67.212,0,0,0,1.424-10.947,78.662,78.662,0,0,1,4.837-25.464,5.177,5.177,0,0,0,.252-3.147c-1.731-5.232.312-9.5,4.1-12.513a9.734,9.734,0,0,0,4.127-9.083c-.482-11.165-.485-22.349-.776-33.523-.324-12.467-.777-24.93-1.129-37.4-.087-3.072-.093-6.152.034-9.221.132-3.192,1.233-4.184,4.532-4.2,7.3-.042,14.6-.019,21.9-.02,3.4,0,6.8-.02,10.2.014q28.937.291,57.872.622c7.691.1,15.381.33,23.069.6,9.68.338,19.357.76,29.034,1.184,2.492.109,4.975.424,7.466.531,3.806.162,5.547,1.883,5.585,5.789.045,4.494-.038,8.991.05,13.484q.267,13.619.67,27.234c.1,3.487.382,6.969.471,10.456.041,1.634.679,2.381,2.334,2.339,2.1-.054,4.2-.054,6.3-.025,1.558.021,2.125-.755,2.08-2.23q-.084-2.694-.035-5.393.366-20.96.772-41.919c.068-3.288.3-6.573.484-9.857.1-1.734-.248-2.944-2.4-2.843-2.02.095-2.949-1.183-2.9-3.026.069-2.484.35-4.963.563-7.443.145-1.7,1.459-1.955,2.78-2.175,7.094-1.184,14.182-2.4,21.282-3.544,16.762-2.7,33.539-5.324,50.293-8.08,10.744-1.767,21.458-3.718,32.187-5.576a12.038,12.038,0,0,1,1.792-.145c2.655-.053,3.272.427,3.329,3.023.047,2.188-.207,4.382-.21,6.573a2.184,2.184,0,0,1-2.062,2.421c-6.952,1.4-13.87,2.985-20.847,4.245q-22.708,4.1-45.467,7.925c-11.03,1.847-22.09,3.525-33.16,5.122-2.011.29-2.724.955-2.747,2.965q-.164,14.517-.536,29.032c-.262,9.669-.668,19.333-1,29a7.163,7.163,0,0,0,.309,1.318,51.018,51.018,0,0,0,5.17-.024,210.716,210.716,0,0,0,40.4-8.557c2.668-.815,4.832-3.382,7.13-5.261,1.308-1.07,3.183-.773,4.449-1.9.131-.117,3.646-.618,4.143-.7,2.035-.49,4.181,3.323,4.238,7.1a9.972,9.972,0,0,1-.8,4.383c-.745,1.537-1.783,3.424-3.19,4.052a102.97,102.97,0,0,1-10.732,3.567,17.6,17.6,0,0,0-3.392,1.134,58.637,58.637,0,0,1-15.135,5.63c-10.28,2.555-20.587,5-30.9,7.421-3.71.87-3.726.771-3.722,4.722.007,6.992.082,13.985-.016,20.976-.124,8.88-.278,17.762-.627,26.635-.372,9.462-.946,18.916-1.529,28.368-.128,2.064,1.183,2.363,2.588,2.507,2.977.3,5.967.53,8.958.647,2.9.114,5.8,0,8.7.075q11.835.291,23.666.658c11.379.368,22.76.683,34.131,1.21,7.273.337,14.533.975,21.791,1.57,1.589.13,2.515-.154,2.612-1.919.06-1.091.383-2.17.427-3.261.247-6.179.524-12.359.644-18.541.278-14.271.472-28.543.7-42.815.2-12.674.448-25.347.592-38.022.239-21.064.39-42.129.63-63.193.043-3.786.311-7.571.548-11.352a8.386,8.386,0,0,1,.676-2.043l.809-.044a10.007,10.007,0,0,1,.864,2.826c-.056,10.679-.2,21.359-.321,32.038-.009.8-.051,1.6-.054,2.4-.052,13.285-.038,26.57-.164,39.854-.14,14.674-.384,29.348-.627,44.021-.148,8.88-.374,17.759-.578,26.638-.192,8.38-.367,16.76-.62,25.138-.081,2.688-.394,5.368-.592,8.053-.124,1.69-.61,2.743-2.72,2.655-8.671-.361-17.35-.564-26.025-.831-.5-.015-1-.1-1.495-.114-7.889-.23-15.779-.419-23.667-.689-11.181-.381-22.359-.814-33.538-1.239-4.19-.159-8.388-.248-12.565-.58a34.789,34.789,0,0,1-6.723-1.306,2.58,2.58,0,0,1-1.222-2.031c-.028-3.688.083-7.379.251-11.065.222-4.881.682-9.754.793-14.636.307-13.571.469-27.145.73-40.718.069-3.587.305-7.171.433-10.757.048-1.362.008-2.726.008-3.933-.577-.226-.764-.37-.94-.358-6.724.459-6.723.46-6.709,7.125.01,5.1.038,10.189.011,15.283-.006,1.038.264,2.564-1.226,2.636-1.577.077-1.724-1.44-1.735-2.642-.055-5.793-.04-11.586-.08-17.379-.007-1.045-.158-2.088-.242-3.132l-.85-.266c-.415.706-1.183,1.41-1.188,2.119-.029,4.589-.153,9.2.242,13.764.98,11.319,2.623,22.593,3.238,33.926.551,10.136.068,20.328.072,30.5q.006,13.185.091,26.369c.021,3.248.515,3.613,3.719,3.23,1.386-.166,2.781-.294,4.175-.33,9.588-.252,19.18-.4,28.765-.737,5.482-.195,10.961-.618,16.429-1.086a25.4,25.4,0,0,1,11.672,2.163c3.066,1.216,6.12,2.464,9.189,3.671.623.245,1.292.372,2.349.669.119-1.277.25-2.313.306-3.353.18-3.348,1.528-5.148,4.773-5.471a29.787,29.787,0,0,1,13.045,1.1c1.872.658,2.756,1.681,2.706,3.715-.086,3.494.072,6.993-.005,10.487a3.355,3.355,0,0,0,2.394,3.6q6.871,2.984,13.536,6.433c1.9.982,2.984.628,4.282-.969,2.433-2.991,5.349-5.352,9.364-6.042a4.339,4.339,0,0,0,2.048-1.571,36.722,36.722,0,0,0,3.525-4.444,4.611,4.611,0,0,0,.67-2.949c-.946-5.809-2.1-11.584-3.073-17.389a7.818,7.818,0,0,0-2.615-4.821,18.924,18.924,0,0,1-5.921-10.2,7.755,7.755,0,0,1,1.77-7.489c1.565-1.706,2.776-3.675,4.508-5.349a7.472,7.472,0,0,1,5.456-2.484c-.135-2.021-.274-3.879-.377-5.739a16.45,16.45,0,0,1-.049-3.566,2.414,2.414,0,0,1,1.348-1.707,2.284,2.284,0,0,1,1.9,1.012,30.137,30.137,0,0,1,1.907,4.687,23.884,23.884,0,0,0,3.971,7.275,11.993,11.993,0,0,1,2,6.388c.269,4.374-.135,8.786.045,13.17a29.162,29.162,0,0,0,1.329,6.7c.739,2.586,1.71,5.108,2.649,7.632.611,1.641,1.746,2.071,3.321,1.176,2.43-1.381,4.955-2.619,7.266-4.175a5.579,5.579,0,0,0,2.217-3.015c2.66-11.561,8.8-21.313,15.547-30.817A93.444,93.444,0,0,1,68.745,1587.4a3.014,3.014,0,0,0,.863-2.542c-2.024-4.658-4.269-9.218-7.808-12.917-5.343,2.013-7.59,1.1-10.157-4.015-2.948-5.869-2.933-12.141-2.448-18.456.175-2.283.739-4.543.8-6.823a4.654,4.654,0,0,0-1.171-3.123,8.718,8.718,0,0,1-2.37-8.779c.493-2.2.668-4.478,1.1-6.7a6.709,6.709,0,0,1,1.017-2.115,19.174,19.174,0,0,1,2.029-2.9,9.411,9.411,0,0,1,2.5-1.949c1.368-.718,2.961-1.043,4.265-1.848,13.421-8.29,27.013-8.1,40.735-.88,2.022,1.064,3.85,2.5,5.776,3.748a5.078,5.078,0,0,0,1.8,1.035c4.257.535,5.577,3.615,6.461,7.155a9.265,9.265,0,0,0,.88,2.215c3.224,5.808,4.273,12.2,5.1,18.659.4,3.167.726,6.358,1.394,9.473a26.988,26.988,0,0,0,7.1,12.981c3.154,3.336,6.309,6.677,9.308,10.151,5.081,5.884,7.1,13.095,8.48,20.521a55.2,55.2,0,0,0,6.267,17.993c3.037,5.232.417,14.953-4.552,18.459-1.671,1.179-3.377.881-5.154.326-3.078-.962-3.963-.976-6.7-.3-.091.166-.292.356-.264.5,1.243,6.549-.5,12.474-3.849,18.027q-9.285,15.389-18.66,30.725c-4.805,7.818-9.733,15.56-14.818,23.673,1.194.574,2.121,1.062,3.081,1.473q24.113,10.326,48.23,20.643c1.135.486,2.961.812,2.22,2.525s-2.331.575-3.4.128c-12.079-5.049-24.127-10.171-36.185-15.267-5.423-2.292-10.889-4.488-16.266-6.882-4.368-1.945-8.577-4.251-12.955-6.172q-21.686-9.517-43.45-18.858c-7.8-3.356-15.681-6.534-23.486-9.882-11.007-4.722-21.977-9.53-32.966-14.294-.623-.27-1.273-.479-2.334-.875-.628,5.993-.2,11.881-1.537,18.229a7.792,7.792,0,0,1-1.773-5.6c-.048-7.873-.048-15.745-.063-23.618,0-1.176,0-2.352,0-3.331l-16.009-1.2c0,1.049-.017,2.216,0,3.382.151,8.978.425,17.957.383,26.935a3.56,3.56,0,0,0,2.472,3.835,15.259,15.259,0,0,0,10.827.456,31.045,31.045,0,0,1,3.392-.614,5.342,5.342,0,0,1-4.4,3.887,14.213,14.213,0,0,1-12.52-2.307,4.756,4.756,0,0,1-2.093-4.047c-.136-7.48-.449-14.958-.522-22.438-.021-2.107-.664-3.264-2.677-4.018-4.863-1.822-9.57-4.09-14.5-5.677-2.058-.662-4.529-.08-6.809,0-.893.031-1.777.316-2.67.351-6.288.251-12.577.452-18.865.7-9.38.365-18.76.717-28.136,1.176a11.959,11.959,0,0,0-3.206,1.034,21.174,21.174,0,0,0-4.564-1c-16.091.147-32.181.389-48.27.627-2.737.04-2.9.222-2.942,2.9-.048,3.4-.008,6.793-.061,10.188-.036,2.35-.185,2.663-1.753,4.639-1.748-5.567-1.189-11.013-1.266-16.384s-.017-10.751-.017-16.072L-194,1633.167c0,.592,0,1.355,0,2.119q.037,13.933.074,27.867c.006,3.047.169,3.349,2.911,4.491a14.586,14.586,0,0,0,10.264.3c.978-.307,1.973-.56,2.961-.838l.519.724a8.843,8.843,0,0,1-1.619,1.975c-4.6,3.081-12.353,2.127-16-2.043a5.27,5.27,0,0,1-.891-3.01c-.279-4.978-.436-9.963-.654-14.945a14.043,14.043,0,0,0-.29-1.648l-4.069.5c.339,3.152.636,6.01.955,8.866.74,6.638,1.5,13.273,2.23,19.912.088.792.087,1.595.1,2.394.033,2.783-.1,3.136-2.846,3.6-10.334,1.76-20.655,3.656-31.044,5.016-6.712.879-13.542.814-20.3,1.362-3.933.318-7.835,1.01-12.188,1.592-.682-3.709,1.735-7.107,2.813-11.05a14.275,14.275,0,0,0-2.062.237c-16.435,4.467-33.279,6.7-50.085,9.14a11.959,11.959,0,0,0-7.292,3.824c-3.082,3.387-5.93,6.988-8.853,10.518-3.878,4.682-7.534,9.564-11.637,14.039-9.311,10.154-18.83,20.117-28.28,30.145-6.846,7.267-13.735,14.494-20.571,21.771-7.244,7.711-14.441,15.467-21.687,23.177a15.264,15.264,0,0,1-2.271,1.592c-.417-2.472.93-3.536,1.929-4.637,4.9-5.4,9.871-10.724,14.81-16.083.636-.691,1.23-1.422,2.336-2.707-1.72-.1-2.67-.139-3.618-.211-7.758-.593-15.552-.9-23.261-1.874-7.232-.912-13.988-3.314-19.242-8.821a28.065,28.065,0,0,1-7.565-16.9c-1.151-10.625,1.527-20.572,5.56-30.258.84-2.017,1.727-4.015,2.765-6.42l-3.5,1.946a6.5,6.5,0,0,1,.758-2.318,16.951,16.951,0,0,1,8.374-5.564,82.677,82.677,0,0,1,14.345-2.788c9.746-.736,19.532-1.044,29.307-1.261,9.292-.207,18.593-.18,27.886-.03a47.406,47.406,0,0,1,10.077,1.232c6.615,1.562,11.572,5.271,13.772,12.013a2.658,2.658,0,0,0,.5.676c3.195-2.178,3.462-3.116,1.2-5.846a36.61,36.61,0,0,0-5.222-5.294c-5.693-4.556-12.385-6.313-19.572-6.343-9.695-.042-19.391.023-29.087-.029-1.859-.01-3.567.028-4.465,2.013-2.084-2.044-2.317-2.081-4.844-1.895-2.784.206-5.574.363-8.364.445-7.383.215-14.782.249-22.039,1.866-5.452,1.215-10.21,3.579-13,8.724C-444.748,1705.862-445.737,1707.547-443.587,1708.821Zm292.812-239.111-4.457-5.028c-1.219.938-.845,1.928.135,2.6,1.361.929,2.883,1.621,4.336,2.414,8.28,3.913,16.7,2.3,25.122.832-2.544.035-5.087.374-7.641.486A73.362,73.362,0,0,1-150.775,1469.71Zm-123.42,72.368c1.858-.915,3.144-1.675,4.521-2.2a57.055,57.055,0,0,1,7.913-2.711c7.122-1.565,12.96.91,17.664,6.279a2.89,2.89,0,0,1,.824,2.128c-.7,2.436.776,4.192,1.558,6.194a3.4,3.4,0,0,0,3.952,2.372,65,65,0,0,1,8.062-.443c7.18.243,14.35.877,21.531.993,10.993.178,21.992.056,32.989.046.944,0,1.887-.118,2.831-.181l.238-.786-5.088-2.868a8.9,8.9,0,0,1,1.348-1.861c2.848-2.318,3.137-5.414,2.774-8.712-.371-3.367-.859-6.721-1.2-10.09-.906-8.961.615-17.314,6.6-24.394a13.7,13.7,0,0,0,3.176-9.683c-.086-3.778.11-7.57.339-11.347.437-7.221,4.761-13.271,6.291-20.192a4.171,4.171,0,0,1,2.994-2.486c2.848-.228,4.579-2.155,7.251-3.646-1.088-.055-1.645-.1-2.2-.11q-12.58-.288-25.16-.566c-9.787-.208-19.573-.43-29.361-.59q-20.079-.327-40.158-.559c-9.5-.1-18.994-.082-28.491-.1-2.946-.005-3.176.171-3.13,2.977.13,7.779.282,15.559.52,23.336.366,11.961.884,23.918,1.194,35.881.173,6.686.053,13.379.076,20.068C-274.339,1539.71-274.265,1540.588-274.2,1542.078Zm-68.316,76.27c2.633.811,2.329,2.6,2.6,3.9a103.709,103.709,0,0,0,11.633,29.712,38.65,38.65,0,0,0,11.426,12.118c2.642,1.91,4.212,1.222,4.7-1.8,1.756-10.884,1.825-21.851,1.756-32.834-.056-9.088-1.141-17.91-5.608-26.053-1-1.827-1.6-3.871-2.482-5.771-.3-.657-.794-1.529-1.376-1.7-1.6-.468-1.413-1.442-1.054-2.563.944-2.945,1.828-5.913,2.885-8.818,1.893-5.2,3.843-10.419,10.593-10.9-2.626-3.359-7.493-5.308-5.1-10.731-4.994,1.96-6.965.592-11.994-8.694-.761,2.7-1.566,4.913-1.991,7.2-.912,4.894-1.255,9.91-3.617,14.454a3.028,3.028,0,0,0-.093,2.27c2.479,5.989,4.7,12.122,7.683,17.857a55.382,55.382,0,0,1,6.029,28.335c-.2,5.067-1.039,10.109-1.611,15.159-.6,5.25-1.18,10.5-1.858,15.741a11.74,11.74,0,0,1-1.028,2.655l-.913-.14a13.159,13.159,0,0,1-.435-3.019c.4-4.665.8-9.336,1.434-13.973,1.037-7.607,2.543-15.164,2.085-22.9-.442-7.472-2.066-14.572-6.076-21.053a60.578,60.578,0,0,1-4.223-8.588c-1.88-4.512-3.148-9.318-5.39-13.629-2.706-5.2-6.115-10.045-9.3-14.992-3.658-5.682-6.825-11.518-6.879-18.531-.034-4.328-.056-4.33-4.127-5.622a4.817,4.817,0,0,0-.968-.007,24.534,24.534,0,0,0-3.112,10.885c-.1,3.392.061,6.79.019,10.184-.058,4.722-2.241,8.419-5.833,11.314a22.829,22.829,0,0,1-4.273,2.763,27.067,27.067,0,0,0-13.886,14.639,30.247,30.247,0,0,1-8.664,12.046,18.836,18.836,0,0,0-1.695,1.7,7.4,7.4,0,0,0-1.688,8.3c.906,2.21,2.136,4.287,3.089,6.481,1.388,3.194,2.662,6.438,3.973,9.666.248.613.44,1.248.729,2.074a16.6,16.6,0,0,0,8.32-7.592,55.961,55.961,0,0,1,5.674-9.129c7.973-9.72,18.5-10.941,28.128-3.175a43.08,43.08,0,0,1,10.1,12.491c4.19,7.312,7.866,14.823,9.288,23.23.236,1.392.837,2.9-.948,4.527-.459-1.478-.849-2.637-1.178-3.813-.779-2.781-1.206-5.711-2.358-8.325-2.212-5.014-4.763-9.883-7.3-14.749a39.374,39.374,0,0,0-8.376-10.485c-7.281-6.784-16.628-6.805-23.531.326a49.509,49.509,0,0,0-6.4,8.965c-2.079,3.437-3.971,6.826-7.748,8.868-2.284,1.234-3.977,3.231-3.756,6.32a10.481,10.481,0,0,1-.833,4.38c-2.571,6.573-2.136,13.386-1.205,20.064a71.848,71.848,0,0,1-1.137,26.723c-.447,1.9-.816,3.81-1.318,6.174,1.567,0,2.737-.016,3.907,0,9.787.159,19.576.268,29.361.5,9.812.235,17.257,4.967,23.19,12.467a17.556,17.556,0,0,0,1.629,1.589l11.079-13.934c-2.978.336-5.859.463-8.651,1.028a11.041,11.041,0,0,1-8.526-1.787,37.042,37.042,0,0,1-9.14-8.969,146.367,146.367,0,0,1-17.683-29.475,128.74,128.74,0,0,1-8.332-25.584,12.683,12.683,0,0,1-.025-2.645l.963-.184a34.961,34.961,0,0,1,1.263,3.325,152.327,152.327,0,0,0,19.893,44.993c4.507,6.776,9.606,13.03,16.728,17.286a5.323,5.323,0,0,0,3,.956c6.045-.722,12.059-1.692,18.1-2.434a4.526,4.526,0,0,0,3.8-2.9,28.077,28.077,0,0,0,2.443-15.178c-.161-1.8-1.159-2.334-2.817-2.308-3.3.052-6.6.038-9.9-.005a17.318,17.318,0,0,1-2.415-.365l-.078-.884,3.871-1.051a34.363,34.363,0,0,1-9.451-9.982,98.3,98.3,0,0,1-12.525-31.573A46.853,46.853,0,0,1-342.511,1618.348Zm451.7,3.056.827.757a30.249,30.249,0,0,1-1.638,2.589c-6.407,8.23-14.054,15.251-21.672,22.32a177.1,177.1,0,0,1-30.985,22.971c-5.774,3.388-11.588,6.706-18.044,8.713-4.962,1.543-9.058.219-12.436-3.563-1.17-1.31-2.183-2.759-3.492-4.43-.733,1.99-1.333,3.619-1.976,5.363l65.536,28.453c1.888-3.058,3.593-5.956,5.439-8.762,1.313-2,2.9-3.812,4.215-5.809,3.183-4.839,6.33-9.7,9.4-14.618a212.919,212.919,0,0,0,16.571-32.188c.61-1.493.867-2.842-.135-4.233a12.374,12.374,0,0,1-2.106-8.254c.184-2.981.736-5.943.843-8.923.124-3.471.432-7.047-.208-10.413-1.549-8.15-6.578-14.019-13.675-18.025-6.771-3.822-12.779-8.344-17.614-14.578-4.109-5.3-8.952-9.876-15.977-11.51-2.364-.55-4.42-2.419-6.749-3.761a21.593,21.593,0,0,1-1.295,3.64c-.987,1.8-.4,3.029.678,4.577,2.269,3.269,4.232,6.75,6.327,10.14.444.717.913,1.419,1.351,2.1,3.476-1.629,6.079-4.245,9.884-4.7a88.539,88.539,0,0,0-22.2,22.565c-6.074,8.875-12.525,17.512-14.8,28.445a11.491,11.491,0,0,0,2.474-1.954c6.931-6.919,13.881-13.82,20.764-20.786,2.525-2.554,4.868-5.286,7.339-7.895a12.031,12.031,0,0,1,1.853-1.343l.5.612c-.693.941-1.315,1.945-2.09,2.813-5.452,6.1-10.787,12.319-16.453,18.218-5.046,5.254-10.344,10.284-15.764,15.155-4.172,3.749-8.757,7.021-14.49,8.067a16.366,16.366,0,0,1-2.9.024c.255-1.465.771-2.509.521-3.317-1.379-4.445-2.944-8.832-4.576-13.624-2.453.851-5.032,1.595-7.485,2.636-2.594,1.1-2.688,1.392-2.093,4.122,1.635,7.5,3.2,15.018,5.049,22.464,1.525,6.134,3.833,11.98,7.9,16.977a10.158,10.158,0,0,0,8.289,4.049,18.422,18.422,0,0,0,8.6-2.292c3.634-1.885,7.232-3.857,10.728-5.984,13.945-8.48,27.27-17.818,38.889-29.349,5.167-5.127,9.955-10.636,14.942-15.946A15.521,15.521,0,0,1,109.187,1621.4Zm-360.947-73.445c-5.1.783-9.511,3.269-13.986,5.673q-7.248,3.893-14.68,7.437a4.863,4.863,0,0,0-2.669,2.981c-3.778,10.344-4.816,21.086-4.629,32.448a102.411,102.411,0,0,0,9.553-12.048c3-4.209,4.034-9.1,4.987-14.114a3.3,3.3,0,0,1,.731,1.88,18.9,18.9,0,0,1-2.982,10.823c-3.258,4.9-6.728,9.657-10.137,14.454-2.914,4.1-5.391,8.347-6.27,13.44-.56,3.241-1,6.159,2.794,7.568.94-4.791,2.14-7.1,4.958-9.372.825-.666,1.661-1.407,3.482.185-.764.36-1.5.474-1.821.9a23.73,23.73,0,0,0-3.484,5.141c-1.721,4.3.289,7.087,4.846,7.187,1,.022,2.008-.063,3,.049a10.712,10.712,0,0,1,2.154.822l-2.176,1.3a28.867,28.867,0,0,0,7.227-.4c8.324-1.643,16.564-3.82,24.948-5.011,6.628-.942,13.273-.407,19.052,4.019,3.153,2.415,6.747,4.252,10.121,6.383a13.715,13.715,0,0,1,1.589,1.366l-.321.716a8.077,8.077,0,0,1-2.423-.33,64.609,64.609,0,0,1-7.124-3.732c-2.6-1.661-5-3.648-7.516-5.452-.553-.4-1.428-1.037-1.818-.854-2.58,1.214-5.162-.179-7.663.155-6.022.8-12.038,1.738-17.994,2.931-6.461,1.293-12.833,3.185-19.5,2.834-2.686-.142-5.347-.763-8.035-1.168,1.869,3.551,6.694,5.881,5.1,10.878l-.747.378-3.6-6.521-.455.284c.275,3.335.551,6.67.84,10.17,4.325.848,8.437,2.3,13.266,1.849-.779-2.485-1.49-4.531-2.056-6.616-.609-2.245-.557-4.382,1.621-6.424a34.22,34.22,0,0,0,.061,5.462,28.082,28.082,0,0,0,1.56,4.555,34.882,34.882,0,0,1,3.97,1.068,45.982,45.982,0,0,0,21.992,3.338,5.4,5.4,0,0,0,3-1.464c2.456-2.41,5.39-3.661,8.689-3.086a37.034,37.034,0,0,1,7.907,2.669,4.926,4.926,0,0,1,3.242,3.667,2.239,2.239,0,0,0,1.684,1.219,23.5,23.5,0,0,0,4.479-.19c5.749-.67,11.487-1.433,17.238-2.085,3.324-.376,3.333-.31,3.357-3.751.019-2.7-.05-5.4.068-8.087.179-4.089,1.889-5.993,5.954-6.583a23.74,23.74,0,0,1,11.215,1.264c3.782,1.3,3.762,1.373,3.776,5.3.011,2.995-.011,5.991.02,8.987.038,3.55.534,3.9,3.956,3.014.457-8.087,1.222-16.133,1.291-24.184.1-11.355,1.952-22.642.862-34.055a59.531,59.531,0,0,0-3.137-14.844,23.687,23.687,0,0,1-.909-11.482c.146-1.136.276-2.273.452-3.723-21.875,1.893-43.35-.58-64.992.568a1.636,1.636,0,0,0,.9.924c2.425,1.527,2.7,2.26,1.769,4.826-.2.563-.481,1.1-.689,1.66-1.128,3.04-.389,5.882,2.29,8.4,1.124-2.594,3.32-2.862,5.747-2.667,1.193.1,2.4.044,3.6.1a9.086,9.086,0,0,1,8.491,6.432,62.768,62.768,0,0,1,1.939,10.556c.523,5.778,1.413,11.295,4.168,16.6a110.1,110.1,0,0,1,11.793,36.579,15.708,15.708,0,0,1-.077,2.578l-.893.094a39.673,39.673,0,0,1-1.278-3.808,168.432,168.432,0,0,0-12.955-37.557c-1.811-3.636-3.734-4.29-7.826-2.389.873,2.494,1.764,5.013,2.637,7.538a66.777,66.777,0,0,1,3.225,17.308c.085,1.22.6,2.825-1.288,3.556-.642-.707-1.1-1.636-1.827-1.94-3.6-1.512-5.435-4.549-7.133-7.752-1.492-2.815-2.561-5.982-4.56-8.375-4.34-5.2-9.159-9.993-13.771-14.964-1.03-1.11-1.983-.457-2.959.052a15.451,15.451,0,0,1-9.283,1.719,5.443,5.443,0,0,0-2.028.178c-2.421.645-4.37-.266-5-2.712a19.635,19.635,0,0,1-.4-4.715c-.015-2.591.2-5.186.123-7.774a25.148,25.148,0,0,0-.779-4.072l-.656.033c-.64,1.52-1.789,3.024-1.838,4.562-.341,10.682,4.015,19.3,15.319,22.41a17.739,17.739,0,0,1,2.694,1.3c-2.153,1.243-2.255,1.262-4.01.929-8.107-1.536-14.907-9.164-16.054-17.736a63.713,63.713,0,0,1,.1-17.3c.735-5.3,2.219-10.375,5.516-14.7.985-1.293,1.753-3.383,4.219-2.379.255.1.918-.606,1.3-1.025C-255.468,1552.163-253.644,1550.084-251.76,1547.959Zm115.445-34.907c-3.877-3.476-10.716-7.18-15.054-8.223-2.37-.57-3.068-.41-4.035,1.845a96.666,96.666,0,0,0-4.134,10.89c-3.106,10.633-3.636,21.61-3.764,32.6-.078,6.679-.756,13.121-4.465,18.942-1.565,2.456-1.656,5.139-1.025,8.066a64.254,64.254,0,0,1,1.773,12.7c.1,9.272-.228,18.553-.529,27.825-.25,7.67-.726,15.333-1.07,23-.074,1.653-.011,3.312-.011,5.188,1.291,0,2.378.015,3.464,0q18.88-.3,37.759-.6c1.3-.021,2.6-.042,3.9-.023,1.548.022,2.059-.728,2.043-2.236q-.078-7.452.022-14.907c.2-13.269.531-26.536.633-39.806a93.769,93.769,0,0,0-.8-12.527c-1.573-12.369-3.314-24.716-2.807-37.24a18.99,18.99,0,0,0-.29-2.7c-4.679.663-9.006,1.337-13.35,1.873-3.167.391-6.353.7-9.539.828-.915.036-2.583-.57-2.66-1.072-.244-1.593,1.294-1.682,2.46-1.886,1.277-.224,2.56-.432,3.847-.577,5.851-.66,11.727-1.134,17.552-1.967a456.728,456.728,0,0,0,59.163-12.648,55.52,55.52,0,0,0,8.593-3.471c.832-.394,1.875-1.609,1.814-2.367a35.469,35.469,0,0,0-1.457-5.908c-1.8.584-3.1,1.046-4.424,1.427-4.795,1.382-9.528,3.127-14.415,4.014-8.432,1.531-16.939,2.737-25.458,3.683a106.945,106.945,0,0,1-29.853-.774c-6.468-1.1-12.859-3.067-19.554-1.639-.492.1-1.129-.469-1.7-.727.4-.5.7-1.3,1.209-1.46a14.746,14.746,0,0,1,4.648-.947C-144.075,1512.319-140.326,1512.737-136.315,1513.052Zm-250.306,248.941.475.709c.867-1.1,1.656-2.271,2.612-3.285q16.129-17.106,32.3-34.172c2.673-2.83,5.24-5.763,7.983-8.522a5.738,5.738,0,0,0,1.549-5.962,11.72,11.72,0,0,0-8.587-8.788A44.481,44.481,0,0,0-362.028,1700c-20.684-.318-41.376-.362-62.027,1.137-5.1.37-10.079,1.426-14.527,4.129.485,2.391.367,2.468-1.26,6.916-3.638,9.944-7.19,19.9-6.186,30.808a24.636,24.636,0,0,0,6.609,15.327c4.431,4.681,10.067,6.83,16.137,7.894,9.765,1.712,19.663,1.893,29.557,1.934,2.389.01,3.71-1.24,4.748-3.464-.891-.05-1.48-.125-2.067-.11a143.356,143.356,0,0,1-27.163-1.795c-6.161-1.016-12.11-2.575-17-6.844-8.224-7.174-10.15-16.385-8.683-26.644a67.642,67.642,0,0,1,7.478-21.7,25.264,25.264,0,0,1,1.519-2.288l.851.343a15.868,15.868,0,0,1-.553,2.585c-.98,2.51-2.079,4.974-3.092,7.472-2.8,6.916-4.715,14.011-4.08,21.571.632,7.53,3.348,13.968,10.035,18.13a32.52,32.52,0,0,0,12.053,4.35c9.1,1.5,18.279,1.75,27.475,1.811C-390.344,1761.567-388.483,1761.84-386.621,1761.993Zm509.333-124.606c1.539-.6,2.779-.969,3.918-1.539,4.723-2.367,9.538-3.35,14.77-1.724,2.69.837,4.494,0,5.655-2.578,2.044-4.535,2.828-9.313.033-13.761-3.287-5.229-4.7-11.025-5.6-16.928a42.9,42.9,0,0,0-12.264-24.434,119.136,119.136,0,0,1-8.469-9.668,22.026,22.026,0,0,1-4.468-10.653c-.7-4.831-1.138-9.706-1.964-14.514-.774-4.5-1.871-8.959-4.879-12.822-19.768,6.725-39.207,4.2-58.906-2.155a49.632,49.632,0,0,0-1.664,5.848c-.48,3.048.718,4.976,3.79,5.34,4.522.536,6.512,3.377,7.828,7.189,1.141,3.3,2.317,6.59,3.5,9.876,1.926,5.342,4.963,9.336,10.983,10.767A20.907,20.907,0,0,1,82.8,1569.8c2.619,2.1,4.69,4.872,7.02,7.334a66.294,66.294,0,0,0,6.448,6.611,121.136,121.136,0,0,0,10.825,7.479c6.329,3.995,11.511,8.854,13.913,16.227a36.878,36.878,0,0,1,1.02,17.418C121.4,1628.9,121.174,1632.98,122.712,1637.387Zm-554.16,55.083,33.145-2.131c-1.668-2.916-2.922-5.5-4.532-7.836a22.17,22.17,0,0,1-4.092-14.114,11.634,11.634,0,0,0-2.061-6.936c-3.952-6.676-3.968-13.435-.116-20.178.743-1.3,1.605-2.533,2.325-3.844,2.738-4.985,5.51-9.955,8.108-15.013a9.467,9.467,0,0,0,.945-4.261c-.012-1.54-.656-3.064-.891-4.615-.35-2.314-1.233-3.126-3.622-2.94a18.815,18.815,0,0,0-2.934.577,320.285,320.285,0,0,1-37.13,6.678c-2.912.355-5.809.827-8.7,1.243,2.615,10.846,4.895,21.273,7.668,31.567C-439.552,1664.723-435.391,1678.677-431.448,1692.47Zm121.893-5.754c4.051-.619,7.5-1.041,10.9-1.687,10.209-1.936,20.4-3.968,30.6-5.944,1.955-.379,3.98-1.148,5.88-.93,7.07.811,13.873-.7,20.722-1.9,1.43-.25,2.988-.533,3.389-2.571l-3.647-1.684.218-.854c1.144-.07,2.291-.111,3.431-.217a9.641,9.641,0,0,0,2.921-.455,2.339,2.339,0,0,0,1.269-1.717,2.223,2.223,0,0,0-1.448-1.533,19.034,19.034,0,0,0-3.248,0c-.959-.042-1.911-.239-3.516-.454.969-.75,1.24-1.123,1.572-1.188,1.265-.248,2.548-.408,3.828-.578,1.439-.192,2.59-.727,2.378-2.43-.2-1.584-1.15-2.12-2.773-1.873a22.371,22.371,0,0,1-4.482.158,11.743,11.743,0,0,1-2.525-.7l.075-.939c1.3-.24,2.6-.537,3.914-.7,1.086-.138,2.306.144,3.25-.262.732-.315,1.13-1.4,1.677-2.15a7.7,7.7,0,0,0-1.864-1.122,10.175,10.175,0,0,0-2.387-.069c-2.523-.046-5.279,1.521-7.446-1.109-.176-.214-.767-.088-1.165-.117a8.9,8.9,0,0,0-8.214,4,22.109,22.109,0,0,1-12.274,8.005,37.439,37.439,0,0,1-9.165,1.238c-8.3.171-16.6.074-24.9.08-4.311,0-4.813.314-4.014,4.623.815,4.393-.523,8.282-1.832,12.258C-308.668,1684.63-309,1685.341-309.555,1686.716Zm106.416-34.362c-.938.119-1.429.16-1.913.245-4.711.828-9.419,1.67-14.131,2.493-4.252.743-8.732.285-12.539,3.213-1.4,1.08-1.847,1.66-1.2,3.287.366.923.088,2.092.15,3.147a7.9,7.9,0,0,0,.3,2.471c1.038,2.536.653,3.984-1.938,4.946a2.924,2.924,0,0,0-2.175,2.761,3.407,3.407,0,0,1-3.107,3.193c-5.644.5-10.9,3.369-16.753,2.643a2.838,2.838,0,0,0-2.321.892,14.746,14.746,0,0,0-2.4,7.116c3.916-.512,7.555-1.095,11.216-1.447,9.219-.889,18.472-1.478,27.665-2.568,6.329-.751,12.594-2.073,18.862-3.272,3.211-.615,3.535-1.366,3.133-4.541-.577-4.541-1.011-9.1-1.532-13.648C-202.229,1659.741-202.674,1656.2-203.139,1652.354ZM-2,1425.749c-2.292.477-4.613,1.024-6.958,1.439-16.919,3-33.825,6.078-50.77,8.918-14.966,2.509-29.976,4.752-44.97,7.089-3.97.619-4.439,1.01-4.57,4.263-.121,2.988.462,3.485,3.432,2.991,6.009-1,12.012-2.042,18.033-2.962,11.549-1.766,23.131-3.323,34.659-5.215,15.277-2.508,30.511-5.281,45.773-7.884,6.6-1.125,6.753-1.254,5.856-7.97C-1.528,1426.332-1.627,1426.259-2,1425.749Zm-302.521,106.313c-1.424.161-2.254.247-3.081.35-8.807,1.094-17.608,2.236-26.423,3.268-4.16.487-8.34.831-12.52,1.109-1.709.113-2.358.942-2.215,2.475.24,2.569.135,5.291.99,7.655a58,58,0,0,0,4.988,10.15c3.2,5.289,6.7,10.394,10.092,15.562.128.194.49.234,1.226.56.644-2.755,1.6-5.311,1.785-7.922a34.022,34.022,0,0,1,9.2-20.942c1.883-2.061,4.635-3.4,7.14-4.805A27.583,27.583,0,0,0-304.523,1532.062Zm43.482,126.763.408.544a14.372,14.372,0,0,0,2.187-2.408c2.7-4.783,7.214-5.987,12.184-6.266,2.891-.162,5.792-.227,8.687-.191a3.553,3.553,0,0,1,2.29.885,5.933,5.933,0,0,0,4.791,1.611c-1.338-.718-3.236-1.127-3.867-2.247s.012-2.949.1-4.634c-.5-.415-1.44-.867-1.764-1.594-.222-.5.419-1.378.663-2.057-3.849.013-4.153.233-6.251,3.46a2.8,2.8,0,0,1-1.939,1.111c-6.075.235-12.179.759-18.227.4-6.552-.388-13.056-1.608-19.574-2.518a2.469,2.469,0,0,0-2.751,1.249c-2.62,4.125-3.623,8.737-4.533,13.749,6.87-.418,13.411-.868,19.958-1.187C-266.137,1658.61-263.586,1658.785-261.041,1658.825Zm89.814-122.476.837.095c-.1-7.98,4.318-14.449,6.908-21.526.251-.683,1.446-1.022,2.462-1.691,1.9-3.908,4.093-8.168,6.051-12.532.8-1.784,1.8-3.914,1.494-5.672-.81-4.59-.12-8.448,3.31-11.735,1.779-1.7,3.4-3.573,5.175-5.281a24.734,24.734,0,0,1,2.952-2.053c-5.815-.8-11.342-.318-15.621-4.829-.8,2.021-1.516,3.653-2.1,5.329-2.216,6.319-2.523,12.889-2.319,19.486a16.409,16.409,0,0,1-3.867,11.613,25.237,25.237,0,0,0-5.8,17.489C-171.661,1528.813-171.408,1532.58-171.227,1536.349ZM-285.814,1644c-1.389-.275-2.474-.85-3.262-.575-1.826.637-2.813-.356-3.923-1.382-4.4-4.059-7.4-9.1-10.163-14.314-1.84-3.475-3.637-6.971-5.453-10.458.027,4.891.541,9.636.582,14.384.05,5.668-.161,11.35-.545,17.006a6.353,6.353,0,0,0,3,6.344,37.15,37.15,0,0,0,12.407,5.058c1.577.334,2.507-.12,2.535-1.911.067-4.323,1.711-8.138,3.882-11.782A18.757,18.757,0,0,0-285.814,1644Zm-106.366,2.3c-3.331,1.313-6.394,2.733-9.591,3.72a15.053,15.053,0,0,0-7.6,5.282c1.258,2.417,2.288,5.176,3.963,7.463a50.41,50.41,0,0,1,9.364,22.115,22.169,22.169,0,0,0,1.526,4.137c2.1-6.876,3.631-13.63,3.565-20.52C-391.024,1661.042-391.749,1653.595-392.18,1646.3Zm87.438-126.56c-7.283-5.026-14.6-8.286-23.083-8.678-7.081-.328-13.12,2.093-18.52,6.427a15.8,15.8,0,0,0-4.593,6.115A289.6,289.6,0,0,0-304.742,1519.74Zm433.254,118.612c-2.829.82-4.5,2.223-5.2,4.814a33.9,33.9,0,0,1-2.057,5.917c-2.812,5.835-5.61,11.688-8.718,17.367-5.219,9.535-10.659,18.955-17.5,27.462a50.352,50.352,0,0,0-7.51,11.68c3.007,1.809,3.277,1.755,4.987-.944.32-.506.636-1.013.965-1.512,8.3-12.565,16.729-25.046,24.837-37.732a168.456,168.456,0,0,0,8.816-16.271A16.168,16.168,0,0,0,128.512,1638.352ZM16.726,1606.469c-3.051-1.487-5.208-2.18-6.452.907A1.49,1.49,0,0,1,9.3,1608a2.606,2.606,0,0,0-2.138,2.825c-.031.923-.129,1.7-1.379,1.94-.471.089-1.056,1.078-1.1,1.691-.4,5.552,3.062,9.244,6.5,12.886a2.019,2.019,0,0,0,1.883.049,19.434,19.434,0,0,1,9.554-2.546c2.445-10.433-2.4-18.975-6.538-27.726Zm-411.308,7.894a56.869,56.869,0,0,1-1.117,5.773,27.85,27.85,0,0,1-2.181,5.236c-3.039,5.611-6.252,11.127-9.261,16.752a21.378,21.378,0,0,0-2.625,9.176,42.966,42.966,0,0,1,4.783-2.784,51.178,51.178,0,0,1,5.435-1.634,12.174,12.174,0,0,0,7.116-5.612C-387.85,1633.683-388.955,1622.592-394.582,1614.363Zm94.788-82.635c-2.885,2.545-5.424,4.743-7.9,7.012a2.511,2.511,0,0,0-.721,1.582c-.283,6-.125,11.967,2.33,17.592,1.149,2.633,2.842,3.6,5.355,3.458,2.528-.147,3.876-1.624,4.771-3.871a11.642,11.642,0,0,1,2.193-3.4c1.685-1.858,1.956-3.177.2-4.9-2.326-2.284-3-4.993-3.092-8.11A16.144,16.144,0,0,0-299.794,1531.728Zm359.048-13.646c8.694,3.78,35.006,5.373,41.907,2.044C89.993,1509.322,68.2,1509.46,59.254,1518.082Zm-182.319-42.9c-3.688,1.9-6.889,1.66-10.214,1.368-2.638-.232-5.876.119-7.4,2.413-2.674,4.016-4.385,8.6-2.632,13.563a5.215,5.215,0,0,0,2.553,2.6,60.628,60.628,0,0,0,6.387,2.251,16.809,16.809,0,0,1,1.773-3.983c.6-.791,2.553-1.648,2.934-1.328,1.606,1.348,2.579-.266,3.506-.19,0-3.2-.129-6.18.044-9.142.121-2.069-.208-4.519,2.6-5.419C-123.3,1477.25-123.316,1476.452-123.065,1475.182Zm-92.469,121.107c-.3-3.78-.51-7.451-.922-11.1a45.879,45.879,0,0,0-1.308-7.02,6.2,6.2,0,0,0-4.345-4.222,33.182,33.182,0,0,0-6.739-.919q-2.988-.242-2.9,3.545c.754-.415,1.389-.837,2.078-1.131a3.587,3.587,0,0,1,4.65,1.571,2.546,2.546,0,0,1-.853,3.641c-2.65,1.988-2.819,2.009-4.777.193-1.189-1.1-2.449-2.13-3.677-3.191a32.968,32.968,0,0,0,1.618,5.271c1.01,3.252,3.343,5.329,5.926,7.29a12.174,12.174,0,0,1,3.543,3.417c1.71,3.172,4.03,4.076,7.323,2.916A2.517,2.517,0,0,0-215.534,1596.289ZM-246.5,1548.46c-3.128,1.31-7.612,4.833-8.979,7.13a3.1,3.1,0,0,0-.129,2.43,69.223,69.223,0,0,0,3.56,7.573c1.329,2.358,3.04,4.436,5.841,5.295,2.364.725,3.259.463,4.242-1.862.821-1.942,1.529-3.826,3.448-5.086,1.169-.767,1.3-2.008-.13-2.9-2.7-1.687-3.942-4.4-5.165-7.154C-244.611,1552.09-245.555,1550.358-246.5,1548.46Zm27.561,75.312,1.135-.377c-.423-2.922-.725-5.87-1.322-8.756a9.1,9.1,0,0,0-1.748-3.657c-4.686-5.942-9.487-11.793-14.223-17.7-1.433-1.787-2.708-3.7-4.2-5.442-1.153-1.347-4.046-1.5-5.794-.335-1.547,1.029-1.2,2.5-.689,4.02,1.237.041,2.541-.222,2.819,1.517.079.494.694.927,1.112,1.338,3.057,3.006,6.239,5.894,9.164,9.022,3.539,3.782,6.745,7.765,8.705,12.741C-222.885,1618.92-220.657,1621.245-218.941,1623.772Zm-29.391-38.727a2.1,2.1,0,0,0-.608-.383c-4.3-1.765-7.783-4.414-9.76-8.776-.745-1.645-2.258-1.905-4.3-2.124,2.162,5.517,1.949,10.905,1.915,16.286a8.687,8.687,0,0,0,.609,3.209c.25.625,1.038,1.481,1.574,1.473,2.866-.04,5.737-.24,8.588-.556,1.091-.121,1.488-.935,1.467-2.19C-248.881,1589.864-248.553,1587.739-248.332,1585.045Zm96.275-119.2c3.226,3.63,19.316,4.557,25.208,1.452C-133.678,1458.2-146.134,1457.481-152.057,1465.842Zm-112.21,195.821-.3-.612c-1.275.154-2.546.4-3.824.447-7.676.257-15.353.577-23.031.657a23.114,23.114,0,0,1-16.2-5.927,10.225,10.225,0,0,0-1.345-.84c-.377,3.317-.718,6.318-1.1,9.64,2.793,0,5.177.042,7.558-.008,7.977-.167,15.959-.262,23.93-.6a114.1,114.1,0,0,0,11.58-1.29A9.218,9.218,0,0,0-264.267,1661.663Zm142.535-181.154-.707-.06a13.74,13.74,0,0,0-1.319,5.955c.037,3.388.12,6.78.01,10.164-.125,3.836-1.363,7.254-4.533,9.682a33.516,33.516,0,0,1-3.267,1.98c1.234,3.072,2.823,4.577,6.722,6.428,2.8,1.33,4.095.551,4.036-2.616-.184-10.056-.437-20.109-.679-30.163A8.23,8.23,0,0,0-121.732,1480.509Zm78.383,24.347,1.819-2.959c-4.181-1.485-7.648.388-10.714,2.432-4.514,3.01-4.094,2.461-2.607,6.859a12.356,12.356,0,0,1,.5,2.026c.256,1.628,1.2,2.274,2.738,1.8a60.448,60.448,0,0,0,7.313-2.527c1.451-.664,3.029-1.665,2.1-3.941-.215-.528.466-1.412.709-2.14a5.107,5.107,0,0,0,.138-.811ZM-162.9,1519.844a37,37,0,0,0-5.238,18.114c-.11,4.777-.182,9.57-.669,14.316-.385,3.751-1.437,7.43-2.061,11.164a24.418,24.418,0,0,0-.034,3.968l.667.135c1.606-2.887,3.536-5.663,3.8-9.124.322-4.267.417-8.55.689-12.821.309-4.865.583-9.736,1.1-14.58C-164.248,1527.272-163.5,1523.567-162.9,1519.844ZM-.5,1668.161c2.484.867,4.445,3.083,6.99.7.465,1.017.625,2.161,1.266,2.593a11.274,11.274,0,0,0,3.851,1.515,2.337,2.337,0,0,0,1.93-.78c1.105-1.482,1.819-3.185.505-4.923-1.728-2.286-2.56-5.63-6.269-5.681a5.363,5.363,0,0,0-2.244.7A12.7,12.7,0,0,0-.5,1668.161Zm-311.916-107.408a13.618,13.618,0,0,0-4.1-12.154c-1.674-1.69-3.845-.948-4.626,1.364C-323.174,1555.957-319.088,1561.136-312.421,1560.753Zm74.1,25.595,16.105,18.9a40.989,40.989,0,0,0-1.728-8.8,6.268,6.268,0,0,0-2.392-3.316,20.552,20.552,0,0,1-8.128-8.512Zm-15.027-46.148c-6.968-2.277-22.283,3.478-25.826,9.736Zm305.022,17.326A3.3,3.3,0,0,0,55.11,1555c1.347-4.223,1.262-8.6.886-12.951-.048-.553-1.184-1.394-1.831-1.408a2.423,2.423,0,0,0-1.913,1.325C51.158,1547.033,51.3,1552.152,51.675,1557.526Zm54.672-34.783c-8.749,2.407-17.718,2.426-26.689,2.088-9.08-.342-17.859-2.6-27.085-4.962C59.7,1526.055,94.873,1527.9,106.347,1522.743Zm-228.457-63.667h-9.152c3.028,3.688,5.993,7.3,9.152,11.148Zm-30.874,42.992c2.622,1.016,5.028,1.89,7.387,2.877s4.563,2.42,7.2,2.863a47.234,47.234,0,0,0-5.573-4.07,7.688,7.688,0,0,1-3.48-5.859l-3.977-.3Zm170.055,165.28c1.892-1.271,2.1-1.412,1.651-2.772-1.087-3.263-2.335-6.473-3.7-10.208a24.539,24.539,0,0,0-3.075,3.693,3.084,3.084,0,0,0,.2,2.654C13.659,1663.008,15.407,1665.144,17.071,1667.348ZM-260.887,1548.6c-6.586,1.319-17.98,6.689-19.619,9.115C-276.863,1557.84-268.561,1552.77-260.887,1548.6Zm311.375-24.943c7.842,4.23,33.268,7.454,41.192,5.423C77.615,1529.842,63.964,1527.517,50.488,1523.653Zm-197.381-30.9a36.839,36.839,0,0,0-1.111-4.446,2.028,2.028,0,0,0-1.577-1.018c-.537.01-1.46.629-1.518,1.072a14.88,14.88,0,0,0-.035,4.647c.246,1.274,1.28,2.55,2.765,2.043C-147.648,1494.807-147.308,1493.448-146.893,1492.755Zm-32.347,137.983c-4.02-2.065-9.913-2.134-13.245-.156C-185.855,1632.473-182.653,1632.51-179.24,1630.738Zm-122.011-107.5a12.513,12.513,0,0,0-3.181-.634c-9.219,1.088-18.428,2.257-27.654,3.406C-321.936,1526.264-311.931,1524.715-301.251,1523.234Zm-98.314,159.078c.043-4.637-2.3-10.754-4.829-12.607A17.506,17.506,0,0,0-399.565,1682.312ZM62.663,1563.968c.464-1.208,1.554-2.6,1.265-3.586-.691-2.367-2.032-4.544-3.4-7.4A11.415,11.415,0,0,0,62.663,1563.968ZM-313.2,1527.892l-27.179,2A93.193,93.193,0,0,0-313.2,1527.892Zm444.566,109.743c-.8,5.117-1.609,10.235-2.472,15.731C131.572,1648.118,133.644,1643.167,131.368,1637.635Zm-157.035,6.758c-4.082-1.968-9.575-2.015-12.13-.2C-33.8,1645.17-29.968,1646-25.667,1644.393Zm-231.6-73.346c-.214-2.815-.7-3.784-3.071-6.088-.528,1.347-1.112,2.6-1.514,3.919a2.133,2.133,0,0,0,2.393,2.8A13.009,13.009,0,0,0-257.267,1571.047Zm32.759,80.261.158,1.215a80.663,80.663,0,0,0,17.317-2.848C-212.855,1650.248-218.739,1650.309-224.508,1651.308ZM20.22,1668.957l-.746-.453c-1.343,1.393-2.771,2.718-3.967,4.227a2.085,2.085,0,0,0,.406,1.965c.818.738,1.707.326,2.149-.651C18.822,1672.368,19.5,1670.655,20.22,1668.957ZM-145.2,1473.532a59.769,59.769,0,0,1-6.2-2.038,53.508,53.508,0,0,1-5.422-3.172l-.307.643C-154.55,1473.564-149.594,1472.83-145.2,1473.532Zm-92.36,105.71-.246-.766a17.85,17.85,0,0,1-4.13,1.4,23.547,23.547,0,0,1-4.813-.521A6.322,6.322,0,0,0-237.562,1579.242Zm-114.425-46.461c4.7,1.786,9.382-.218,14.074,0Zm125.453,117.2-.1-.746a31.407,31.407,0,0,0-4.122-1.459c-.515-.112-1.2.566-1.812.884.416.44.8,1.215,1.255,1.26C-229.734,1650.075-228.129,1649.978-226.534,1649.978Zm98.876-154.676c-1.371.889-2.828,1.68-2.394,3.823C-126.292,1497.936-125.895,1497.3-127.658,1495.3Zm-224.113,30.826-.073.215h15.584l-.006-.215Zm77.814,25.033c-2.991.674-5.962,1.389-7.969,4.007Q-277.942,1553.164-273.957,1551.161ZM93.567,1708l.727.464,5.006-7.66-.572-.366Z" fill="url(#linear-gradient)"/>
    <path id="Union_13" data-name="Union 13" d="M-10851.075-3877.275c.749-.338,1.177-.7,1.6-.695,7.274.15,12.582-3.889,17.786-8.208,1.609-1.332,3.354-2.5,5.052-3.723,8.651-6.245,22.347-4.57,30.481,2.165a31.823,31.823,0,0,1,2.529,2.1c.341.348.387.986.566,1.492l-.433.534a12.112,12.112,0,0,1-2.048-1.057c-3.086-2.416-6.3-4.654-10.134-5.651-8.937-2.328-16.963-.771-23.918,5.635a55.97,55.97,0,0,1-8.483,6.606,26.913,26.913,0,0,1-7.736,2.941,5.644,5.644,0,0,1-1.308.159A4.524,4.524,0,0,1-10851.075-3877.275Zm5.422-11.617c1.356-2.47,3.13-4.621,5.9-5.313,4.055-1.01,8.251-1.446,12.3-2.462,3.851-.964,7.611-2.3,11.372-3.589,1.22-.417,2.742-1.244,2.018-2.748a4.628,4.628,0,0,0-3.047-1.846,19.072,19.072,0,0,0-4.167.161,3.925,3.925,0,0,1-1.081-.292l-.332-.781a8.124,8.124,0,0,1,2.29-1.4,12.11,12.11,0,0,1,7.917.765c2.587,1.258,3.1,3.595.926,5.49a17.618,17.618,0,0,1-6.277,3.884,87.164,87.164,0,0,1-14.047,2.772c-4.7.531-9.109,1.272-12.394,5.065a1.2,1.2,0,0,1-.938.33A2.961,2.961,0,0,1-10845.653-3888.893Z" transform="translate(10463.162 5483.154)" stroke="rgba(0,0,0,0)" stroke-width="1" fill="url(#linear-gradient)"/>
    <path id="Path_82556" data-name="Path 82556" d="M-165.271,1576.726a35.234,35.234,0,0,1,3.666-3.08,43.274,43.274,0,0,0,10.886-10.119c.7-.9,1.929-1.393,2.62-2.3a45.747,45.747,0,0,0,3.336-5.145,26.549,26.549,0,0,0,1.374-3.36l.939.248a11.322,11.322,0,0,1-.427,2.934,73.458,73.458,0,0,1-3.858,8.064c-1.807,3.091-3.852,6.055-5.959,8.955a12.817,12.817,0,0,1-8.5,5.612A3.675,3.675,0,0,1-165.271,1576.726Z" fill="url(#linear-gradient)"/>
    <path id="Path_82557" data-name="Path 82557" d="M-144.755,1631.512c-1.933-.614-1.815-1.916-1.775-3.056.192-5.468.45-10.935.677-16.4.161-3.876.263-7.756.485-11.629.109-1.909.43-3.806.655-5.708l1.046-.072a13.968,13.968,0,0,1,.647,3.093c-.108,6.168-.295,12.335-.508,18.5q-.221,6.408-.6,12.812A13.237,13.237,0,0,1-144.755,1631.512Z" fill="url(#linear-gradient)"/>
  </g>
</svg>
