<svg xmlns="http://www.w3.org/2000/svg" width="56.063" height="55.282" viewBox="0 0 56.063 55.282">
  <g id="icon" transform="translate(-535.942 -1988.909)">
    <g id="Group_36968" data-name="Group 36968" transform="translate(536.692 1989.659)">
      <path id="Path_2528" data-name="Path 2528" d="M271.816,1315.829s-2.146-.836-3.932-1.531a7.532,7.532,0,1,0-12.38,0c-1.786.694-3.932,1.531-3.932,1.531-1.9.737-4.769,1.851-4.769,5.758v8.554a.923.923,0,0,0,.923.922h27.936a.923.923,0,0,0,.923-.922v-8.554C276.584,1317.679,273.715,1316.566,271.816,1315.829Zm-10.7-11.471a5.687,5.687,0,1,1-5.075,5.075A5.693,5.693,0,0,1,261.112,1304.358Zm13.627,24.861h-3.932v-4.5a.953.953,0,0,0-.751-.952.923.923,0,0,0-1.095.907v4.541H254.425V1324.7a.935.935,0,0,0-.625-.9.926.926,0,0,0-1.22.876v4.541h-3.932v-7.632c0-2.645,1.744-3.321,3.591-4.037,0,0,2.545-.992,4.594-1.788a7.51,7.51,0,0,0,9.721,0c2.049.8,4.594,1.788,4.594,1.788,1.846.716,3.591,1.393,3.591,4.037Z" transform="translate(-246.803 -1277.281)" fill="#fff" stroke="#fff" stroke-width="1.5"/>
      <path id="Path_2529" data-name="Path 2529" d="M340.163,1315.829s-2.388-.932-3.926-1.528a7.534,7.534,0,0,0-8.748-11.373.922.922,0,1,0,.625,1.736,5.687,5.687,0,0,1,5.94,9.379.923.923,0,0,0,.318,1.514c1.955.758,5.123,1.993,5.123,1.993,1.847.716,3.591,1.393,3.591,4.038v7.632h-6.163a.922.922,0,1,0,0,1.845h7.085a.923.923,0,0,0,.922-.922v-8.554C344.932,1317.678,342.062,1316.565,340.163,1315.829Z" transform="translate(-302.793 -1277.281)" fill="#fff" stroke="#fff" stroke-width="1.5"/>
      <path id="Path_2530" data-name="Path 2530" d="M381.471,1315.829s-2.388-.932-3.926-1.528a7.534,7.534,0,0,0-8.748-11.373.922.922,0,1,0,.625,1.736,5.687,5.687,0,0,1,5.94,9.379.923.923,0,0,0,.318,1.514c1.955.758,5.123,1.993,5.123,1.993,1.847.716,3.591,1.393,3.591,4.038v7.632h-6.163a.922.922,0,0,0,0,1.845h7.085a.923.923,0,0,0,.923-.922v-8.554C386.24,1317.678,383.37,1316.565,381.471,1315.829Z" transform="translate(-331.677 -1277.281)" fill="#fff" stroke="#fff" stroke-width="1.5"/>
      <path id="Path_2531" data-name="Path 2531" d="M298.731,1222.65H278.874a4.877,4.877,0,0,0-9.578,0H249.44a2.636,2.636,0,0,0-2.636,2.636v1.845a2.636,2.636,0,0,0,2.636,2.636h0v23.779a.935.935,0,0,0,.625.9.925.925,0,0,0,1.22-.876v-23.807h45.6v23.761a.953.953,0,0,0,.751.952.924.924,0,0,0,1.095-.907v-23.807h0a2.636,2.636,0,0,0,2.636-2.636v-1.845A2.636,2.636,0,0,0,298.731,1222.65Zm-.923,5.271H250.362a1.713,1.713,0,0,1-1.713-1.713h0a1.713,1.713,0,0,1,1.713-1.713h19.769a.932.932,0,0,0,.923-.949,3.079,3.079,0,0,1,4.85-2.464,2.767,2.767,0,0,1,1.213,2.475.922.922,0,0,0,.922.938h19.769a1.713,1.713,0,0,1,1.714,1.713h0A1.713,1.713,0,0,1,297.808,1227.922Z" transform="translate(-246.804 -1218.696)" fill="#fff" stroke="#fff" stroke-width="1.5"/>
      <path id="Path_2532" data-name="Path 2532" d="M334.134,1230.089a1.45,1.45,0,1,0,1.45,1.45A1.451,1.451,0,0,0,334.134,1230.089Z" transform="translate(-306.853 -1226.662)" fill="#fff" stroke="#fff" stroke-width="1.5"/>
      <path id="Path_2533" data-name="Path 2533" d="M303.1,1269.3a1.505,1.505,0,0,0-1.619,0l-4.937,3.145a.918.918,0,0,1-.987,0l-5.25-3.345a.923.923,0,0,0-.991,0l-6.2,3.95a.955.955,0,0,0-.363,1.23.923.923,0,0,0,1.314.352l5.194-3.309a1.024,1.024,0,0,1,1.1,0l4.723,3.009a1.8,1.8,0,0,0,1.934,0l4.633-2.952a1.191,1.191,0,0,1,1.279,0l4.634,2.952a1.8,1.8,0,0,0,1.934,0l4.422-2.817a1.844,1.844,0,1,0-.994-1.636c0,.026,0,.052,0,.079l-3.905,2.488a.918.918,0,0,1-.987,0Z" transform="translate(-271.868 -1253.19)" fill="#fff" stroke="#fff" stroke-width="1.5"/>
    </g>
  </g>
</svg>
