<svg id="Social_Button" data-name="Social Button" xmlns="http://www.w3.org/2000/svg" width="52.165" height="52.166" viewBox="0 0 52.165 52.166">
  <g id="Twitter">
    <g id="Placeholder" fill="#fff" stroke="#0b3d41" stroke-width="2">
      <circle cx="26.083" cy="26.083" r="26.083" stroke="none"/>
      <circle cx="26.083" cy="26.083" r="25.083" fill="none"/>
    </g>
    <g id="Icon_Social_Twitter" data-name="Icon/Social/Twitter" transform="translate(18.258 19.562)">
      <path id="Twitter-2" data-name="Twitter" d="M5.332,14.345c6.4,0,9.9-5.52,9.9-10.306,0-.157,0-.313-.01-.469A7.235,7.235,0,0,0,16.954,1.7a6.715,6.715,0,0,1-2,.57,3.617,3.617,0,0,0,1.529-2,6.806,6.806,0,0,1-2.209.879A3.386,3.386,0,0,0,9.355.984,3.723,3.723,0,0,0,8.349,4.446,9.754,9.754,0,0,1,1.18.661,3.716,3.716,0,0,0,2.257,5.5,3.348,3.348,0,0,1,.678,5.043v.046a3.591,3.591,0,0,0,2.791,3.55A3.327,3.327,0,0,1,1.9,8.7a3.5,3.5,0,0,0,3.249,2.516,6.8,6.8,0,0,1-4.32,1.554A6.852,6.852,0,0,1,0,12.719a9.567,9.567,0,0,0,5.332,1.624" transform="translate(0 0)" fill="#0b3d41"/>
    </g>
  </g>
</svg>
