<svg xmlns="http://www.w3.org/2000/svg" xmlns:xlink="http://www.w3.org/1999/xlink" width="813.124" height="429.133" viewBox="0 0 813.124 429.133">
  <defs>
    <linearGradient id="linear-gradient" x1="0.808" y1="-0.152" x2="0.5" y2="1.201" gradientUnits="objectBoundingBox">
      <stop offset="0" stop-color="#9fc"/>
      <stop offset="1" stop-color="#0b3d41"/>
    </linearGradient>
  </defs>
  <g id="Group_37040" data-name="Group 37040" transform="translate(-160.005)">
    <path id="Path_82520" data-name="Path 82520" d="M1208.64,1950.585a5.42,5.42,0,0,0,.927.025q38.729.51,77.454,1.015c.6.008,1.205-.068,2.485-.147-5.233-4.826-5.495-10.765-5.6-16.818q-.339-19-.943-38c-.077-2.409-.826-4.792-1.19-7.2a20.757,20.757,0,0,1-.34-4.105c.2-3.839.693-7.667.771-11.506.112-5.412.012-10.831-.107-16.245q-.429-19.7-.965-39.389c-.265-9.881-.6-19.76-.887-29.641q-.48-16.21-.944-32.421-.445-15.052-.911-30.1-.459-15.284-.914-30.566-.464-15.743-.924-31.49c-.024-.757-.138-1.512-.217-2.346a39.882,39.882,0,0,1-3.613-2.184c-3.075-2.327-3.457-5.182-1.266-8.451.506-.755,1.282-1.524,1.36-2.341a95.44,95.44,0,0,0,.766-12.386c-.2-5.376-1.133-10.719-1.5-16.094-.475-6.926-.59-13.876-1.077-20.8-.312-4.448-.935-8.878-1.561-13.3-.87-6.131.3-12,2.138-17.776,2.112-6.627,4.368-13.21,6.563-19.811a5.118,5.118,0,0,1,.3-.877q4.916-8.874,9.843-17.744c.3-.547.5-1.151,1.08-2.512,2.482,3.974,4.414,6.719,5.994,9.656,7.364,13.679,13.39,27.944,15.983,43.3,1.247,7.385,2.869,14.816,2.482,22.467-.3,5.863-.127,11.76.051,17.635.192,6.321.6,12.637.993,18.95a21.973,21.973,0,0,0,.776,4.086c.727,2.813,1.566,3.749,4.494,3.646,4.455-.158,8.892-.766,13.338-1.187.15-.013.3-.121.444-.123,8.9-.178,14.754-6.352,21.275-11.034,7.39-5.308,14.4-11.138,21.674-16.62,4.571-3.449,9.341-6.607,15.257-6.6-.148-4.351-.382-8.322-.381-12.293,0-2.142.413-4.283.63-6.425.7-6.895,1.53-13.781,2.013-20.691.191-2.705-.41-5.466-.682-8.557-.035-.032-.36-.337-.7-.625-2.839-2.383-3.053-4.866.074-6.561,3.287-1.782,5.083-4.7,7.472-7.237,6.063-6.434,13.459-9.852,22.444-7.668,5.337,1.3,9.03,5.128,12.122,9.5,1.769,2.5,3.488,5.04,5.029,7.273.3,3.047.506,5.906.893,8.741.873,6.407,1.654,12.835,2.812,19.195,1.425,7.819,4.6,14.656,11.553,19.317a21.527,21.527,0,0,1,7.625,9.021c1.738,3.7,4.749,6.816,7.316,10.1,6.175,7.9,12.473,15.712,18.607,23.648,2.358,3.051,4.405,6.342,6.59,9.527q3.927,5.726,7.847,11.455c2.978,4.342,4.292,9.032,1.829,13.943-2.972,5.923-6.179,11.74-9.552,17.446-5.281,8.933-11.956,16.86-18.41,24.951-2.515,3.152-7.5,5.125-14.084,5.136.277,5.231.613,10.439.81,15.654.181,4.791.187,9.586.318,14.378.326,12.048.65,24.094,1.035,36.138.239,7.406.593,14.81.887,22.214q.961,24.3,1.92,48.605.42,10.412.93,20.821c.565,11.251,1.184,22.5,1.751,33.751.083,1.669.011,3.348.011,5.377l-10.765,2.463c1.475,7.109,2.92,14.075,4.439,21.4,42.657,0,85,.122,127.345-.036,42.131-.156,179.279-1.275,221.41-.656l.317.962c-.534.548-1,1.448-1.615,1.572a21.691,21.691,0,0,1-4.157.17c-26.458.049-147.948-.413-174.393.245-54.289,1.352-108.579.2-162.865.749-2.59.026-5.182-.5-7.778-.662a6.158,6.158,0,0,0-2.655.393c-6.662,2.76-13.649,2.272-20.577,2.015-3.4-.126-4.706-2.2-3.41-5.342,2.179-5.281,4.664-10.437,7.016-15.647.362-.8.7-1.617,1.072-2.483l-42.5,3.413c.385,2.6.791,5.118,1.128,7.644.97,7.273-.747,9.615-8.009,10.471a71.789,71.789,0,0,1-8.346.192c-6.653,0-13.31.085-19.958-.135a11.1,11.1,0,0,1-5.587-1.7c-3.03-2.041-2.655-6.174.537-8.02a26.1,26.1,0,0,1,3.887-1.488q9.747-3.693,19.486-7.406a25.621,25.621,0,0,0,2.787-1.647c-3.395-.7-5.872-1.216-8.351-1.727-1.207-.249-2.437-.416-3.619-.751-5.19-1.459-6.449-3.277-6.166-8.721q.936-18.027,1.863-36.058c.622-12.02,1.212-24.041,1.879-36.059.573-10.32,1.15-20.639,1.879-30.947.826-11.687,1.586-23.387,2.816-35.035,1.179-11.175,2.943-22.288,4.4-33.435.4-3.056.766-6.128.91-9.2.423-8.944.656-17.9,1.094-26.842.49-10.011,1.147-20.013,1.679-30.021.141-2.625.042-5.261.139-7.889.242-6.475.555-12.95.794-19.426.079-2.136.013-4.278.013-6.9-7.864,3.241-15.324,6.166-22.655,9.386a49.089,49.089,0,0,1-19.714,4.438c-6.785.04-13.566.6-20.352.82-2.292.074-4.594-.2-7.189-.321-.916,2.784-.368,5.824-.176,8.836.149,2.3.474,4.592.616,6.895q.929,15.005,1.793,30.012c.026.463.034.927.051,1.391.348,9.413.647,18.827,1.057,28.236.583,13.411,1.255,26.819,1.875,40.229.314,6.781.54,13.567.911,20.346.513,9.389,1.128,18.772,1.7,28.16.019.308.017.617.025.927.349,14.675.738,29.349,1.038,44.024.333,16.223.72,32.445.8,48.67a40.828,40.828,0,0,1-3.822,17.955c-2.915,6.132-7.735,9.949-13.85,12.289-6.363,2.432-12.965,2.519-19.631,1.49a34.5,34.5,0,0,0-4.6-.408c-3.248-.064-6.5.012-9.749-.034q-32.689-.464-65.377-.991M1386.158,1838.2c1.505-.876.685,86.079,1.244,89.268.579,3.307,2.324,4.275,5.891,4.083a21.729,21.729,0,0,1,3.169.357,104.275,104.275,0,0,0,10.587.918,12.9,12.9,0,0,0,5.6-1.68c4.8-2.505,6.953-7.3,9.533-11.676,7.605-12.905,15.164-25.839,22.785-38.737a25.8,25.8,0,0,1,3.042-4.085c3.943-4.375,8.958-3.91,11.792,1.2a25.512,25.512,0,0,1,2.693,6.856c2.183,10.146,2.7,20.459,2.731,30.814.013,4.111-.648,7.98-3.63,11.837l6.347-1.515c0-1.982.071-3.675-.011-5.361-.588-12.019-1.224-24.034-1.809-36.052-.351-7.245-.642-14.491-.955-21.737s-.625-14.491-.924-21.737q-.476-11.563-.925-23.128-.481-12.262-.939-24.522c-.307-8.02-.664-16.037-.908-24.058-.365-12.04-.649-24.083-.979-36.123-.022-.8-.156-1.594-.263-2.632-5.8,5.054-8.465,4.871-10.992-.6-5.182.749-5.36-3.9-7.229-6.636,2.168-8.927,5.136-11.389,15.039-12.526a83.409,83.409,0,0,1-1.12-9.5c-.036-3.992.481-7.989.741-11.986.672-10.307,1.318-20.615,2.009-30.921.227-3.379.532-6.755.862-10.129a9.552,9.552,0,0,1,.876-2.081c.794,1.015,1.758,1.68,1.734,2.31-.159,4.391,2.683,7.04,5.346,9.853,3.717,3.927,7.282,8,11.087,11.834,2.671,2.692,4.893,5.94,8.371,7.758l4.314-2.765c1.425,3.186,1.21,3.978-1.1,5.561-1.382.945-3.062,1.722-3.992,3.017a173.761,173.761,0,0,0-16.38,27.961,9.791,9.791,0,0,0-.466,6.256c.749,2.691,2.437,5.12,3.963,8.136,2.374-2.794,4.486-5.224,6.534-7.7a172.8,172.8,0,0,0,22.262-34.6c1.987-4.079,1.981-7.983-.478-11.836-.5-.781-.981-1.572-1.5-2.336-6.185-9.038-11.78-18.449-18.968-26.832-6.118-7.136-11.379-15-17.024-22.547-1.583-2.115-3.244-4.145-6.066-5.053-6.672,2.648-10.618,7.846-12.111,14.652-1.184,5.389-1.369,10.991-2.123,16.481-.608,4.417-.995,8.929-2.255,13.171-.9,3.042-1.837,6.6-6.053,8.384-1.891-5.471-1.995-11.023-2.777-16.371a152.728,152.728,0,0,1-1.147-17.073c-.18-5.513-.039-11.039-.039-16.326-3.02-1.272-5.507-1.933-8.45-.726-2.231,5.159-1.806,10.666-1.419,16.182q.536,7.608.938,15.226c.2,3.817-1.176,7.294-2.646,10.7-.3.7-1.168,1.146-1.728,1.67-.525-.4-.914-.537-.976-.764a8.824,8.824,0,0,1-.5-2.679c.455-7.851,1.108-15.693,1.443-23.549.229-5.346.045-10.709.045-16.229h-5.575c1.3,8.052.883,9.623-2.645,17.2a52.831,52.831,0,0,0-4.131,11.734c-1.984,9.924-1.427,19.965-.367,29.975.141,1.333.659,2.781-.986,3.734-2.773-.316-3.57-2.784-4.725-4.639-1.223-1.964-1.942-4.241-3.336-7.418,0,5.309-.167,9.487.057,13.643a42.751,42.751,0,0,0,1.355,8.645C1399.071,1695.21,1387.668,1832.442,1386.158,1838.2Zm-107.066-176.418c.4,11.857.854,24.661,1.266,37.468q.5,15.512.924,31.026.485,16.9.952,33.809c.289,10.033.622,20.065.891,30.1q.532,19.689.99,39.382.522,22.01,1.017,44.022a19.139,19.139,0,0,0,.481,2.624c10.039-.76,19.9-1.273,29.825-2.306-.3-2.251-.659-3.915-.731-5.591-.339-7.864-.662-15.729-.876-23.6-.413-15.135-.63-30.274-1.162-45.4-.341-9.7-1.2-19.388-1.648-29.09-.484-10.488-.761-20.985-1.13-31.479-.017-.463-.044-.925-.074-1.39-.554-8.3-1.162-16.606-1.65-24.915-.424-7.242-.685-14.491-1.069-21.734-.269-5.083-.551-10.166-.953-15.239-.817-10.293-1.766-20.575-2.572-30.868-.458-5.843-.659-11.707-1.133-17.549-.336-4.142-1.2-8.255-1.359-12.4-.291-7.514-2.5-14.872-1.495-22.508.453-3.465.077-7.039.077-11.24l-5.612,1.046c-2.107-2.247-5.363-2.174-8.264-3.081a5.075,5.075,0,0,0-4.362.766c-2.595,1.49-5.246,2.885-8.314,4.56,0,1.546-.114,3.7.02,5.827.567,8.922,1.2,17.84,1.823,26.757.311,4.461.575,8.927,1,13.377a43.779,43.779,0,0,0,1.056,5.08c2.507.735,4.552,1.336,6.081,1.783a48.639,48.639,0,0,1,1.622,6.6c.2,2.087.4,4.448-.364,6.29C1283.332,1656.383,1281.382,1658.467,1279.092,1661.786Zm108.451,178.742c-2.751,1.311,6.277-151.669,6.126-157.465-.229-8.809-.084-17.632.019-26.447.048-4.131-1.423-7.749-3.313-12.26-.449,7.8-.916,14.648-1.221,21.506-.384,8.635-.58,17.276-.958,25.911-.579,13.253-1.755,26.5-1.733,39.754.023,13.832-3.113,27.243-4.172,40.909-.617,7.977-1.775,15.91-2.459,23.884-.538,6.3-.707,12.625-1.078,18.938q-.432,7.386-.961,14.766c-.557,7.836-1.275,15.664-1.7,23.506-.483,8.937-.716,17.887-1.058,26.833-.011.308-.025.617-.045.927q-.873,13.611-1.749,27.219c-.249,3.844-.554,7.683-.772,11.526a28.365,28.365,0,0,0-.01,5.554c.156,1.1.842,2.683,1.694,3.017a30.419,30.419,0,0,0,11.582,2.267C1382.766,1924.172,1389.759,1839.473,1387.543,1840.528Zm-64.476,38.678c0-2.256.043-3.777-.008-5.293-.283-8.326-.636-16.651-.876-24.979-.392-13.583-.713-27.167-1.066-40.75-.012-.464-.031-.927-.059-1.39-.568-9.383-1.238-18.76-1.679-28.148-.477-10.175-.74-20.36-1.1-30.542-.011-.31-.025-.617-.043-.927-.568-9.074-1.205-18.146-1.687-27.224-.441-8.322-.713-16.651-1.06-24.977-.014-.309-.043-.617-.065-.926-.546-7.528-1.195-15.051-1.611-22.586-.467-8.473-.723-16.958-1.073-25.437a8.3,8.3,0,0,0-.048-.927,195.611,195.611,0,0,1-1.874-26.744c-.083-7.248-.528-14.491-.908-21.733-.146-2.765-.463-5.53-.878-8.269-.566-3.747-2.347-4.7-6.415-3.325-.24,5.857-.921,11.875-.614,17.842.348,6.75,1.738,13.439,2.394,20.182,1.072,11.04,1.953,22.1,2.849,33.158q1.007,12.433,1.844,24.881c.678,10.149,1.284,20.3,1.881,30.457q.966,16.386,1.846,32.779,1,19.172,1.872,38.348c.334,7.085.662,14.171.917,21.259q.543,15.033.972,30.071c.361,12.809.63,25.621,1.031,38.428a36.74,36.74,0,0,0,.973,5.427Zm-37.876,11.006c0,2.167-.028,3.534,0,4.9.283,11.868.518,23.738.9,35.6a117.125,117.125,0,0,0,1.009,11.958c.688,5.075,3.463,7.2,8.569,7.105a12.37,12.37,0,0,0,8.266-3.638c4.159-3.785,6.411-8.75,7.686-14a161.859,161.859,0,0,0,3.746-20.4c.605-5.49.209-11.1.076-16.655-.036-1.464-.748-2.913-1.2-4.567C1304.594,1888.615,1295.217,1888.949,1285.191,1890.212Zm131.292,41.209.342,1.034c5.212-.337,10.448-.454,15.625-1.071,6.564-.781,13.049-2.276,19.622-2.9,6.2-.584,10.477-4.535,10.232-11.323q-.434-12.027-1.047-24.047a26.9,26.9,0,0,0-.959-5.924,44.185,44.185,0,0,0-2.948-8.263c-1.636-3.157-4.913-3.321-7.234-.658a22.742,22.742,0,0,0-2.123,3.039c-5.928,9.592-11.8,19.217-17.762,28.79C1425.763,1917.279,1422.773,1925.394,1416.483,1931.421Zm-26.661-290.926c-.619-6.722,1.274-13.576,2.641-20.515a4.849,4.849,0,0,0-1.724-5.218c-4.656-.144-8.28,2.646-11.86,5.233-8.255,5.96-16.382,12.1-24.521,18.219-2.422,1.821-4.709,3.822-7.172,5.832,1.982,2.3,3.054,4.377.54,7.2-1.94-1.342-3.762-2.6-6.177-4.271-3.8.822-8.114,2.122-12.513,2.6-4.345.469-8.781.1-13.422.1.129,2.8.232,5.056.337,7.319,9.476,2.214,18.488,3.43,27.858,2.357,10.882-1.246,21.225-3.863,30.709-9.408C1379.421,1647.071,1384.193,1643.979,1389.822,1640.495Zm42.094-25.818a7.881,7.881,0,0,0-1.924-8.657c-3.806-4.071-5.03-8.832-2.932-14.093,1.212-3.036,1.17-5.643-1.113-8.13-3.2-3.49-3.228-7.427-1.673-11.675a21.529,21.529,0,0,0,1.659-6.683c.163-7.344-3.646-7.878-8.826-7.093-1.27.192-2.389,1.336-3.594,2.012-2.121,1.188-4.255,2.355-6.409,3.545l-3.076-2.459c-4.817,9.2-5.372,21.646-3.556,30.237a4.2,4.2,0,0,0,3.948,3.372c1.821.237,3.645.453,5.406.67,4-2.457,8.082-3.4,12.958-1.546-2.313,5.563-7.488,3.964-11.158,5.358-.87,5.133-2.307,10.1.206,14.712C1418.73,1616.023,1425.218,1612.933,1431.917,1614.677Zm-124-36.83c-1.917-13.072-12.532-38.591-18.779-44.774-1.407,3.189-2.744,6.219-4.294,9.735a51.633,51.633,0,0,1,6.022.441c1.749.342,3.669.766,4.25,3.615a11.466,11.466,0,0,1-2.884.393c-2.131-.277-4.218-.986-6.351-1.125-3.039-.2-4.34.628-5.247,3.461q-4.225,13.213-8.156,26.52c-.353,1.188-.048,2.572-.048,3.978,7.672-1.163,14.833-1.663,21.111,1.5,2.242-1.181,3.921-2.628,5.759-2.872,1.815-.24,3.791.735,5.826,1.207Zm157.54,138.167c4.453-13.053,12.7-24.046,19.956-35.615l-23.606-24.17c-.133,2.211-.21,3.674-.311,5.132-.368,5.374-.73,10.748-1.12,16.119-.532,7.361-1.224,14.712-1.592,22.079C1458.455,1706.045,1459.558,1712.1,1465.454,1716.014Zm-7.174-104.353a37.116,37.116,0,0,0-3.529-3.12c-8.447-5.415-12.235-13.638-13.9-23.094-.748-4.243-1.158-8.544-1.837-12.8-.577-3.605-1.323-7.186-2-10.818l-9.838-2.814c2.527,4.928,1.411,9.071-.031,13.2a19,19,0,0,0-.82,2.657c-.509,2.68-.464,5.375,1.578,7.412,3.191,3.183,3.335,6.575,1.756,10.6a10.184,10.184,0,0,0,2.462,11.517,10.051,10.051,0,0,1,2.044,2.491c2.04,4.272,3.948,8.606,5.917,12.911.413.9.888,1.779,1.621,3.24,1.159-1.776,2.075-2.991,2.791-4.314C1447.24,1613.656,1450.837,1610.066,1458.28,1611.661Zm-158.4,341.025c2.816-.635,5.693-1.079,8.435-1.948a19.824,19.824,0,0,0,10.491-7.946c3.794-5.473,4.776-11.786,4.972-18.043.376-11.888.017-23.8-.057-35.7,0-.274-.244-.544-.376-.817-3.223-1.2-3.223-1.2-7.3-6.942-10.115-.554-20.3.7-30.585,2v3.427c7.971-.023,15.661-.229,23.34-.011,7.145.2,9.478,2.937,9.674,10.124.283,10.371-.277,20.649-2.739,30.775C1313.28,1937.683,1310,1947.2,1299.878,1952.687Zm99.49-2.183c.964-4.742.932-9.284-.4-12.564-.446-1.1-1.773-2.465-2.815-2.571a11.776,11.776,0,0,0-6.245.731,158.5,158.5,0,0,1-22.733,9.187c-2.125.7-4.474,1.236-5.844,3.528.925,2.6,2.991,2.808,5.239,2.8,8.653-.023,17.307.063,25.959-.06A48.735,48.735,0,0,0,1399.368,1950.5Zm4.784-319.314.891.006c.614-.758,1.619-1.442,1.776-2.287a105.188,105.188,0,0,0,2.015-13.156c.255-4.283-.249-8.611-.433-12.917-.057-1.338-.161-2.673-.234-3.85-10.107-3.121-10.107-3.121-11.254-12.578a7.316,7.316,0,0,0-1.007,1.732,65.461,65.461,0,0,0-1.172,18.87,14.157,14.157,0,0,0,1.787,5.685C1399.879,1618.507,1404.22,1623.842,1404.152,1631.189Zm-8.312-13.617c-.826,4.229-1.519,7.96-2.292,11.671-1.179,5.68-1.765,11.285,1.315,16.64a8.735,8.735,0,0,1,.762,2.652c.952,4.834,1.751,9.7,2.841,14.5.723,3.183.939,6.6,3.537,10.094,0-7.32-.337-13.818.1-20.262a43.734,43.734,0,0,1,5.349-18.576c-4.9-.575-5.716-1.5-6.515-6.567A16.791,16.791,0,0,0,1395.84,1617.572Zm48.882,6.767-3.908,1.241c-3.853-1.725-2.983-6.285-5.9-9.086-1.781,15.52-.249,30.186,2.4,44.825,2.583-4.432,3.231-9.267,3.573-14.133C1441.42,1639.657,1441.73,1632.109,1444.722,1624.339Zm-6.61,328.5c8.812,1.751,17.282.8,22.248-2.344a6.559,6.559,0,0,0-3.8-6.276c-1.355-.743-2.819-1.313-4.1-2.166-2.883-1.928-3.521-4.5-1.991-7.576.489-.988,1.1-1.912,1.7-2.92-2.564-.424-4.159.294-5.168,2.479C1444.159,1940.185,1441.217,1946.288,1438.112,1952.839Zm-37.576-398.263c11.322-2.021,22.22-.354,33.584.616-3.05-7.4-8.639-10.686-15.645-11.673C1412.2,1542.634,1404.154,1547.644,1400.536,1554.576Zm52.95,176.5c4.747-1.408,5.368-2.5,4.746-7.837l-4.528-3.389,3.426-5.394c-6.148-.869-9.01.6-10.847,5.474,2.249-.889,3.006-4.458,6.75-3.653-.283,4.483-6.476,5.708-5.642,10.456C1452.954,1726.184,1452.564,1726.7,1453.486,1731.076Zm3.219-11.864c4.664.62,4.8,3.853,5.176,6.819,2.019,1.548,4.025,2.329,6.943,1.267a60.942,60.942,0,0,0-7.478-11.421Zm1.736,223.08.906-.591c-.478-3.245-.045-6.74-2.711-9.488-3.254,1-3.838,3.4-4.257,6.589C1454.373,1939.949,1456.406,1941.121,1458.441,1942.293Zm-179.434-285.228c2.76-2.191,4.179-4.405,3.5-7.461-.359-1.6-.729-3.444-3.5-2.994Z" transform="translate(-840.449 -1527.377)" fill="#fff"/>
    <g id="Group_37039" data-name="Group 37039" transform="translate(0 66.036)">
      <path id="Path_82545" data-name="Path 82545" d="M-867.636,2829.009a48.277,48.277,0,0,1-7.184-.713,4.2,4.2,0,0,1-2.239-1.552c-2.053-2.56-2.514-5.711-2.85-8.832-.761-7.064-1.434-14.14-2.1-21.215-.338-3.6-.536-7.215-.876-10.814-.351-3.716-.812-7.422-1.2-11.134-.313-3-.622-5.993-.875-8.994-.547-6.487-.991-12.981-1.6-19.46-.587-6.236-1.369-12.453-1.989-18.686-.369-3.72-.536-7.459-.885-11.181-.611-6.475-1.294-12.944-1.943-19.418-.154-1.541-.289-3.086-.431-4.61l-116.272-.14a21.7,21.7,0,0,0-.126,3.117c.629,6.352,1.34,12.7,1.983,19.049.3,3,.542,6,.757,9.01.528,7.332.976,14.67,1.547,22,.627,8.049,1.376,16.089,2.032,24.135.3,3.726.541,7.457.756,11.191.306,5.3.511,10.609.856,15.907.369,5.653.986,11.292,1.228,16.95a42.114,42.114,0,0,1-.489,9.708c-.961,4.978-4.346,6.912-9.29,5.985a17.581,17.581,0,0,0-3.244-.216c-8.466.011-16.94-.156-25.4.11-41.466,1.3,16.447-.229-25.013.674-3.065.067,10.4-.27-10.1,0-2.567.034-2.567-.007-4.432-1.476,1.592-1.178,3.086-.766,4.47-.768,20.443-.043,1.329-.079,1.329-.079s-15.186.1,7.361-.041c.841-.006,1.68-.083,2.59-.128.922-4.009,1.753-7.983,2.754-11.914,3.25-12.746,6.6-25.466,9.843-38.214,3.123-12.277,6.165-24.576,9.232-36.867q4.734-18.96,9.443-37.927c.747-3.021,1.373-6.07,2.076-9.206a6,6,0,0,0-1.517-.6c-4.7-.251-9.4-.668-14.094-.633-7.867.059-15.643-.914-23.446-1.632a14.96,14.96,0,0,1-3.1-1.012c11.136-71.362,22.22-142.394,33.331-213.6a29.184,29.184,0,0,1,4.045-.855c5.3-.347,10.609-.526,15.908-.873,9.5-.624,19-1.324,28.5-1.992.242-.017.483-.032.724-.042,6.756-.262,13.51-.581,20.267-.776q16.663-.483,33.33-.833c10.989-.232,21.979-.53,32.969-.535,7.964,0,15.93.406,23.895.671,2.554.085,3.333.844,3.668,3.51.3,2.389.507,4.79.729,7.189.533,5.759.991,11.526,1.6,17.277.566,5.388,1.292,10.758,1.927,16.138.565,4.785,1.083,9.577,1.652,14.362.641,5.381,1.327,10.755,1.973,16.136.573,4.786,1.112,9.576,1.68,14.361q.81,6.821,1.656,13.635c.644,5.14,1.321,10.275,1.979,15.412.919,7.169,1.873,14.333,2.742,21.509.841,6.939,1.57,13.892,2.4,20.834.611,5.145,1.354,10.273,1.935,15.42.623,5.51,1.1,11.038,1.686,16.552.606,5.752,1.3,11.5,1.876,17.25.289,2.869.414,5.752.647,9.1-1.55.388-3.121,1.112-4.7,1.121-7.249.042-14.454.525-21.668,1.2-2.311.216-4.725-.634-7.444.112,0,1.127-.087,2.192.016,3.237.379,3.832.843,7.657,1.229,11.488q.472,4.674.833,9.359c.3,3.965.495,7.941.838,11.9.354,4.078.847,8.142,1.253,12.215.3,3,.6,5.995.829,9,.543,7.089.973,14.188,1.583,21.271.579,6.717,1.344,13.418,2,20.129.281,2.878.514,5.76.728,8.643q.829,11.181,1.609,22.366c.1,1.435.015,2.883.015,4.81.843.169,2.092.428,3.344.668a4.233,4.233,0,0,0,.724.019m-8.494-138.087c-1.413-8-1.671-15.789-3.074-23.315-6.231-1.052-11.85.9-17.708,1.126l-1.983-12.786c-5.44-.888-10.523-1.881-15.735-1.619-2.283.115-4.552.472-6.833.639-4.328.316-8.662.561-12.992.863-3.125.218-6.245.51-9.371.713-7.1.461-14.191,1.193-21.29,1.251-8.566.072-17.141-.348-25.7-.768-2.14-.1-4.493-.019-6.53-1.336.565-1.881,1.947-1.4,3.037-1.449,5.783-.267,11.572-.428,17.352-.75,7.459-.415,14.907-1.113,22.37-1.39,10.738-.4,21.486-.533,32.23-.76.962-.021,1.926.149,2.889.166q9.586.167,19.171.289c.189,0,.381-.258.759-.531-.592-2.6-1.2-5.285-1.85-8.135l1.62-1.943c-1.825-8.705-1.675-17.794-3.5-26.971-3.156.29-5.891.641-8.637.773-6.389.3-12.785.458-19.174.756-9.519.442-19.031,1.057-28.552,1.414-10.015.375-20.037.589-30.059.744a42.493,42.493,0,0,1-7.183-.738c-.68-.107-1.264-.824-1.84-1.224.74-2.014,2.222-2.556,3.727-3.043a11.594,11.594,0,0,1,7.442.437c5.148,1.738,10.442,1.773,15.769,1.563,4.94-.2,9.88-.426,14.821-.618,7.115-.276,14.234-.482,21.347-.816,3.369-.157,6.731-.509,10.09-.83q6.111-.584,12.212-1.27c3.074-.347,6.14-.771,9.544-1.2v-9.146c1.512-.195,2.679-.3,3.83-.5a16.983,16.983,0,0,0,3.475-.8,10.168,10.168,0,0,1,7.753-.056c.832.314,1.73.46,3.135.82a59.547,59.547,0,0,0-1.658-12.1c-4.49-.256-8.681-.616-12.876-.7-2.873-.054-4.04-1.557-4.617-4.106-.717-3.161-1.626-6.279-2.563-9.839-1.383,0-2.676-.027-3.968,0-8.812.2-17.625.394-26.436.642-7,.2-13.994.489-20.991.7-9.295.286-18.6.442-27.887.844-5.17.224-10.322.87-15.487,1.247-1.323.1-2.85.743-4.311-1.153a41.274,41.274,0,0,1,4.453-1.67c9.083-2.244,18.409-2.595,27.666-2.756,13.4-.232,26.815.381,40.224.395,8.448.01,16.9-.408,25.346-.675a8.258,8.258,0,0,0,2.015-.727c-1-5.915.228-11.871-1.366-17.784-1.556-5.776-2.473-11.725-4.654-17.209a8.944,8.944,0,0,0-1.375-.235c-11.11.238-22.223.394-33.328.767-8.315.28-16.62.877-24.932,1.264-6.993.325-13.991.553-20.988.826-.362.015-.722.065-1.084.085-3.732.216-7.462.461-11.2.606a5.2,5.2,0,0,1-1.772-.637l-.016-.756a31.73,31.73,0,0,1,3.631-.914q4.119-.553,8.268-.884c8.768-.7,17.529-1.729,26.31-1.946,13.9-.345,27.814-.069,41.721-.2,4.8-.046,9.585-.519,14.344-.8.365-4.227-1.815-8.212-.2-12.576,5.439-.778,10.986.208,16.37-.461a335.78,335.78,0,0,0-5.133-44.382,11.147,11.147,0,0,0-2-.381c-11.594.2-23.188.388-34.779.663-8.208.195-16.413.5-24.618.783-7.964.27-15.929.528-23.891.865-3.975.168-7.946.467-11.915.761-5.528.408-11.051.894-16.579,1.3-4.329.318-8.668.512-12.994.876a40.713,40.713,0,0,0-4.685.943,18.409,18.409,0,0,0,.008,1.949c.662,5.617,1.418,11.227,2,16.853.609,5.868,1.05,11.755,1.581,17.633.27,3,.551,6,.866,8.991.392,3.71.87,7.41,1.224,11.123.345,3.6.516,7.213.878,10.809.627,6.226,1.422,12.437,2,18.668.62,6.717,1.052,13.451,1.6,20.177.244,3,.561,6,.859,8.993.4,4.072.854,8.14,1.218,12.217.333,3.721.521,7.455.87,11.173.64,6.833,1.413,13.651,2.014,20.487s1.046,13.7,1.586,20.546c.228,2.883.522,5.759.786,8.639.439,4.8.856,9.6,1.327,14.388.231,2.359.559,4.709.838,7.031a69.146,69.146,0,0,0,7.159,1.009c8.929.316,17.863.707,26.794.669,23.808-.1,47.62.752,71.424-.491,6.394-.335,12.82-.021,19.227-.195C-885.192,2689.469-881.008,2689.014-876.252,2688.671Zm-191.4-.331c8.385.477,16.31.919,24.232,1.384,1.681.1,3.357.389,5.037.407,3.5.036,7.139.535,10.452-.27a39.562,39.562,0,0,1,8.144-.867c1.042-.039,2.079-.172,3.144-.264a9.94,9.94,0,0,0,.174-1.737c-.414-3.949-.945-7.889-1.28-11.845-.58-6.844-1.034-13.7-1.565-20.545q-.376-4.866-.841-9.724c-.413-4.313-.91-8.619-1.292-12.935-.34-3.842-.507-7.7-.867-11.539-.63-6.713-1.41-13.41-2.015-20.125-.593-6.6-1.027-13.217-1.568-19.823-.255-3.121-.582-6.237-.9-9.355-.391-3.832-.846-7.658-1.2-11.494-.341-3.72-.56-7.452-.879-11.176-.247-2.88-.56-5.754-.856-8.629-.393-3.832-.818-7.663-1.194-11.5-.329-3.358-.578-6.725-.917-10.083-.641-6.35-1.332-12.7-1.984-19.045-.555-5.416-1.087-10.835-1.629-16.253l-.488-.014C-1046.484,2551.212-1057.026,2619.516-1067.65,2688.34Zm162.769-131.83a21.56,21.56,0,0,0,2.855.27c3.006-.144,6.013-.313,9.011-.57,3.76-.321,4.626.344,5.185,4.134q1.5,10.183,3.031,20.361c.141.947.645,2,.388,2.815a11.136,11.136,0,0,0,.022,5.678c.61,3.169.884,6.4,1.286,9.5l-1.692,1.911a19.116,19.116,0,0,1,3.607,9.15c.362,3.951.8,7.895,1.115,11.848.14,1.751-1.016,3.124-3.019,3.5-2.127.4-4.3.581-6.451.816-3.206.348-6.416.66-9.83,1.009a34.249,34.249,0,0,0,1.643,11.934l18.76-2.766a18.415,18.415,0,0,1,1.183,3.856c.375,5.17.692,10.348.814,15.528.081,3.463.577,6.875.37,10.4-.25,4.268.642,8.617,1.189,12.913.42,3.309,1.068,6.587,1.614,9.87a12.4,12.4,0,0,0,1.731.212c5.906-.246,11.811-.473,17.712-.811a17.338,17.338,0,0,0,3.444-.933c-.324-3.957-.594-7.555-.924-11.149-.243-2.638-.555-5.271-.853-7.9q-.933-8.26-1.883-16.516c-.584-5.148-1.121-10.3-1.749-15.446-.817-6.7-1.7-13.383-2.558-20.075s-1.7-13.385-2.557-20.077q-1.256-9.849-2.514-19.7c-.588-4.658-1.143-9.322-1.727-13.98-.628-5.014-1.282-10.025-1.906-15.04-.579-4.659-1.126-9.322-1.706-13.979-.623-5.014-1.326-10.018-1.887-15.04-.6-5.383-1.056-10.783-1.617-16.172q-1.383-13.282-2.833-26.559a19.9,19.9,0,0,0-.509-2.3c-6.048-1.188-20.747-1.468-23.926-.465a15.179,15.179,0,0,0,.013,2.122c1.008,7.155,2.142,14.295,3.046,21.463.767,6.093,1.338,12.213,1.873,18.332.2,2.278-.086,4.589,1.938,6.328a3.617,3.617,0,0,1,.842,1.967,102.481,102.481,0,0,1,2.459,22.26,23.028,23.028,0,0,1-3.685.744c-3.139.13-6.285.077-9.428.127-1.165.018-2.328.121-3.941.209C-906.221,2549.887-905.584,2553.039-904.881,2556.51Zm-99.883,270.731c-.8-2.572-1.817-4.656-2.055-6.826-.711-6.462-1.108-12.958-1.645-19.44-.238-2.879-.516-5.754-.775-8.632-.442-4.912-.927-9.823-1.31-14.74-.346-4.443-.513-8.9-.881-13.341-.613-7.432-1.39-14.851-1.977-22.285q-.851-10.8-1.443-21.624c-.357-6.5-.5-13.01-.837-19.511-.146-2.858-.525-5.7-.79-8.464-1.772-.7-2.913-.436-3.535,1.1a19.379,19.379,0,0,0-.716,2.416q-7.534,28.871-15.056,57.745-8.612,33.083-17.2,66.173c-.623,2.4-1.159,4.82-1.857,7.743C-1037.812,2827.139-1021.254,2826.266-1004.763,2827.241Zm2.453-2.537a7.594,7.594,0,0,0,.437-1.644c-.033-5.073.077-10.156-.2-15.219-.535-9.74-1.309-19.467-1.954-29.2-.325-4.932-.548-9.87-.889-14.8-.191-2.762-.522-5.515-.805-8.271-.65-6.345-1.291-12.691-1.971-19.032-.552-5.147-1.118-10.292-1.747-15.429-.832-6.8-1.632-13.615-2.654-20.391-.41-2.729-.211-5.637-1.777-8.144-.018,2.417.3,4.792.415,7.175.333,6.863.553,13.732.876,20.6q.289,6.135.757,12.263c.635,8.28,1.368,16.552,1.989,24.832.359,4.8.553,9.622.866,14.431.227,3.485.485,6.969.805,10.447.643,6.949,1.368,13.89,2,20.841.557,6.115,1.026,12.238,1.548,18.357C-1004.5,2822.832-1004.362,2824.16-1002.31,2824.7Zm103.092-199.76,16.119-1.551a5.809,5.809,0,0,0,.7-1.846c-.108-3-.15-6.029-.552-9a35.692,35.692,0,0,0-1.822-7.7c-.793-2.119-2.126-4.208-4.8-4.365a53.189,53.189,0,0,0-6.876.078,3.345,3.345,0,0,0-2.09,1.148,9.014,9.014,0,0,0-2.188,7.392c.116.705.554,1.494.364,2.093-1.187,3.765.564,7.41.347,11.13A8.787,8.787,0,0,0-899.218,2624.944Zm-159.409,201.932,1.242.3c.778-2.231,1.715-4.419,2.309-6.7q7.754-29.783,15.394-59.6,7.2-28.05,14.315-56.122c1.038-4.068,2.087-8.132,3.264-12.714-1.378.146-2.335.248-3.085.329-4.222,16.94-8.268,33.465-12.466,49.952-6.52,25.615-13.162,51.2-19.692,76.81C-1057.989,2821.662-1058.21,2824.293-1058.628,2826.876Zm166.945-283.27c-.237-2.278-.37-4.069-.622-5.844-.64-4.529-1.21-9.074-2.046-13.567-.6-3.252-1.04-3.4-4.375-3.55-3.371-.151-6.739-.394-10.11-.554a6.206,6.206,0,0,0-1.531.384,81.385,81.385,0,0,0,3.082,23.132Zm12.71,118.837c-1.695-6.855-.158-13.687-1.9-20.2h-18.276l3.779,22.071Zm-25.812-101.71c-1.189,7.083-.374,14.144,2.5,21.947,4.546,1.728,9.3.875,14.14.922a11.471,11.471,0,0,0,.2-2.162c-.772-5.825-1.542-11.649-2.407-17.46a3.473,3.473,0,0,0-3.4-3.207C-897.444,2560.635-901.144,2560.732-904.784,2560.732Zm27.244,258.133.646-.172q-.572-7.731-1.142-15.462c-.2-2.764-.382-5.531-.625-8.291-.4-4.557-.893-9.1-1.26-13.664-.339-4.206-.544-8.422-.848-12.63q-.365-5.048-.826-10.087c-.4-4.437-.878-8.867-1.242-13.307-.336-4.084-.5-8.183-.855-12.266-.634-7.317-1.415-14.622-2.014-21.943-.513-6.285-.856-12.582-1.283-19.008-1.467.367-2.424.913-2.335,2.461.078,1.326.075,2.661.22,3.98.368,3.35.876,6.684,1.186,10.039.576,6.236,1.039,12.482,1.573,18.722.255,3,.534,6,.855,8.993.63,5.861,1.377,11.712,1.931,17.58.611,6.475,1.047,12.967,1.587,19.448.24,2.881.526,5.757.826,8.631.649,6.224,1.362,12.44,1.97,18.668C-878.581,2806.654-878.082,2812.761-877.54,2818.865Z" transform="translate(1237.02 -2469.863)" fill="#fff"/>
      <g id="Group_37038" data-name="Group 37038" transform="translate(326.653 50.227)">
        <path id="Union_12" data-name="Union 12" d="M11.22,122.154H29.5c1.741,6.509.2,13.344,1.9,20.2-5.882.671-10.995,1.255-16.394,1.873C13.723,136.773,12.48,129.518,11.22,122.154Zm-.869-19.92c.216-3.718-1.533-7.364-.348-11.128.19-.6-.248-1.387-.363-2.092a9,9,0,0,1,2.187-7.393,3.334,3.334,0,0,1,2.09-1.148,53.279,53.279,0,0,1,6.877-.081c2.673.158,4.008,2.248,4.8,4.366a35.687,35.687,0,0,1,1.822,7.7c.4,2.973.446,6,.553,9a5.792,5.792,0,0,1-.7,1.845c-5.238.5-10.48,1.01-16.118,1.551A8.74,8.74,0,0,1,10.35,102.235ZM8.084,62.589c-2.872-7.8-3.689-14.863-2.5-21.945,3.641,0,7.34-.1,11.033.037a3.473,3.473,0,0,1,3.4,3.209c.866,5.81,1.634,11.634,2.405,17.459a11.144,11.144,0,0,1-.2,2.161c-1.252-.014-2.5.034-3.732.083-1.108.043-2.21.086-3.3.086A19.608,19.608,0,0,1,8.084,62.589Zm-5-39.073A81.378,81.378,0,0,1,0,.384,6.212,6.212,0,0,1,1.534,0C4.9.159,8.27.4,11.643.554c3.336.15,3.772.3,4.374,3.551.838,4.492,1.407,9.039,2.047,13.565.253,1.776.385,3.568.621,5.845Z" transform="translate(0 0)" stroke="rgba(0,0,0,0)" stroke-width="1" fill="url(#linear-gradient)"/>
      </g>
    </g>
  </g>
</svg>
