<svg id="Social_Button" data-name="Social Button" xmlns="http://www.w3.org/2000/svg" width="52.165" height="52.166" viewBox="0 0 52.165 52.166">
  <g id="Twitter" transform="translate(0 0)">
    <g id="Placeholder" fill="#fff" stroke="#0b3d41" stroke-width="2">
      <circle cx="26.083" cy="26.083" r="26.083" stroke="none"/>
      <circle cx="26.083" cy="26.083" r="25.083" fill="none"/>
    </g>
    <path id="Icon_awesome-instagram" data-name="Icon awesome-instagram" d="M9.563,6.9a4.9,4.9,0,1,0,4.9,4.9A4.9,4.9,0,0,0,9.563,6.9Zm0,8.093A3.188,3.188,0,1,1,12.752,11.8,3.194,3.194,0,0,1,9.563,14.991ZM15.812,6.7a1.144,1.144,0,1,1-1.144-1.144A1.141,1.141,0,0,1,15.812,6.7ZM19.06,7.858A5.661,5.661,0,0,0,17.515,3.85,5.7,5.7,0,0,0,13.507,2.3c-1.579-.09-6.313-.09-7.892,0A5.69,5.69,0,0,0,1.607,3.846,5.68,5.68,0,0,0,.062,7.854c-.09,1.579-.09,6.313,0,7.892a5.661,5.661,0,0,0,1.545,4.008A5.705,5.705,0,0,0,5.615,21.3c1.579.09,6.313.09,7.892,0a5.661,5.661,0,0,0,4.008-1.545,5.7,5.7,0,0,0,1.545-4.008c.09-1.579.09-6.309,0-7.888Zm-2.04,9.582A3.228,3.228,0,0,1,15.2,19.259c-1.259.5-4.247.384-5.639.384s-4.384.111-5.639-.384a3.228,3.228,0,0,1-1.818-1.818c-.5-1.259-.384-4.247-.384-5.639s-.111-4.384.384-5.639A3.228,3.228,0,0,1,3.925,4.345c1.259-.5,4.247-.384,5.639-.384s4.384-.111,5.639.384A3.228,3.228,0,0,1,17.02,6.164c.5,1.259.384,4.247.384,5.639S17.52,16.186,17.02,17.441Z" transform="translate(16.79 14.547)" fill="#0b3d41"/>
  </g>
</svg>
