<svg xmlns="http://www.w3.org/2000/svg" width="26.991" height="48" viewBox="0 0 26.991 48">
  <g id="wine_glass_empty" data-name="wine glass empty" transform="translate(-1.504)">
    <path id="Path_2517" data-name="Path 2517" d="M21.75,43.5H18v-11A13.547,13.547,0,0,0,28.44,18.06L26.95,1.36A1.48,1.48,0,0,0,25.48,0H4.52A1.5,1.5,0,0,0,3.04,1.36L1.56,18.06A13.565,13.565,0,0,0,12,32.51V43.5H8.25A3.745,3.745,0,0,0,4.5,47.25a.755.755,0,0,0,.75.75h19.5a.755.755,0,0,0,.75-.75A3.751,3.751,0,0,0,21.75,43.5ZM16.91,28.14a8.519,8.519,0,0,1-3.89,0,9.079,9.079,0,0,1-6.98-9.66L7.28,4.5H22.72l1.24,13.99a9.076,9.076,0,0,1-6.98,9.64Z" fill="#fff"/>
  </g>
</svg>
