<svg id="Group_36919" data-name="Group 36919" xmlns="http://www.w3.org/2000/svg" width="414.095" height="348.49" viewBox="0 0 414.095 348.49">
  <path id="Path_82520" data-name="Path 82520" d="M1208.64,1871.055a4.374,4.374,0,0,0,.753.02q31.451.415,62.9.824c.49.006.979-.055,2.018-.119-4.25-3.919-4.462-8.742-4.55-13.658q-.275-15.432-.765-30.856a51.046,51.046,0,0,0-.966-5.847,16.846,16.846,0,0,1-.276-3.334c.158-3.117.563-6.226.626-9.344.091-4.4.01-8.8-.087-13.193q-.348-15.995-.784-31.987c-.215-8.024-.484-16.046-.72-24.071q-.39-13.164-.766-26.329-.362-12.223-.74-24.444-.373-12.412-.742-24.822-.377-12.785-.75-25.572c-.019-.615-.112-1.228-.176-1.9a32.418,32.418,0,0,1-2.934-1.773c-2.5-1.89-2.807-4.208-1.028-6.863.411-.613,1.042-1.238,1.1-1.9a77.53,77.53,0,0,0,.622-10.059c-.163-4.366-.92-8.7-1.219-13.07-.386-5.625-.479-11.269-.875-16.892-.254-3.612-.759-7.21-1.268-10.8-.706-4.979.242-9.747,1.736-14.436,1.715-5.382,3.547-10.727,5.329-16.088a4.171,4.171,0,0,1,.244-.712q3.992-7.206,7.993-14.409c.246-.444.406-.935.877-2.04,2.016,3.227,3.585,5.456,4.868,7.841,5.98,11.108,10.873,22.693,12.979,35.165,1.013,6,2.33,12.032,2.016,18.245-.24,4.761-.1,9.55.042,14.321.156,5.133.489,10.262.807,15.389a17.843,17.843,0,0,0,.631,3.318c.59,2.285,1.272,3.045,3.649,2.96,3.618-.128,7.221-.622,10.832-.964.122-.011.24-.1.361-.1,7.227-.145,11.981-5.158,17.277-8.961,6-4.31,11.7-9.045,17.6-13.5,3.712-2.8,7.586-5.365,12.39-5.363-.12-3.533-.31-6.758-.309-9.983,0-1.739.335-3.478.511-5.217.566-5.6,1.243-11.191,1.635-16.8a46.32,46.32,0,0,0-.554-6.949c-.029-.026-.293-.274-.57-.508-2.306-1.935-2.479-3.952.06-5.328,2.669-1.448,4.128-3.818,6.068-5.877,4.923-5.225,10.93-8,18.227-6.228,4.334,1.053,7.333,4.164,9.844,7.718,1.436,2.032,2.832,4.093,4.084,5.906.247,2.474.411,4.8.725,7.1.709,5.2,1.344,10.423,2.283,15.588,1.157,6.349,3.733,11.9,9.382,15.687a17.482,17.482,0,0,1,6.192,7.326c1.411,3,3.857,5.535,5.941,8.2,5.015,6.418,10.129,12.759,15.11,19.2,1.915,2.478,3.577,5.15,5.352,7.737q3.189,4.65,6.372,9.3c2.419,3.526,3.486,7.335,1.485,11.323-2.414,4.81-5.018,9.534-7.757,14.168-4.289,7.254-9.71,13.692-14.951,20.262-2.042,2.56-6.088,4.162-11.437,4.171.225,4.248.5,8.478.658,12.712.147,3.89.152,7.785.258,11.676.265,9.783.528,19.566.84,29.347.194,6.014.481,12.027.72,18.04q.78,19.736,1.559,39.471.341,8.455.755,16.908c.458,9.137.961,18.272,1.422,27.408.068,1.356.009,2.719.009,4.366l-8.742,2,3.605,17.379c34.641,0,69.028.1,103.414-.029,34.214-.127,68.426-1.035,102.641-.533l.257.782c-.433.445-.809,1.176-1.312,1.276a17.61,17.61,0,0,1-3.376.138c-21.486.04-42.984-.335-64.458.2-44.087,1.1-88.175.163-132.259.608-2.1.021-4.208-.408-6.317-.538a5,5,0,0,0-2.156.319c-5.41,2.242-11.084,1.845-16.71,1.636-2.762-.1-3.821-1.79-2.77-4.338,1.769-4.288,3.787-8.476,5.7-12.707.294-.652.568-1.313.871-2.016l-34.51,2.772c.313,2.112.642,4.157.916,6.207.788,5.906-.607,7.808-6.5,8.5a58.308,58.308,0,0,1-6.778.156c-5.4,0-10.809.069-16.207-.11a9.014,9.014,0,0,1-4.537-1.381c-2.46-1.657-2.156-5.014.436-6.513a21.2,21.2,0,0,1,3.156-1.209q7.915-3,15.824-6.014a20.812,20.812,0,0,0,2.263-1.337c-2.757-.57-4.769-.987-6.782-1.4-.98-.2-1.979-.338-2.939-.609-4.214-1.185-5.237-2.661-5.007-7.082q.76-14.64,1.513-29.282c.505-9.761.984-19.523,1.526-29.283.465-8.38.933-16.76,1.525-25.131.671-9.491,1.288-18.992,2.287-28.451.958-9.075,2.39-18.1,3.575-27.152.325-2.482.622-4.976.739-7.474.343-7.263.533-14.535.888-21.8.4-8.13.931-16.252,1.364-24.38.114-2.131.034-4.272.113-6.406.2-5.259.451-10.516.645-15.775.064-1.735.01-3.474.01-5.607-6.386,2.632-12.444,5.007-18.4,7.622a39.864,39.864,0,0,1-16.009,3.6c-5.51.033-11.016.488-16.528.666-1.861.06-3.731-.158-5.838-.26-.744,2.261-.3,4.73-.143,7.175.121,1.87.385,3.729.5,5.6q.754,12.186,1.457,24.373c.021.376.028.753.041,1.13.283,7.644.525,15.289.858,22.93.474,10.891,1.019,21.779,1.523,32.669.255,5.507.439,11.018.74,16.523.417,7.625.916,15.245,1.38,22.868.015.25.014.5.02.753.284,11.917.6,23.833.843,35.751.27,13.174.585,26.348.651,39.524a33.155,33.155,0,0,1-3.1,14.58,19.464,19.464,0,0,1-11.248,9.979c-5.167,1.975-10.529,2.046-15.942,1.21a28.046,28.046,0,0,0-3.738-.332c-2.638-.052-5.278.01-7.917-.028q-26.546-.377-53.091-.805m143.28-93.62c1.223-.711.557,69.9,1.01,72.493.47,2.685,1.887,3.472,4.784,3.316a17.614,17.614,0,0,1,2.573.29,84.676,84.676,0,0,0,8.6.745,10.473,10.473,0,0,0,4.545-1.364c3.9-2.034,5.647-5.927,7.742-9.482,6.176-10.48,12.314-20.984,18.5-31.457a20.96,20.96,0,0,1,2.47-3.317c3.2-3.552,7.274-3.175,9.576.978a20.718,20.718,0,0,1,2.187,5.568,120.2,120.2,0,0,1,2.218,25.024,14.555,14.555,0,0,1-2.948,9.613l5.154-1.23c0-1.609.058-2.984-.009-4.354-.477-9.76-.994-19.517-1.469-29.277-.285-5.883-.521-11.768-.775-17.652s-.508-11.768-.75-17.652q-.386-9.39-.751-18.782-.39-9.958-.763-19.914c-.249-6.513-.539-13.023-.738-19.537-.3-9.777-.527-19.557-.8-29.334-.018-.648-.127-1.294-.214-2.138-4.709,4.1-6.875,3.956-8.927-.491-4.208.608-4.353-3.17-5.871-5.389,1.76-7.249,4.171-9.248,12.213-10.172a67.763,67.763,0,0,1-.91-7.717c-.029-3.242.391-6.488.6-9.733.546-8.37,1.071-16.741,1.631-25.11.185-2.744.432-5.486.7-8.225a7.753,7.753,0,0,1,.711-1.69c.645.824,1.427,1.365,1.408,1.876-.129,3.566,2.179,5.717,4.342,8,3.018,3.189,5.913,6.495,9,9.61,2.169,2.187,3.973,4.824,6.8,6.3l3.5-2.245c1.157,2.587.983,3.231-.9,4.516-1.122.768-2.487,1.4-3.242,2.45a141.11,141.11,0,0,0-13.3,22.706,7.951,7.951,0,0,0-.378,5.08c.608,2.185,1.979,4.158,3.218,6.607,1.927-2.269,3.643-4.242,5.306-6.255a140.334,140.334,0,0,0,18.078-28.094,9.211,9.211,0,0,0-.388-9.612c-.4-.635-.8-1.277-1.221-1.9-5.023-7.339-9.566-14.982-15.4-21.79-4.969-5.8-9.241-12.185-13.825-18.31-1.286-1.718-2.634-3.366-4.926-4.1a15.741,15.741,0,0,0-9.835,11.9c-.961,4.376-1.112,8.925-1.724,13.384a72.012,72.012,0,0,1-1.831,10.7c-.734,2.47-1.492,5.362-4.916,6.808-1.536-4.443-1.62-8.952-2.256-13.295a124.05,124.05,0,0,1-.931-13.865c-.146-4.477-.032-8.964-.032-13.258-2.453-1.033-4.472-1.57-6.862-.589-1.812,4.189-1.466,8.661-1.152,13.141q.435,6.179.762,12.365c.162,3.1-.955,5.923-2.149,8.693-.244.565-.949.931-1.4,1.356-.426-.322-.743-.436-.793-.621a7.165,7.165,0,0,1-.41-2.175c.369-6.376.9-12.744,1.172-19.124.186-4.342.037-8.7.037-13.179h-4.527c1.053,6.539.717,7.815-2.148,13.967a42.9,42.9,0,0,0-3.355,9.529c-1.611,8.059-1.159,16.213-.3,24.342.115,1.082.535,2.258-.8,3.032-2.252-.256-2.9-2.261-3.837-3.767a51.911,51.911,0,0,1-2.709-6.024c0,4.311-.136,7.7.046,11.079a34.73,34.73,0,0,0,1.1,7.021C1363.285,1663.671,1354.025,1775.114,1352.8,1779.793Zm-86.946-143.265c.327,9.629.694,20.027,1.028,30.427q.407,12.6.75,25.2.394,13.727.773,27.456c.235,8.148.5,16.294.724,24.442q.432,15.989.8,31.981.424,17.874.826,35.749a15.542,15.542,0,0,0,.391,2.131c8.153-.617,16.16-1.034,24.221-1.872-.246-1.828-.535-3.179-.593-4.54-.275-6.386-.538-12.773-.711-19.161-.335-12.291-.511-24.585-.943-36.87-.277-7.88-.974-15.745-1.338-23.623-.393-8.517-.618-17.042-.917-25.563-.014-.376-.035-.751-.06-1.129-.45-6.744-.944-13.485-1.34-20.233-.344-5.881-.557-11.768-.868-17.65-.219-4.128-.447-8.256-.774-12.375-.663-8.359-1.434-16.709-2.089-25.067-.372-4.745-.535-9.507-.92-14.251-.273-3.364-.973-6.7-1.1-10.068-.236-6.1-2.027-12.077-1.214-18.278.368-2.813.063-5.716.063-9.128l-4.557.849c-1.711-1.825-4.355-1.765-6.711-2.5a4.121,4.121,0,0,0-3.542.622c-2.107,1.21-4.26,2.342-6.752,3.7,0,1.255-.093,3,.016,4.732.46,7.245.975,14.487,1.48,21.729.252,3.623.467,7.249.815,10.863a35.556,35.556,0,0,0,.858,4.125c2.036.6,3.7,1.085,4.939,1.448a39.5,39.5,0,0,1,1.317,5.357,11.091,11.091,0,0,1-.3,5.108C1269.3,1632.14,1267.713,1633.832,1265.853,1636.528Zm88.071,145.152c-2.234,1.064,5.1-123.167,4.975-127.874-.186-7.154-.068-14.318.015-21.477.039-3.355-1.156-6.293-2.69-9.956-.365,6.332-.744,11.9-.991,17.465-.312,7.012-.471,14.03-.778,21.041-.47,10.762-1.425,21.524-1.407,32.284.019,11.232-2.528,22.123-3.388,33.221-.5,6.478-1.441,12.92-2,19.4-.437,5.114-.574,10.252-.876,15.379q-.351,6-.78,11.991c-.452,6.363-1.035,12.72-1.38,19.089-.392,7.258-.582,14.526-.859,21.79-.009.25-.02.5-.037.752q-.709,11.053-1.42,22.1c-.2,3.121-.45,6.239-.627,9.36a23.038,23.038,0,0,0-.009,4.51c.127.891.684,2.179,1.376,2.45a24.7,24.7,0,0,0,9.405,1.841C1350.044,1849.606,1355.723,1780.823,1353.924,1781.68Zm-52.36,31.409c0-1.832.035-3.067-.006-4.3-.23-6.762-.516-13.522-.711-20.285-.318-11.03-.579-22.062-.866-33.092-.01-.377-.025-.753-.048-1.128-.461-7.62-1.005-15.235-1.363-22.858-.387-8.263-.6-16.534-.891-24.8-.009-.251-.02-.5-.035-.753-.461-7.369-.979-14.736-1.37-22.108-.358-6.758-.579-13.522-.861-20.284-.011-.251-.035-.5-.053-.751-.444-6.113-.97-12.223-1.308-18.342-.379-6.881-.587-13.771-.871-20.657a6.771,6.771,0,0,0-.039-.753,158.849,158.849,0,0,1-1.522-21.719c-.068-5.886-.428-11.768-.738-17.649-.118-2.246-.376-4.491-.713-6.715-.46-3.043-1.906-3.819-5.21-2.7-.194,4.756-.748,9.643-.5,14.49.283,5.481,1.411,10.913,1.944,16.389.871,8.966,1.586,17.948,2.313,26.927q.818,10.1,1.5,20.205c.55,8.242,1.043,16.487,1.528,24.733q.784,13.307,1.5,26.619.81,15.569,1.52,31.141c.271,5.754.538,11.508.745,17.264q.441,12.208.789,24.42c.293,10.4.512,20.806.837,31.207a29.833,29.833,0,0,0,.79,4.407Zm-30.758,8.938c0,1.759-.023,2.87,0,3.98.23,9.638.421,19.277.73,28.912a95.179,95.179,0,0,0,.819,9.711c.559,4.122,2.812,5.847,6.959,5.77a10.045,10.045,0,0,0,6.713-2.954,21.843,21.843,0,0,0,6.241-11.373,131.437,131.437,0,0,0,3.042-16.563,101.816,101.816,0,0,0,.062-13.526,16.924,16.924,0,0,0-.976-3.708C1286.563,1820.731,1278.948,1821,1270.805,1822.027Zm106.62,33.465.278.84c4.232-.274,8.484-.368,12.689-.87,5.33-.635,10.6-1.848,15.935-2.353,5.039-.475,8.508-3.683,8.31-9.2q-.353-9.767-.851-19.528a21.845,21.845,0,0,0-.779-4.811,35.88,35.88,0,0,0-2.394-6.71c-1.328-2.564-3.99-2.7-5.875-.534a18.463,18.463,0,0,0-1.724,2.468c-4.814,7.789-9.585,15.605-14.424,23.38C1384.961,1844.008,1382.533,1850.6,1377.425,1855.492Zm-21.651-236.255c-.5-5.459,1.034-11.025,2.145-16.66a3.937,3.937,0,0,0-1.4-4.237c-3.781-.117-6.724,2.149-9.631,4.25-6.7,4.84-13.3,9.825-19.913,14.795-1.966,1.479-3.824,3.1-5.824,4.736,1.61,1.866,2.48,3.555.438,5.844-1.576-1.089-3.055-2.111-5.016-3.468a95.746,95.746,0,0,1-10.162,2.107,103.63,103.63,0,0,1-10.9.083c.1,2.277.188,4.106.274,5.943,7.7,1.8,15.013,2.786,22.623,1.914,8.837-1.012,17.236-3.137,24.938-7.64C1347.328,1624.578,1351.2,1622.067,1355.774,1619.238Zm34.184-20.966a6.4,6.4,0,0,0-1.562-7.031c-3.091-3.306-4.085-7.172-2.381-11.445.984-2.465.95-4.583-.9-6.6-2.6-2.834-2.621-6.031-1.358-9.481a17.484,17.484,0,0,0,1.347-5.427c.132-5.964-2.96-6.4-7.168-5.76-1.031.156-1.94,1.084-2.919,1.634-1.723.965-3.456,1.912-5.2,2.879l-2.5-2c-3.911,7.474-4.363,17.578-2.888,24.555a3.41,3.41,0,0,0,3.206,2.738c1.479.192,2.96.368,4.39.544,3.251-2,6.563-2.761,10.523-1.255-1.879,4.517-6.081,3.219-9.061,4.352-.706,4.168-1.873,8.2.167,11.947C1379.249,1599.365,1384.518,1596.855,1389.958,1598.272Zm-100.7-29.909c-1.557-10.615-10.177-31.339-15.25-36.36l-3.487,7.905a41.981,41.981,0,0,1,4.89.358c1.42.278,2.98.622,3.451,2.935a9.308,9.308,0,0,1-2.342.319c-1.731-.225-3.426-.8-5.157-.914-2.468-.161-3.525.51-4.261,2.811q-3.431,10.73-6.624,21.536a12.084,12.084,0,0,0-.039,3.23c6.23-.945,12.046-1.351,17.144,1.218,1.821-.959,3.184-2.134,4.677-2.332,1.474-.195,3.078.6,4.731.98Zm127.935,112.2c3.616-10.6,10.31-19.527,16.206-28.922l-19.17-19.628c-.108,1.8-.171,2.983-.253,4.168-.3,4.364-.593,8.728-.91,13.09-.432,5.978-.994,11.947-1.293,17.93C1411.51,1672.469,1412.406,1677.39,1417.193,1680.566Zm-5.826-84.743a30.089,30.089,0,0,0-2.866-2.533c-6.86-4.4-9.936-11.075-11.289-18.754-.607-3.446-.94-6.939-1.492-10.394-.469-2.928-1.074-5.836-1.626-8.785l-7.989-2.286c2.052,4,1.146,7.366-.025,10.721a15.439,15.439,0,0,0-.666,2.158c-.413,2.177-.377,4.365,1.282,6.019,2.591,2.585,2.708,5.339,1.426,8.611a8.27,8.27,0,0,0,2,9.353,8.166,8.166,0,0,1,1.66,2.023c1.656,3.469,3.206,6.989,4.805,10.485.335.734.721,1.445,1.317,2.631.941-1.443,1.685-2.429,2.267-3.5C1402.4,1597.442,1405.323,1594.527,1411.367,1595.823Zm-128.635,276.939c2.287-.515,4.623-.876,6.85-1.582a16.1,16.1,0,0,0,8.519-6.453c3.081-4.444,3.878-9.571,4.037-14.653.305-9.654.014-19.326-.047-28.99,0-.222-.2-.442-.306-.663-2.617-.973-2.617-.973-5.931-5.637-8.214-.45-16.481.568-24.838,1.627v2.783c6.473-.019,12.718-.186,18.954-.009,5.8.165,7.7,2.385,7.856,8.222a94.2,94.2,0,0,1-2.224,24.992C1293.616,1860.578,1290.956,1868.306,1282.733,1872.762Zm80.794-1.773c.783-3.851.756-7.54-.323-10.2a3.627,3.627,0,0,0-2.286-2.088,9.564,9.564,0,0,0-5.071.594,128.716,128.716,0,0,1-18.461,7.46c-1.725.568-3.633,1-4.746,2.865.751,2.108,2.429,2.28,4.255,2.275,7.027-.019,14.055.051,21.08-.049A39.593,39.593,0,0,0,1363.526,1870.989Zm3.885-259.308.724,0c.5-.616,1.314-1.171,1.443-1.857a85.433,85.433,0,0,0,1.636-10.683,103.185,103.185,0,0,0-.352-10.49c-.047-1.087-.131-2.171-.19-3.126-8.208-2.535-8.208-2.535-9.139-10.215a5.943,5.943,0,0,0-.818,1.406,53.159,53.159,0,0,0-.951,15.324,11.5,11.5,0,0,0,1.451,4.617C1363.941,1601.382,1367.467,1605.714,1367.411,1611.681Zm-6.75-11.058c-.671,3.434-1.234,6.464-1.861,9.478-.957,4.613-1.434,9.164,1.068,13.513a7.1,7.1,0,0,1,.618,2.154c.773,3.926,1.422,7.877,2.307,11.778.587,2.585.763,5.358,2.873,8.2,0-5.945-.274-11.221.078-16.454a35.513,35.513,0,0,1,4.344-15.085c-3.977-.467-4.642-1.221-5.29-5.333A13.636,13.636,0,0,0,1360.661,1600.623Zm39.7,5.5-3.174,1.008c-3.129-1.4-2.423-5.1-4.792-7.379-1.446,12.6-.2,24.513,1.953,36.4,2.1-3.6,2.624-7.526,2.9-11.477C1397.676,1618.557,1397.927,1612.428,1400.358,1606.118Zm-5.368,266.768c7.156,1.422,14.035.652,18.067-1.9a5.326,5.326,0,0,0-3.09-5.1c-1.1-.6-2.289-1.067-3.326-1.759-2.341-1.566-2.859-3.65-1.617-6.152.4-.8.9-1.552,1.378-2.371-2.082-.344-3.377.239-4.2,2.013C1399.9,1862.61,1397.511,1867.566,1394.989,1872.886Zm-30.514-323.421c9.194-1.641,18.044-.288,27.273.5-2.477-6.01-7.016-8.678-12.705-9.479C1373.944,1539.767,1367.413,1543.836,1364.475,1549.465Zm43,143.332c3.855-1.144,4.359-2.032,3.854-6.364l-3.677-2.752,2.782-4.38c-4.992-.706-7.317.486-8.809,4.446,1.826-.722,2.441-3.62,5.481-2.967-.23,3.64-5.259,4.635-4.581,8.491C1407.043,1688.824,1406.726,1689.243,1407.475,1692.8Zm2.614-9.634c3.787.5,3.9,3.129,4.2,5.538a5.349,5.349,0,0,0,5.638,1.029,49.478,49.478,0,0,0-6.073-9.275Zm1.41,181.158.736-.48c-.388-2.635-.036-5.474-2.2-7.705-2.643.81-3.116,2.765-3.457,5.35Zm-145.715-231.627c2.242-1.779,3.394-3.577,2.841-6.059-.291-1.3-.592-2.8-2.841-2.431Z" transform="translate(-1208.64 -1527.377)" fill="#0b3d41"/>
  <g id="Group_36915" data-name="Group 36915" transform="translate(150.937 13.026)">
    <path id="Union_10" data-name="Union 10" d="M7.835,71.277c.056-5.966-3.471-10.3-6.2-15.019A11.491,11.491,0,0,1,.188,51.64a53.107,53.107,0,0,1,.951-15.324,5.91,5.91,0,0,1,.817-1.405c.931,7.679.931,7.679,9.14,10.214.059.955.144,2.039.19,3.126a103.136,103.136,0,0,1,.352,10.49A85.3,85.3,0,0,1,10,69.425c-.129.686-.943,1.242-1.443,1.857ZM37.01,62.037c-1.6-3.5-3.149-7.015-4.805-10.485a8.146,8.146,0,0,0-1.661-2.023,8.269,8.269,0,0,1-2-9.353c1.282-3.272,1.165-6.027-1.427-8.612-1.659-1.654-1.695-3.841-1.282-6.018a15.411,15.411,0,0,1,.666-2.158c1.171-3.355,2.077-6.719.025-10.721l7.989,2.285c.552,2.949,1.157,5.857,1.626,8.785.552,3.456.885,6.949,1.492,10.394,1.354,7.679,4.429,14.356,11.289,18.754a30.1,30.1,0,0,1,2.867,2.534c-6.044-1.3-8.966,1.62-11.2,5.745-.581,1.075-1.325,2.061-2.266,3.5C37.732,63.482,37.346,62.771,37.01,62.037ZM4.9,9.062c2.938-5.63,9.47-9.7,14.567-8.98,5.69.8,10.229,3.47,12.705,9.48C22.942,8.774,14.092,7.421,4.9,9.062Z" fill="#fff" stroke="rgba(0,0,0,0)" stroke-width="1"/>
  </g>
</svg>
