<svg xmlns="http://www.w3.org/2000/svg" width="1213.26" height="585.732" viewBox="0 0 1213.26 585.732">
  <g id="Group_36920" data-name="Group 36920" transform="translate(0)">
    <path id="Path_76" data-name="Path 76" d="M777.466,1979.236c-4.9-.338-9.789-.938-14.685-.967-25.319-.158-50.639-.042-75.958-.265-29.841-.264-59.681-.77-89.52-1.187q-40.61-.569-81.217-1.173-42.983-.612-85.966-1.193c-29.05-.4-58.1-.738-87.151-1.207-9.273-.15-18.539-.7-27.812-.9-1.953-.039-3.919.68-6.364,1.142,1.614,3.2,3.759,3.436,5.921,3.479,3.559.072,7.12.04,10.681.046,19.584.027,39.167-.073,58.749.107,34.19.316,68.409.081,102.558,1.449,27.681,1.111,55.366-.292,82.985,1.123,28.466,1.456,56.95-.238,85.359,1.2,29.257,1.482,58.5.349,87.741,1.005q25.173.567,50.348,1.072c2.715.051,5.462.4,7.943-1.543.9-.7,2.621-.552,3.953-.48,3.929.207,7.85.817,11.777.833,20.373.083,40.752.286,61.12-.053a243.856,243.856,0,0,0,48.649-5.771c9.049-2,18.056-4.32,26.906-7.064,24.812-7.7,47.09-20.156,67.583-36.066,18.375-14.263,32.644-31.956,44.52-51.691,16.035-26.651,26.5-55.53,33-85.82,3.171-14.8,5.537-29.784,7.82-44.752,1.037-6.788.971-13.74,1.436-20.614a8.651,8.651,0,0,1,1.436-4.629c.429,1.563.9,3.113,1.282,4.688,4.366,18.216,9.049,36.366,12.944,54.683,2.162,10.173,3.244,20.6,4.378,30.958,1.391,12.708,2.327,25.464,3.456,38.2.036.394.047.787.063,1.183.433,11.819.728,23.643,1.339,35.451.526,10.216,1.45,20.413,2.115,30.621.2,3.149.036,6.322.2,9.475.35,6.686.637,13.381,1.323,20.035.208,2.018,1.7,3.884,2.485,5.865.766,1.935,2.046,3.969,1.941,5.9-.718,13.407,8.613,18.868,18.485,20.591,6.833,1.195,13.642,1.76,20.588.324,3.235-.669,6.7-.208,10.062-.288,1.776-.044,3.658.2,5.31-.3a45.453,45.453,0,0,1,14.37-2.359c2.886.072,5.824-2.045,9.043-3.294.809,3.733,4.243,4.223,7.448,4.532,6.865.663,13.755,1.215,20.648,1.411,89.167,2.536,178.356.518,267.533,1.223,2.509.02,5.53,1.16,7.759-2.083-.977-.578-1.715-1.336-2.528-1.426a54.176,54.176,0,0,0-5.925-.159c-41.341-.056-82.684,0-124.025-.189-31.819-.149-63.639-.663-95.458-.884-5.31-.037-10.641,1.023-15.937.836-15.967-.566-31.922-1.458-47.875-2.331a47.61,47.61,0,0,1-6.742-1.388c.785-5.409,1.5-10.6,2.3-15.77,1.464-9.486,1.339-18.917-1.741-28.059a8.832,8.832,0,0,1,.936-8.38c3.308-4.906,6.619-9.816,10.127-14.58,10.089-13.7,19.358-27.9,26.5-43.383,6.993-15.168,10.218-31.162,8.527-47.782a113.688,113.688,0,0,0-5.077-23.627c-13.2-40.354-26.114-80.819-40.461-120.77-7.99-22.25-11.755-45.4-17.983-68a5.129,5.129,0,0,1-.146-1.754c.026-.329.334-.634.516-.95.2.009.453-.059.58.039,8.253,6.431,13.6,6.3,21.443-.676,8.331-7.4,15.095-16.173,21.144-25.43a298.364,298.364,0,0,0,21.53-38.132c2.562-5.557,5.26-11.055,7.648-16.685a5.917,5.917,0,0,1,4.115-3.741c9.565-2.877,10.194-3.677,11.108-14.066.6,2.354.936,3.907,1.387,5.427,3.468,11.682,11.162,16.643,23.309,15.059,11.615-1.515,17.241-7.209,18.551-19.959.58-5.634-.253-11.407-.328-17.119-.047-3.545-2-5.457-5.14-6.358a67.6,67.6,0,0,0-34.547-1.183c-2.562.6-4.811,2.526-7.362,3.927-2.928-.284-4.461-2.528-6.178-4.771-3.711-4.837-9.061-6.51-14.108-4.259a12.653,12.653,0,0,0-4.837,4.04c-7.62,10.56-15.069,21.247-22.575,31.89q-10.234,14.512-20.491,29.009c-1.017,1.432-2.243,2.714-3.846,4.626-2.566-5.842-4.932-11.217-7.286-16.6q-5.22-11.93-10.432-23.865c-3.393-7.739-8.406-13.808-17.607-16.245,2.384-8.949-.985-16.62-4.989-24.259a33.523,33.523,0,0,1-3.977-17.112,66.8,66.8,0,0,0-.672-11.18c-.314-2.419.564-4.048,1.9-5.911,1.933-2.7,1.345-4.631-1.87-5.108-2.906-.429-3.808-2.206-5.1-4.208-5.559-8.645-12.948-14.647-23.378-16.753-4.145-.836-7.872-.078-11.639.984-7,1.976-13.118,5.424-17.447,11.529a18.8,18.8,0,0,0-3.632,11.05c-.016,2.116-.75,4.223-.855,6.35-.083,1.644-.247,3.709.6,4.883,1.689,2.334,1.294,4.394.382,6.667a22.95,22.95,0,0,1-1.365,3.272c-4.518,7.563-5.745,15.967-5.614,24.487.1,6.789-1.555,12.437-6.887,16.823a6.557,6.557,0,0,0-1.945,2.211c-4.647,10.839-13.1,19.8-15.563,31.733-1.029,4.982-2.506,9.872-3.984,15.591-.884-1.569-1.566-2.609-2.085-3.725a131.768,131.768,0,0,0-24.361-36.17c-5.737-5.983-11.114-12.328-17.109-18.034a282.684,282.684,0,0,0-54.918-40.922,316.508,316.508,0,0,0-60.181-26.3,327.979,327.979,0,0,0-58.83-13.225c-7.415-.955-14.952-.954-22.429-1.46-3.931-.267-7.878-1.183-11.769-.958-16.125.938-32.265,1.541-48.289,4.085a272.1,272.1,0,0,0-60.272,17.133,206.325,206.325,0,0,0-52.875,31.25c-5.953,4.862-12.076,9.64-17.324,15.2a264.435,264.435,0,0,0-19.364,23.108c-26.9,35.98-42.419,76.87-51.042,120.56-2.588,13.114-4.278,26.416-6.016,39.681-.892,6.819-.957,13.745-1.446,20.62-.323,4.514-.98,9.017-1.061,13.531-.427,23.368,2.952,46.333,7.672,69.139a358.26,358.26,0,0,0,36.564,99.053A289.841,289.841,0,0,0,646.4,1902.24c21.558,25.186,48,43.786,77.685,58.067,13.041,6.273,26.777,10.66,40.73,14.417,4.3,1.155,8.515,2.607,12.768,3.924Zm327.558-287.667a13.031,13.031,0,0,1-2.065.855,152.6,152.6,0,0,1-29.433,2.5c-5.284-.069-5.816.673-6.125,5.632-.73,11.785-1.266,23.593-2.387,35.343-1.268,13.306-2.655,26.628-4.77,39.818-3.836,23.9-10.732,46.818-22.749,68.1-10.382,18.385-22.737,34.973-38.985,48.7a209.353,209.353,0,0,1-48.121,30.962c-25.008,11.436-51.387,16.576-78.746,16.733-14.006.081-28.017-.849-42.03-1.027-15.047-.192-29.859-2.305-44.615-4.918-20.946-3.709-40.977-9.992-59.561-20.658a173.735,173.735,0,0,1-48.663-40.958c-19.906-24.411-34.466-51.966-44.652-81.7a427.045,427.045,0,0,1-15.061-57.162,281.7,281.7,0,0,1-5.158-45.737c-.287-10.028.307-20.106.979-30.13a244.37,244.37,0,0,1,33.363-110.561,281.5,281.5,0,0,1,38.549-51.5c8.942-9.6,19.578-17.16,30.488-24.332a57.766,57.766,0,0,1,5.818-2.954,23.575,23.575,0,0,1,2.073,2.6c3.891,6.866,7.8,13.73,11.589,20.651,10.143,18.523,20.155,37.122,30.411,55.582a21.99,21.99,0,0,1,3.009,11.234c-.091,9.876-.077,19.752-.061,29.628,0,2.1.194,4.194.332,6.934l12.165-3.437c1.1,2.338,2.03,4.269,2.93,6.208,6.321,13.605,12.458,27.3,19.01,40.788,5.175,10.653,10.788,21.1,16.361,31.552,1.784,3.351,1.917,6.359-.483,9.34a20.741,20.741,0,0,0-4.453,12.036c-.37,6.513,1.292,12.694,6.216,17.194,8.679,7.929,23.137,6.885,30.28-.591,2.888-3.021,5.925-4.266,9.961-3.795,2.15.249,4.35.064,6.52.189,12.206.7,24.4,1.879,36.619,2.055,22.943.334,45.891.141,68.838.057,4.129-.016,8.252-.633,12.382-.839,2.7-.132,5.421-.024,8.416-.024.837,7.033.9,13.807,5.249,19.645a35.856,35.856,0,0,0,3.349-1.474c7.9-4.495,15.8-8.979,23.641-13.565q7.923-4.635,15.67-9.569c1.114-.712,1.818-2.063,2.681-3.082-.884-.842-1.137-1.3-1.446-1.344a40.482,40.482,0,0,0-4.691-.429c-41.507-.612-83.026.879-124.536-1.027-16.188-.744-32.439-.049-48.657-.2-6.825-.064-12.739,1.571-17.817,6.43-4.542,4.345-10.1,3.966-15.532,1.826-5.632-2.222-8.081-6.831-8.066-12.618a55.12,55.12,0,0,1,1.266-9.928c.5-2.664,2.884-4.048,5.322-2.633,2.216,1.283,4.053.949,6.176.462,8.372-1.914,11.593-.68,15.989,6.966,1.654,2.881,3.694,3.632,6.718,3.657q65.237.509,130.473,1.127c6.507.054,6.487-.039,7.443-6.249.732-4.759,1.521-9.512,2.39-14.911,2.566,1.387,4.346,2.208,5.976,3.257,8.8,5.663,17.716,11.177,26.3,17.164a30.6,30.6,0,0,0,15.441,5.373,142.816,142.816,0,0,0,14.828.176c3.767-.084,4.431-.823,4.914-4.469a192.528,192.528,0,0,0-.287-50.73,240.375,240.375,0,0,0-13.888-54.317,234,234,0,0,0-19.853-40.979c-8.309-13.265-18.6-24.848-30.144-35.5a259.5,259.5,0,0,0-42.356-31.186,304.306,304.306,0,0,0-53.5-25.319c-21.293-7.729-43.165-13.033-65.689-14.537-14.123-.942-28.427,0-42.6.852-19.514,1.184-38.012,6.877-55.949,14.4-6.5,2.728-12.865,5.807-19.655,8.89-1.61-3.276-3.12-6.25-4.544-9.262-2.192-4.639-4.245-9.346-6.509-13.951-2.57-5.227-3.233-5.581-8.685-3.2-18.056,7.88-34.607,18.122-48.926,31.761-9.915,9.44-18.112,20.314-25.934,31.465-8.659,12.345-15.025,25.93-21.113,39.672-11.271,25.451-17.894,52.2-22.3,79.535-1.748,10.861-2.854,21.851-3.717,32.823-1.046,13.341-1.66,26.722-2.174,40.1-.158,4.095.916,8.227.922,12.343.024,13.439,1.755,26.7,3.682,39.956a298.476,298.476,0,0,0,13.372,55.714c6.447,18.441,14.008,36.462,23.87,53.453,14.038,24.182,30.106,46.771,51.258,65.314,9.48,8.311,19.53,15.971,29.3,23.954a29.317,29.317,0,0,1,2.413,2.471,3.757,3.757,0,0,1-2.689-.5,210,210,0,0,1-31.572-23.912,250.868,250.868,0,0,1-29.3-31.716c-20.968-27.121-36.585-57.142-47.735-89.456a352.852,352.852,0,0,1-15.6-61.271c-1.824-11.847-2.657-23.848-3.933-35.782-.273-2.542-.619-5.078-.772-7.628a62.785,62.785,0,0,1-.067-7.086c.2-3.731.621-7.451.862-11.18.483-7.468.463-15,1.446-22.4,2.05-15.407,4.224-30.818,7.06-46.095a294.639,294.639,0,0,1,22.686-71.441,243.8,243.8,0,0,1,36.207-55.991,210.033,210.033,0,0,1,26.733-25.912c13.053-10.614,27.544-18.992,42.653-26.5,28.791-14.311,59.472-21.411,91.185-23.536,21.432-1.436,43.023-1.3,64.482,1.842,18.025,2.643,35.83,6.1,53.065,11.971a333.664,333.664,0,0,1,57.271,25.6,280.694,280.694,0,0,1,57.89,42.862c5.225,5.089,10.062,10.581,14.95,16a143.793,143.793,0,0,1,24.529,37.513,38.338,38.338,0,0,1,3.037,18.476c-.643,10.419-.966,20.863-1.137,31.3a52.382,52.382,0,0,0,5.557,24.009c5.211,10.6,11.292,20.775,16.883,31.194a25.911,25.911,0,0,1,2.378,6.543c1.464,6.526,2.137,13.29,4.2,19.609C1105.859,1677.779,1104.972,1684.669,1105.024,1691.569ZM724.843,1466.3c8-5.595,16.592-8.673,24.972-12.1a176.53,176.53,0,0,1,57.561-12.685,228.891,228.891,0,0,1,54.846,3.2,274.189,274.189,0,0,1,64.82,20.322c23.178,10.719,45.286,23.206,65.02,39.739a180.967,180.967,0,0,1,31.548,33.438c8.062,11.294,14.289,23.605,19.785,36.339,14.028,32.507,21.7,66.252,20.371,101.786-.182,4.839-1.072,9.652-1.63,14.434-7.906,1.559-15.071-.513-22.294-1.037-1.264-.092-2.51-1.1-3.668-1.831-5.67-3.6-11.284-7.284-16.962-10.869q-9.018-5.695-18.118-11.26c-3.927-2.418-5.187-1.958-6.047,2.32-.542,2.695-.79,5.449-1.237,8.165-.473,2.868-1.025,5.724-1.654,9.2-2.769,0-5.09,0-7.411,0-26.9-.036-53.8.043-80.7-.15-14.808-.107-29.612-.731-44.417-.976-2.651-.043-4.251-1.094-6.008-2.977-2.521-2.7-5.284-5.576-8.544-7.09a15.4,15.4,0,0,1-8.04-8.129c-5-10.954-10-21.91-15.277-32.73-6.841-14.028-13.955-27.921-20.927-41.885-.859-1.717-1.561-3.511-2.342-5.288l11.425-7.585a38.679,38.679,0,0,0-3.715-3.873c-11.6-8.853-23.3-17.578-34.838-26.518a20.5,20.5,0,0,1-5.221-6.161c-5.146-9.335-9.917-18.879-15.023-28.237C742.519,1498.113,733.775,1482.45,724.843,1466.3Zm464.569,73.568-2.164.168c-.4,1.969-1.379,4.031-1.082,5.888a144.867,144.867,0,0,0,3.913,19.049c2.1,6.965,5.645,13.505,7.627,20.494,2.9,10.23,4.881,20.719,7.421,31.058,4.558,18.556,7.508,37.539,14.642,55.421,1.171,2.929,2.285,5.887,3.3,8.875,8.21,24.1,16.513,48.162,24.535,72.32,5.411,16.294,10.545,32.684,15.553,49.1a80.121,80.121,0,0,1,3.266,33.349c-2.71,21.865-12.161,41.086-24.62,58.944-6.2,8.894-12.7,17.589-19.083,26.36-.655.9-1.474,1.683-2.457,2.794a44.05,44.05,0,0,0-2.849-3.486c-8.339-8.187-18.1-6.9-22.713,3.013a95.729,95.729,0,0,0-4.008,11.736c-.732,2.324-1.248,4.716-2.037,7.747-5.144-9.409-10.254-17.839-14.468-26.693-5.167-10.858-10.1-21.883-14.22-33.167-7.755-21.242-12.058-43.09-10.8-65.958.645-11.766,3.173-23,6.35-34.2a89.971,89.971,0,0,0,3.656-24.475c.034-10.717-3.888-19.566-11.031-27.249-5.243-5.636-10.742-11.058-15.651-16.97a126.818,126.818,0,0,1-9.64-14.133c-1.864-2.989-3.116-6.352-4.855-9.427-1.943-3.432-3.988-6.823-6.236-10.06-3.286-4.733-2.876-9.474-.684-14.641,6.026,2.074,4.091,9.231,8.121,12.246,3.836-.893,7.53-1.568,11.1-2.647,2.8-.844,6.093-1.543,8.024-3.457,3.047-3.021,6.1-4.536,11.251-3.08-.53-2.273-.5-3.876-1.229-4.983a48.471,48.471,0,0,0-18.842-16.721c-2.245-8.5-4.413-16.644-6.55-24.8-1.452-5.545-2.022-10.794,3.157-15.118,3.243-2.709,3.882-6.277,1.569-10.109-.813-1.35-1.351-2.875-2.212-4.191a75.333,75.333,0,0,1-10.525-26.217c-1-4.805-1.5-9.713-2.378-14.548a19.855,19.855,0,0,0-1.549-3.829l-1.4.089a31.137,31.137,0,0,0-1.814,5.3c-1.328,8.551-2.451,17.137-3.723,25.7-.362,2.435-.985,4.833-1.578,7.676-1.6-.659-2.509-.977-3.364-1.393-1.691-.819-3.462-1.477-4.785.385-1.521,2.141-.056,3.739,1.454,5.087.86.769,2.048,1.163,2.959,1.887a12.464,12.464,0,0,1,3.314,3.12,402.449,402.449,0,0,1,19.484,38.536c4.044,9.347-2.961,16.978-9.407,19.295-1.355.486-3.844.117-4.73-.847-2.095-2.279-4.431-4.951-5.086-7.824-1.977-8.677-6.515-16-10.837-23.534-4.738-8.26-8.77-16.759-8.7-26.7.02-3.044-1.125-6.211-2.267-9.114a11.286,11.286,0,0,1-.538-7.448c1.889-7.129,2.617-14.407,1.191-21.679a38.289,38.289,0,0,1-.6-13.431c1.967-12.717,4.232-25.283,11.48-36.37,1.824-2.79,3.828-4.333,7.2-4.046,8.677.738,16.693,3.17,23.164,9.276,3.722,3.513,7.575,6.94,9.706,11.832.437,1.005,2.134,2.286,2.934,2.1.961-.225,1.656-1.842,2.318-2.946.279-.465.141-1.163.257-1.743,1.136-5.6,2.431-11.175,3.369-16.808.507-3.032,1.864-4.621,5.193-4.69a14.738,14.738,0,0,1,1.151,2.615c2.964,12.84,7.231,25.329,8.107,38.7.849,12.941,3.068,25.793,4.79,38.671.4,2.981,1.219,5.908,1.913,9.172,4.768-3.28,5.274-3.554,5.067-7.368a136.342,136.342,0,0,0-1.8-14.634c-3.363-20.373-9.326-40.358-9.041-61.274a56.9,56.9,0,0,0-.574-6.16c3.48-.143,4.608,1.784,5.537,3.724,2.8,5.843,3.909,11.855,2.36,18.367-.477,2-2.588,5.185.293,6.341,1.885.756,4.774-.671,7.1-1.452a7.54,7.54,0,0,0,3.345-2.378c3.836-4.878,6.669-10.158,6.978-16.62.241-5,1.041-9.984,1.636-15.365a16.937,16.937,0,0,1,3.525.864,19.682,19.682,0,0,1,8.766,9.336q9.611,21.639,19.079,43.342a13.944,13.944,0,0,1,.633,9.823c-.621,2.14-1.355,4.633,1.286,6.439,3.783-1.337,3.921-4.489,4.275-7.664.273-2.467.261-5.344,1.543-7.257,8.568-12.783,17.413-25.382,26.256-37.98,1.858-2.645,4.075-5.038,6.483-7.984,6.633,6.591,12.624,12.578,18.66,18.523,1.986,1.957,1.227,3.866.221,5.926-5.282,10.823-10.319,21.771-15.823,32.482a164.111,164.111,0,0,1-23.752,34.547,49.175,49.175,0,0,1-10.127,8.988c-6.451,4.051-11.761,2.554-15.363-4.141-4.008-7.444-8.1-14.839-9.821-23.365-1.907-9.463-4.554-18.781-7.007-28.128A51.305,51.305,0,0,0,1189.411,1539.869Zm-84.38,157.036a58.522,58.522,0,0,1,.34,6.7c-.712,12.387-1.233,24.8-2.415,37.141-1.256,13.121-2.754,26.247-4.894,39.246-4.8,29.166-13.394,57.178-26.992,83.551-12.41,24.069-27.92,45.628-48.764,63.331a195.54,195.54,0,0,1-53.8,32.935c-29.837,12-61.142,17.017-93.086,18.161-16.99.609-34.026.461-51.027.049-11.811-.285-23.627-1.3-35.386-2.528-19.507-2.037-37.735-8.607-54.976-17.584a264.284,264.284,0,0,1-78.548-61.971,295.413,295.413,0,0,1-39.256-58.268c-12.092-23.466-20.2-48.431-25.62-74.214-5.116-24.359-8.02-48.99-7.512-73.946.135-6.517-.1-13.042.121-19.554.281-8.268.35-16.592,1.416-24.774,1.961-15.026,4.141-30.049,7.023-44.92,5.927-30.587,15.457-59.93,31.376-86.993,11.828-20.11,26.308-37.881,44.542-52.527a157.937,157.937,0,0,1,33.93-20.422c4.647-2.109,5.348-1.974,7.421,2.328,3.422,7.1,6.639,14.3,10.034,21.659a40.493,40.493,0,0,1-3.318,2.536c-19.949,12.256-36.053,28.774-50.926,46.511-16.25,19.379-28.274,41.373-37.665,64.747a247.247,247.247,0,0,0-17.985,94.119c.067,14.387.151,28.85,1.622,43.133,1.838,17.831,5.686,35.382,10.414,52.728,7.729,28.349,18.685,55.243,33.944,80.456,11.8,19.494,26.846,36.179,43.748,51.08,19.716,17.38,42.93,28.68,68.534,34.819A365.173,365.173,0,0,0,848.276,1944c22.138.269,44.2.038,66.029-4.641a187.288,187.288,0,0,0,91-48.058,233.341,233.341,0,0,0,19.387-21.515c12.918-15.7,22.333-33.348,29.131-52.533,9.979-28.166,13.461-57.46,15.965-86.946.8-9.421.924-18.9,1.4-28.346a17.839,17.839,0,0,1,.574-2.764Zm3.832-11.106,1.466-.521c2.522,4.4,4.95,8.855,7.591,13.182,3.379,5.534,6.465,11.338,10.525,16.342,5.328,6.57,11.676,12.3,17.225,18.709,5.929,6.847,9.64,14.533,9.785,24.079.15,10.087-2.141,19.556-4.948,29a142.493,142.493,0,0,0-5.864,39.584,66.978,66.978,0,0,0,1.076,10.552c1.363,8.934,2.186,18.022,4.427,26.741,6.422,25,17.293,48.21,29.762,70.723a49.344,49.344,0,0,1,4.423,10.3c1.563,5.522-1.248,9.489-7.013,9.836-10.038.608-20.1.96-30.156,1.128-5.3.087-6.871-1.779-7.231-7.169-.34-5.1-.8-10.2-1.064-15.307-.863-16.715-1.646-33.433-2.487-50.149q-.5-10.024-1.131-20.042c-.782-12.57-1.241-25.174-2.511-37.7-1.407-13.878-2.845-27.823-5.581-41.479-4.022-20.082-9.017-39.979-13.965-59.863C1110.077,1711.223,1110.53,1698.423,1108.864,1685.8Zm-9.387-191.757c1.986-2.116,3.248-3.336,4.364-4.675,2.515-3.025,4.888-6.009,5.2-10.3.784-10.917.544-22.1,6.875-31.845a5.134,5.134,0,0,0,.71-2.239c.4-4.173,3.118-6.063,6.792-7.1,1.518-.43,2.983-1.035,4.5-1.456,3.45-.958,4.625-.5,5.8,2.906a16.211,16.211,0,0,1,1,6.309c-.337,4.487-1.1,8.946-1.769,13.4-.408,2.7-.113,5.218,2.083,7,5,4.06,5.542,9.9,5.749,15.5.208,5.569.261,11.478-4.952,15.6-1,.787-1.343,2.373-2.042,3.559-1.2,2.031-2.39,4.071-3.672,6.05-1.549,2.388-3.466,2.383-5.411.52-2.7-2.588-5.247-5.349-8.012-7.87C1112.17,1495.284,1106.961,1492.933,1099.477,1494.041Zm106.307,482.223c-1.11-6.339-3.46-10.578-8.555-12.936-3.941-1.823-5.128-4.495-5.122-8.348a77.122,77.122,0,0,1,5.2-28.286,21.036,21.036,0,0,1,3.634-5.3c2.346-2.857,5.474-2.906,8.655-1.84,4.317,1.447,8.655,7.169,8.5,11.8-.263,8.131.829,16.079,2.23,24.042.922,5.233-.459,10.238-2.649,14.927C1215.512,1974.963,1211.47,1976.867,1205.784,1976.265ZM1136.792,1435.7c2.243-.107,4.064-.588,5.672-.2,4.311,1.047,7.876.637,11.437-2.53,2.647-2.356,7.739-.015,9,3.471,4.251,11.749,4.837,23.888,4.044,36.2-.174,2.687-1.27,4.835-3.761,5.437a71.627,71.627,0,0,1-12.74,2.042c-3.223.18-5.389-1.768-6.305-5.157-.714-2.642-1.432-5.7-3.215-7.55-4.335-4.5-3.933-9.832-3.163-14.992C1138.588,1446.878,1139.1,1441.513,1136.792,1435.7Zm162.88,56.227c11.66,2.643,22.969,4.619,34.577-.119.279,8.19,1.062,15.615-2.594,22.64-1.994,3.833-4.734,6.119-9.205,6.216-2.144.048-4.273.574-6.421.74-4.028.31-8-.279-11.122-2.9C1299.189,1513.706,1296.437,1499.5,1299.672,1491.929Zm-102.153,486.237a58.666,58.666,0,0,1-7.46,1.047c-9.075.156-18.167.405-27.224,0a30.536,30.536,0,0,1-11.257-3c-6.295-2.952-8.334-9.609-5.446-17.036,3.682,0,7.67.418,11.538-.082,9.624-1.247,18.749.775,27.876,3.329,2.533.71,3.846,2.3,5.045,4.509C1192.619,1970.672,1195.042,1974.2,1197.519,1978.166ZM858.683,1700.3l-.143-.813a32.544,32.544,0,0,1,5.492-.734c5.116.168,10.222.843,15.332.857q74.4.178,148.788.206c1.958,0,3.919.17,7.041.314l-35.02,21.443c-2.241-4.947-2.665-9.579-2.779-14.329-.107-4.406-.879-5.247-5.292-5.157-6.293.129-12.582,1.019-18.869.968q-47.967-.392-95.929-1.178C871.089,1701.776,864.888,1700.85,858.683,1700.3Zm-24.064-30.387-.8,1.478c-1.1-.229-2.633-.091-3.213-.766a19.92,19.92,0,0,1-2.518-4.663c-4.489-9.654-8.7-19.444-13.469-28.959-12.63-25.217-25.495-50.315-38.251-75.467-.936-1.847-1.735-3.763-2.6-5.646,10.475,6.9,20.612,13.786,30.353,22.6-4.075,2.057-7.326,3.7-11.027,5.567C806.472,1613.2,822.433,1640.671,834.618,1669.915Zm282.416-239.8c-2.176-9.445,4.714-18.379,16.418-21.6,13.239-3.643,28.061,3.075,31.582,14.387-8.028.574-16.109.669-24.029,1.854S1125.31,1428.214,1117.034,1430.112Zm56.978,81.711a11.385,11.385,0,0,1-2.384-.836c-3.577-2.345-4.978-5.937-5.6-9.968-.333-2.163-.6-4.637-3.227-5.084-3.395-.578-4.319-3.2-5.361-5.7-1.911-4.574-.969-6.271,3.808-7.45,5.88-1.452,7.791-3.474,8.487-9.646.647-5.729,1.019-11.49,1.472-16.747,2.091,5.033,4.237,10.517,6.645,15.884a23.807,23.807,0,0,1,2,13.825c-.372,2.329-.714,4.663-1.181,6.974C1177.439,1499.183,1177.939,1505.71,1174.012,1511.823Zm-347.867,160.87-.966.435a36.343,36.343,0,0,1-2.4-3.605q-7.125-13.973-14.153-28c-3.8-7.555-7.769-15.036-11.349-22.7-4.338-9.278-8.321-18.725-12.521-28.07-1.494-3.322-2.39-3.647-6.012-2.7-2.408.629-4.815,1.255-7.494,1.95.334-9.63.647-18.617.987-28.418a25.314,25.314,0,0,1,1.537,2.22q23.366,47.2,46.69,94.426c1.743,3.533,3.3,7.157,4.829,10.789A21.3,21.3,0,0,1,826.145,1672.693Zm291.271-57.294c-3.868-6.806-7.842-13.553-11.52-20.46-.815-1.535-1.383-4.037-.685-5.377,1.893-3.63,2.445-7.343,2.736-11.315.282-3.862,1.224-7.674,1.877-11.509,3.583,12.565,9.3,23.713,15.735,34.74C1121.992,1605.69,1117.343,1609.068,1117.416,1615.4Zm168.542-122.469c-.811,3.8-1.385,7.644-2.489,11.336-1.159,3.884-3.854,6.134-6.661,5.4-5.866-1.525-10.867-4.8-13.834-10.115-2.669-4.778-.536-8.058,4.908-8.226C1273.93,1491.141,1280.021,1490.858,1285.958,1492.93ZM1122.1,1673.286c-.752-.685-1.137-.892-1.308-1.213-1.747-3.26-3.458-6.538-5.128-9.716a5.711,5.711,0,0,1,.649-1.188q2.451-2.547,4.957-5.035c6.287-6.248,7.585-6.315,14.167-.74.437.369.776.851.344.369a59.32,59.32,0,0,0,1.674,6.564c1.65,4.174,1.442,5.531-2.853,7.245C1130.483,1671.218,1126.068,1672.141,1122.1,1673.286Zm20.741-176.489,2.2-12.776c8.608-1.008,8.083,6.3,10.28,10.06l-4.384,6.046-2.534-4.261Zm120.429-8.474c2.455-3.049,3.98-5.32,5.876-7.226,4.352-4.376,8.649-3.561,11.925,1.8-2.681,1.617-5.371,3.237-9,5.428Zm65.534,1.713c-8.936,1.048-17.821,1.887-26.4-1.637C1311.394,1485.6,1320.252,1485.3,1328.809,1490.036ZM845.214,1707.566c-6.9,3.627-14.111,4.495-20.872-.287-6.687-4.73-6.7-11.862-5.786-19.831C821.428,1705.234,828.831,1710.565,845.214,1707.566Zm445.715-213.938.9.411a31.964,31.964,0,0,0-1.256,4.769,54.222,54.222,0,0,0-.047,5.86c-.037,8.843-1.4,10.185-10.261,10.082a21.019,21.019,0,0,1-2.457-.314c5.993-1.668,8.8-5.844,10.143-11.3.323-1.313.075-2.79.5-4.052A54.574,54.574,0,0,1,1290.929,1493.628Zm-115.01,23.732c-3.431,2.531-4.651,6.245-9.009,6.621.253-3.758.483-7.119.728-10.762Zm-5.427-66.082-.35.319c-1.25-5.177-2.5-10.352-3.735-15.471,3.1-1.1,4.036.087,4.066,2.243C1170.536,1442.672,1170.493,1446.975,1170.493,1451.278Zm-36.192,66.211-1.446.125-3.213-4.806c2.145-2.269,4.072-4.307,6-6.347l.786.4Q1135.363,1512.173,1134.3,1517.489Z" transform="translate(-308.794 -1398.696)" fill="#0b3d41"/>
    <path id="Union_8" data-name="Union 8" d="M229.98.408c-31.944,1.143-63.249,6.16-93.086,18.161a195.519,195.519,0,0,0-53.8,32.936c-20.842,17.7-36.352,39.262-48.762,63.329-13.6,26.374-22.19,54.385-26.992,83.552-2.142,13-3.639,26.125-4.895,39.246C1.261,249.977.741,262.387.028,274.772a58.649,58.649,0,0,0,.34,6.7c11.449-.791,22.208-1.532,33.274-2.3a17.663,17.663,0,0,0,.573-2.763c.476-9.449.6-18.925,1.4-28.346,2.5-29.485,5.986-58.781,15.964-86.947,6.8-19.183,16.213-36.833,29.131-52.532A233.4,233.4,0,0,1,100.1,87.079a187.285,187.285,0,0,1,91-48.059c21.829-4.677,43.891-4.909,66.03-4.64a365.064,365.064,0,0,1,80.947,9.565c25.6,6.139,48.818,17.438,68.533,34.819,16.9,14.9,31.949,31.586,43.749,51.08,15.259,25.21,26.214,52.1,33.945,80.454,4.727,17.345,8.575,34.9,10.412,52.729,1.472,14.283,1.556,28.746,1.624,43.132a247.264,247.264,0,0,1-17.987,94.119c-9.39,23.374-21.414,45.367-37.664,64.748-14.872,17.737-30.977,34.255-50.926,46.51a40.686,40.686,0,0,0-3.319,2.535c3.4,7.359,6.613,14.557,10.035,21.66,2.072,4.3,2.774,4.437,7.421,2.329a158,158,0,0,0,33.929-20.422c18.236-14.646,32.715-32.418,44.543-52.528,15.919-27.064,25.449-56.4,31.376-86.991,2.883-14.873,5.064-29.895,7.024-44.92,1.066-8.183,1.136-16.507,1.415-24.776.223-6.513-.013-13.037.121-19.553.509-24.957-2.395-49.587-7.512-73.946-5.415-25.783-13.528-50.748-25.62-74.215a295.466,295.466,0,0,0-39.254-58.268,264.31,264.31,0,0,0-78.548-61.97C354.128,11.5,335.9,4.924,316.392,2.887,304.634,1.658,292.817.643,281.007.359,272.1.143,263.188,0,254.277,0,246.173,0,238.072.118,229.98.408ZM402.113,34.152a29.322,29.322,0,0,0,2.412,2.471c9.77,7.982,19.819,15.642,29.3,23.953,21.152,18.544,37.219,41.131,51.259,65.314,9.862,16.991,17.422,35.012,23.869,53.454a298.267,298.267,0,0,1,13.371,55.713c1.928,13.252,3.659,26.517,3.682,39.956.005,4.115,1.081,8.247.922,12.342-.515,13.373-1.127,26.756-2.174,40.1-.864,10.973-1.969,21.962-3.718,32.823-4.4,27.336-11.027,54.084-22.3,79.535-6.087,13.742-12.455,27.327-21.113,39.673-7.822,11.151-16.019,22.025-25.935,31.465-14.319,13.638-30.868,23.88-48.926,31.76-5.452,2.379-6.114,2.024-8.684-3.2-2.263-4.606-4.318-9.312-6.509-13.952-1.424-3.012-2.934-5.986-4.544-9.262-6.789,3.084-13.151,6.162-19.655,8.89-17.937,7.523-36.434,13.217-55.948,14.4-14.175.856-28.479,1.795-42.6.853-22.523-1.5-44.395-6.807-65.688-14.538a304.276,304.276,0,0,1-53.5-25.319,259.481,259.481,0,0,1-42.356-31.186c-11.548-10.656-21.834-22.238-30.144-35.5a233.965,233.965,0,0,1-19.852-40.98A240.416,240.416,0,0,1,39.4,338.594a192.553,192.553,0,0,1-.287-50.73c.482-3.646,1.147-4.385,4.914-4.471a143.5,143.5,0,0,1,14.828.176,30.618,30.618,0,0,1,15.44,5.374c8.58,5.986,17.492,11.5,26.3,17.164,1.629,1.049,3.41,1.87,5.977,3.257.867-5.4,1.656-10.15,2.389-14.91.954-6.21.935-6.3,7.442-6.249q65.235.547,130.471,1.127c3.025.023,5.066.774,6.72,3.655,4.4,7.647,7.617,8.881,15.989,6.965,2.122-.486,3.96-.82,6.176.463,2.438,1.416,4.822.032,5.322-2.632a55.34,55.34,0,0,0,1.266-9.928c.016-5.786-2.434-10.4-8.066-12.618-5.431-2.141-10.989-2.52-15.533,1.826-5.078,4.859-10.991,6.494-17.816,6.429-5.99-.053-11.983.008-17.974.066-10.238.1-20.474.206-30.683-.264-25.634-1.175-51.273-1.058-76.908-.938-15.877.073-31.753.146-47.626-.089a39.906,39.906,0,0,1-4.692-.429c-.308-.041-.561-.5-1.446-1.342.862-1.018,1.567-2.37,2.681-3.082q7.734-4.938,15.67-9.57c7.841-4.585,15.745-9.07,23.639-13.566a36.041,36.041,0,0,1,3.349-1.474c4.35,5.838,4.412,12.613,5.249,19.646,2.995,0,5.712.109,8.416-.025,4.131-.2,8.253-.822,12.381-.838,22.947-.082,45.9-.276,68.837.059,12.216.176,24.414,1.357,36.62,2.055.9.053,1.811.05,2.719.048a32.951,32.951,0,0,1,3.8.141c4.036.47,7.074-.774,9.962-3.8,7.143-7.474,21.6-8.52,30.279-.591,4.925,4.5,6.586,10.681,6.218,17.194a20.748,20.748,0,0,1-4.453,12.036c-2.4,2.981-2.268,5.988-.484,9.339,5.573,10.457,11.187,20.9,16.361,31.554,6.552,13.489,12.69,27.181,19.011,40.786.9,1.939,1.827,3.871,2.931,6.209l12.164-3.437c.139,2.74.328,4.838.331,6.935.016,9.875.03,19.751-.061,29.626a22,22,0,0,0,3.009,11.235c10.256,18.46,20.267,37.059,30.411,55.582,3.792,6.923,7.7,13.785,11.589,20.652a23.615,23.615,0,0,0,2.073,2.6,57.673,57.673,0,0,0,5.819-2.954c10.911-7.17,21.546-14.733,30.487-24.33a281.514,281.514,0,0,0,38.551-51.5,244.388,244.388,0,0,0,33.361-110.56c.673-10.024,1.266-20.1.979-30.129a281.63,281.63,0,0,0-5.156-45.738,427.125,427.125,0,0,0-15.061-57.163c-10.186-29.738-24.747-57.293-44.653-81.705a173.765,173.765,0,0,0-48.663-40.957C361.38,54.111,341.35,47.828,320.4,44.12c-14.757-2.614-29.569-4.727-44.616-4.918-14.013-.178-28.023-1.109-42.03-1.028-27.357.157-53.737,5.3-78.744,16.733a209.33,209.33,0,0,0-48.121,30.961c-16.249,13.728-28.6,30.315-38.986,48.7-12.016,21.281-18.912,44.2-22.747,68.1-2.115,13.188-3.5,26.512-4.77,39.817-1.122,11.749-1.658,23.558-2.388,35.343-.31,4.959-.842,5.7-6.125,5.632a152.7,152.7,0,0,0-29.435,2.494,13.225,13.225,0,0,0-2.064.855c.05,6.9-.835,13.792,1.467,20.839,2.064,6.319,2.737,13.083,4.2,19.609A25.887,25.887,0,0,0,8.422,333.8c5.593,10.421,11.673,20.593,16.884,31.195A52.4,52.4,0,0,1,30.863,389c-.173,10.437-.495,20.882-1.138,31.3a38.352,38.352,0,0,0,3.036,18.476,143.783,143.783,0,0,0,24.53,37.512c4.889,5.42,9.725,10.911,14.951,16a280.68,280.68,0,0,0,57.889,42.862,333.613,333.613,0,0,0,57.272,25.6c17.235,5.868,35.04,9.328,53.064,11.97,21.459,3.146,43.051,3.278,64.482,1.843,31.713-2.126,62.394-9.225,91.185-23.536,15.108-7.51,29.6-15.888,42.652-26.5a209.925,209.925,0,0,0,26.734-25.912,243.743,243.743,0,0,0,36.206-55.991,294.617,294.617,0,0,0,22.687-71.441c2.836-15.277,5.01-30.687,7.06-46.1.983-7.4.963-14.933,1.446-22.4.242-3.729.666-7.448.864-11.18a62.776,62.776,0,0,0-.068-7.087c-.153-2.549-.5-5.087-.771-7.628-1.277-11.935-2.11-23.935-3.933-35.782a353,353,0,0,0-15.6-61.271c-11.151-32.314-26.768-62.335-47.735-89.456a250.9,250.9,0,0,0-29.3-31.718A210.162,210.162,0,0,0,404.8,34.654a3.492,3.492,0,0,0-1.956-.552A5.811,5.811,0,0,0,402.113,34.152Zm-331.9,244.1c3.121.144,5.082.31,7.04.313q74.391.1,148.787.207c5.11.013,10.216.687,15.333.856a32.661,32.661,0,0,0,5.491-.733l-.143-.814c-6.2-.549-12.407-1.474-18.62-1.578q-47.961-.79-95.929-1.177c-6.287-.052-12.576.838-18.868.969-4.414.091-5.185-.753-5.292-5.158-.116-4.75-.539-9.382-2.781-14.329Zm189.979-7.435c16.382-3,23.784,2.332,26.658,20.118.913-7.97.9-15.1-5.787-19.831a17.022,17.022,0,0,0-10.022-3.3A23.487,23.487,0,0,0,260.187,270.814Zm-216.923,16.8c-.557,4.782-1.447,9.595-1.629,14.434-1.327,35.533,6.342,69.279,20.37,101.786,5.495,12.734,11.723,25.044,19.785,36.34a180.951,180.951,0,0,0,31.548,33.438c19.733,16.532,41.842,29.02,65.02,39.739a274.143,274.143,0,0,0,64.819,20.321,228.96,228.96,0,0,0,54.846,3.2,176.56,176.56,0,0,0,57.562-12.686c8.379-3.429,16.968-6.506,24.971-12.1-8.933-16.149-17.677-31.81-26.271-47.557-5.106-9.356-9.878-18.9-15.024-28.237a20.545,20.545,0,0,0-5.22-6.16c-11.534-8.94-23.235-17.664-34.839-26.517a38.627,38.627,0,0,1-3.716-3.873l11.426-7.585c-.782-1.777-1.483-3.572-2.343-5.288C297.6,372.9,290.484,359,283.644,344.975c-5.276-10.82-10.281-21.775-15.277-32.729a15.4,15.4,0,0,0-8.041-8.13c-3.26-1.514-6.023-4.389-8.543-7.09-1.757-1.884-3.358-2.934-6.009-2.977-14.8-.246-29.609-.869-44.416-.976-26.9-.194-53.8-.114-80.7-.149-2.32,0-4.642,0-7.41,0-.63,3.476-1.182,6.332-1.654,9.2-.447,2.715-.694,5.47-1.237,8.164-.86,4.277-2.12,4.738-6.047,2.32q-9.086-5.59-18.118-11.26c-5.678-3.584-11.292-7.27-16.963-10.868-1.157-.737-2.4-1.739-3.668-1.832-5.311-.386-10.592-1.608-16.159-1.608A31.523,31.523,0,0,0,43.264,287.611Z" transform="translate(796.607 579.684) rotate(180)" fill="#fff" stroke="rgba(0,0,0,0)" stroke-width="1"/>
    <path id="Union_7" data-name="Union 7" d="M4.232,6.622l8.283,4.141c.244-3.643.474-7,.726-10.763C8.885.377,7.663,4.092,4.232,6.622Zm41.619-.128q-1.063,5.315-2.126,10.628l.787.4c1.927-2.039,3.853-4.078,6-6.346L47.3,6.369ZM1.476,30.909c-.468,2.311-.81,4.646-1.182,6.974a23.808,23.808,0,0,0,2,13.826C4.7,57.076,6.85,62.56,8.942,67.593c.452-5.258.825-11.018,1.471-16.747.7-6.173,2.608-8.194,8.488-9.647,4.779-1.179,5.719-2.875,3.809-7.45-1.043-2.5-1.966-5.124-5.361-5.7-2.626-.447-2.9-2.922-3.226-5.085C13.5,18.934,12.1,15.341,8.523,13a11.42,11.42,0,0,0-2.382-.837C2.213,18.273,2.713,24.8,1.476,30.909Zm48.56-13.681c-1.282,1.978-2.473,4.018-3.671,6.05-.7,1.186-1.045,2.77-2.042,3.56-5.213,4.12-5.16,10.03-4.951,15.6.206,5.6.751,11.44,5.749,15.5,2.2,1.784,2.491,4.307,2.083,7-.671,4.456-1.433,8.915-1.77,13.4a16.236,16.236,0,0,0,1,6.31c1.175,3.4,2.35,3.863,5.8,2.906,1.519-.422,2.984-1.027,4.5-1.457,3.675-1.038,6.39-2.929,6.793-7.1a5.1,5.1,0,0,1,.71-2.238c6.33-9.75,6.091-20.93,6.874-31.846.308-4.291,2.682-7.276,5.2-10.3,1.115-1.34,2.377-2.558,4.364-4.676-7.485,1.108-12.693-1.243-17.217-5.363-2.767-2.521-5.307-5.283-8.012-7.87a4.044,4.044,0,0,0-2.686-1.34A3.362,3.362,0,0,0,50.036,17.229ZM24.825,29.9c2.2,3.757,1.672,11.068,10.279,10.06.675-3.914,1.369-7.943,2.2-12.777l-5.564.933c-.911-1.535-1.786-3.006-2.534-4.263ZM9.659,72.7c0,4.3-.043,8.605.02,12.909.03,2.156.969,3.342,4.067,2.243C12.51,82.738,11.26,77.564,10.01,72.387ZM39.146,99.231c-7.92,1.184-16,1.278-24.028,1.853,3.52,11.312,18.343,18.029,31.582,14.387,11.7-3.221,18.594-12.155,16.418-21.6C54.843,95.768,47.076,98.043,39.146,99.231Z" transform="translate(871.358 125.286) rotate(180)" fill="#fff" stroke="rgba(0,0,0,0)" stroke-width="1"/>
    <g id="Group_10" data-name="Group 10" transform="translate(462.46 157.196)">
      <path id="Path_91" data-name="Path 91" d="M717.128,1592.178c-12.184-29.244-28.146-56.713-41.525-85.859,3.7-1.867,6.952-3.51,11.027-5.567-9.741-8.809-19.878-15.7-30.353-22.6.864,1.884,1.664,3.8,2.6,5.646,12.756,25.152,25.621,50.25,38.251,75.467,4.764,9.514,8.979,19.3,13.469,28.959a19.911,19.911,0,0,0,2.518,4.663c.58.674,2.111.536,3.213.766Z" transform="translate(-653.764 -1478.155)" fill="#9fc" stroke="rgba(0,0,0,0)" stroke-width="1"/>
      <path id="Path_92" data-name="Path 92" d="M715.451,1592.136a21.323,21.323,0,0,0-.847-3.664c-1.527-3.632-3.086-7.257-4.829-10.789q-23.3-47.23-46.69-94.426a25.467,25.467,0,0,0-1.538-2.221c-.34,9.8-.653,18.789-.987,28.419,2.679-.7,5.086-1.321,7.494-1.95,3.622-.947,4.519-.623,6.012,2.7,4.2,9.345,8.182,18.792,12.521,28.07,3.581,7.659,7.545,15.14,11.349,22.7q7.057,14.009,14.153,28a36.486,36.486,0,0,0,2.4,3.6Z" transform="translate(-660.56 -1475.335)" fill="#9fc" stroke="rgba(0,0,0,0)" stroke-width="1"/>
    </g>
  </g>
</svg>
