<svg xmlns="http://www.w3.org/2000/svg" xmlns:xlink="http://www.w3.org/1999/xlink" width="762.028" height="353.559" viewBox="0 0 762.028 353.559">
  <defs>
    <linearGradient id="linear-gradient" x1="0.5" x2="0.205" y2="1" gradientUnits="objectBoundingBox">
      <stop offset="0" stop-color="#9fc"/>
      <stop offset="1" stop-color="#0b3d41"/>
    </linearGradient>
  </defs>
  <g id="Illustration_" data-name="Illustration " transform="translate(50)">
    <path id="Path_2" data-name="Path 2" d="M7.833,1242.063c58.757-.542,139.124-1.079,197.49-1.617.046.3.092.6.138.9a19.57,19.57,0,0,1-3.124.557c-11.735.214-45.471.43-57.207.547q-42.223.424-84.446.765c-16.193.145-32.388.5-48.579.358-9.961-.085-19.858,1.6-29.824.734-2.228-.195-4.9.35-5.761-2.516-.827-2.76,1.156-4.523,3.078-5.935a53.894,53.894,0,0,1,5.672-3.271l-14.461-3.908a27.91,27.91,0,0,1-15.318,13.156,23.642,23.642,0,0,1-6.3,1.53c-4.643.368-6.84-2.838-5.086-7.157a17.752,17.752,0,0,1,7.62-8.648c.92-.552,1.873-1.048,2.492-1.391-1.115-2.413-2.133-4.721-3.239-6.987-6.592-13.513-11.549-27.632-15.874-42.011-2.819-9.371-2.071-18.679-.362-28.041q4.882-26.749,9.841-53.484a7.71,7.71,0,0,0,.219-1.282c.122-14.216,1.09-28.472-1.9-42.547-.248-1.167-.565-2.319-.883-3.469-.05-.182-.279-.313-.681-.739-.727.728-1.473,1.424-2.163,2.172a80.147,80.147,0,0,1-22.122,16.977c-4.3,2.238-8.531,2.619-12.775.347-6.787-3.633-13.476-7.445-20.189-11.217-1.026-.576-1.946-1.34-3.122-2.161,0,3.335-.041,6.4.016,9.465.03,1.564-.141,2.8-2.09,2.994-1.695.166-2.687-.206-2.723-2.188-.059-3.257-.351-6.508-.448-9.764a4.415,4.415,0,0,0-1.841-3.848c-3.107-2.352-3.086-3.574-1.128-7.158,2.136-3.909,3.482-8.041,3-12.632-.227-2.148.616-4.764-.35-6.373-.809-1.347-3.553-1.512-5.422-2.246a21.444,21.444,0,0,1-13.057-13.659c-.308-.907-.607-1.816-.973-2.913-5.426,1.221-10.7,2.4-15.969,3.594q-16.194,3.659-32.386,7.315c-2.156.485-3.565,1.2-3.739,3.949-.227,3.583-3.025,5.675-6.694,5.852-.857.042-1.717.005-2.779.005-8.618,28.289-17.213,56.506-25.888,84.978a2.673,2.673,0,0,0,.637.655c5.331,3.355,5.443,10.012,1.878,14.195-3.79,4.447-11.078,5.115-15.137.9-2.133-2.214-4.16-2.436-6.889-2.205-8.009.676-16.038,1.112-24.061,1.615q-17.4,1.094-34.809,2.131c-1.689.1-2.738.531-3.3,2.375-1.346,4.376-4.7,6.5-9.092,6.54a4.5,4.5,0,0,0-4.348,2.572c-12.143,20.2-24.428,40.326-36.486,60.581-8,13.441-15.744,27.036-23.478,40.631a4.867,4.867,0,0,1-4.894,2.8q-24.617-.119-49.237,0c-20.65.108-91.3.328-111.949.5-1.251.01-2.5,0-3.755,0l-.13-1.085a20.839,20.839,0,0,1,3.032-.48c13.258-.184,76.516-.409,89.775-.463q35.7-.145,71.41-.068a4.835,4.835,0,0,0,4.894-2.763c19.158-34.1,39.233-67.661,59.836-100.906.4-.637.741-1.307,1.157-2.047-.791-.863-1.57-1.606-2.224-2.446-3.568-4.58-2.453-12.568,4.648-13.733,5.051-.828,7.812-.164,9.97,4.111,1.027,2.036,2.231,2.5,4.309,2.357,14.419-1,28.844-1.919,43.267-2.859,5.2-.339,10.411-.663,15.615-1,1.174-.076,2.345-.189,3.568-.29a48.449,48.449,0,0,1,.334-5.031c.926-5.391,6.252-9.511,11.147-7.459,2.183.915,2.632-.717,3.116-2.176,2.8-8.454,5.729-16.872,8.341-25.385,5.511-17.963,10.849-35.978,16.277-53.966.451-1.5.6-2.671-.579-4.13-2.9-3.578-2.438-8.215.734-10.783,3.339-2.7,7.376-2.2,10.66,1.33a5.017,5.017,0,0,1,.433.558c9.759-2.22,19.266-4.39,28.778-6.543,7.306-1.652,14.608-3.329,21.932-4.894,2.082-.446,3-1.241,3.144-3.614.729-12.437,9.163-21.717,21.447-23.307,8.817-1.14,16.223,1.96,21.907,8.9.612.747,1.159,1.55,2.076,2.785l52.083-31.022a22.444,22.444,0,0,1-.331-2.3,18.973,18.973,0,0,1,0-4.506c.925-4.453,5.2-8.024,9.18-7.913a9.851,9.851,0,0,1,8.927,8.565c.262,2.812,1.4,3.544,3.928,3.893,18.939,2.621,37.86,5.362,56.784,8.086,6.554.944,13.1,1.956,19.652,2.917,1.265.186,2.543.276,4.05.435.307-4.666,2.084-8.2,6.442-9.87,4.325-1.657,8.082-.352,11.475,2.807,2.751-2.512,5.322-4.825,7.855-7.177,12.66-11.754,25.281-23.55,37.995-35.245,1.908-1.756,2.851-3.343,1.524-5.862a15.739,15.739,0,0,1-1.074-3.746c-1.331-5.652-.421-10.71,4.582-14.211,5.193-3.635,10.756-3.725,16.307-.7A13.87,13.87,0,0,1,148.47,907a12.476,12.476,0,0,1-9.513,10.425,12.068,12.068,0,0,1-11.116-2.721c-2.238,2-4.457,3.887-6.569,5.888q-21.052,19.96-42.091,39.935c-1.708,1.612-2.481,3.053-1.991,5.6.857,4.442-1.038,8.1-4.726,10.69a8.274,8.274,0,0,1-9.518.514,11.5,11.5,0,0,1-4.186-4.328,4.323,4.323,0,0,0-3.625-2.622c-16.052-2.731-32.075-5.646-48.142-8.277-10.822-1.772-21.705-3.168-32.56-4.742-1.2-.175-2.106-.236-3.049,1.026-4.016,5.375-9.729,6.315-15.478,2.775-.459-.283-.912-.577-1.518-.961q-1.359.832-2.726,1.669C-63.516,971.205-78.661,980.59-93.91,989.8c-2.158,1.3-2.92,2.533-2.794,5.107.646,13.214-6.388,23.327-18.9,27.624-3.257,1.118-3.259,1.118-3.08,4.6a12.888,12.888,0,0,1,.14,2.273c-.8,6.052,1.3,10.785,6.191,13.808a40.3,40.3,0,0,1,6.378.86c6.433,1.943,12.8,4.106,19.1,6.157a121.531,121.531,0,0,0,17.906-21,19.2,19.2,0,0,0,3.477-10.571c.206-5.247,1.681-10.451,2.7-15.655.521-2.66,1.248-5.279,1.875-7.919.324-1.365.817-2.682-.717-3.821-.387-.287-.311-1.564-.071-2.254.483-1.381,1.4-2.616,1.834-4.006,1.933-6.171,10.634-11.471,17.457-10.51,3.738.527,7.273,1.41,9.346,5.089.313.557,1.305.688,1.813,1.189a21.22,21.22,0,0,1,2.309,2.757c.292.408.186,1.1.484,1.5,2.939,3.922,4.209,8.553,5.575,13.125a31.307,31.307,0,0,0,9.966,14.972c7.706,6.645,15.32,13.4,23.02,20.054a33.855,33.855,0,0,1,10.222,14.849c4.251,12.437,8.435,24.9,12.814,37.288.924,2.614-.061,3.811-2.382,4.63,2.238,4.7,4.456,9.171,6.472,13.73.517,1.169,1,3.183.423,3.807A5.694,5.694,0,0,1,33.6,1108.7c-4.31-.226-14.2-7.727-14.8-11.958-1.228-8.673-5.833-16.286-7.182-24.873-.436-2.783-1.107-5.531-1.743-8.281a18.118,18.118,0,0,0-6.833-10.772c-2.316-1.749-4.492-3.686-7.171-5.9.325,4.667.38,8.853.949,12.967,1.871,13.541,4.04,27.041,5.882,40.586a141.418,141.418,0,0,1,.008,38c-.807,6.025-1.58,12.06-2.1,18.114-.63,7.349.794,14.531,2.707,21.557a111.491,111.491,0,0,1,3.594,30.618c-.065,6.932.381,13.869.613,20.8a5.857,5.857,0,0,0,.244,1.606C9.529,1236.582,9.535,1236.58,7.833,1242.063Zm-62.565-188.509c1.942,12.371,1.627,24.751,1.411,37.124a35.815,35.815,0,0,1-.582,5.823q-4.868,26.431-9.833,52.843c-1.9,10.06-2.187,19.96,1.051,29.912,4.409,13.549,9.113,26.956,15.417,39.758a21.776,21.776,0,0,1,1.018,2.4c1.068,3.053,2.052,3.916,5.291,3.3,4.388-.841,7.966-.559,12.195,1.986,6.249,3.762,13.7,4.809,21.126,3.68,3.641-.552,7.219-1.515,10.833-2.256,1.944-.4,2.377-1.448,1.856-3.317-3.933-14.1-4.94-28.889-10.2-42.68a18.56,18.56,0,0,1-1.1-5.412q-.672-11.049-1.093-22.111a57.018,57.018,0,0,0-17.225-39.3c-3.218-3.233-6.557-6.346-9.87-9.483a39.319,39.319,0,0,1-11.611-21.069c-.93-4.465-1.7-8.963-2.6-13.435A66.824,66.824,0,0,0-54.732,1053.553Zm-10.336-26.407-19.458,23.98,2.631,2.043a25.11,25.11,0,0,0,2.888-1.869c2.055-1.771,3.953-3.727,6.05-5.445a42.851,42.851,0,0,1,7.038-5.157c3.255-1.692,7.759.109,9.175,3.26,1.1,2.442,1.941,5.008,3.132,7.4,4.612,9.265,6.83,19.206,8.385,29.324,1.632,10.611,6.151,19.586,14.409,26.6,2.4,2.038,4.634,4.27,6.9,6.462,9.431,9.137,15.525,20.147,17.46,33.127.939,6.3.868,12.766,1.035,19.162.2,7.661,1.15,15.127,4.085,22.293a41.9,41.9,0,0,1,2.065,7.51c.913,4.459,1.593,8.964,2.468,13.43.5,2.56,1.2,5.08,1.9,8.03a125.491,125.491,0,0,0-4.288-43.063,56.546,56.546,0,0,1-1.337-22.95c.981-7.538,2.052-15.079,2.592-22.653a141.658,141.658,0,0,0-2.939-39.843,248.773,248.773,0,0,1-4.565-36.5c-.274-4.379-.878-8.664-4.084-12.086-.329-.351-.26-1.074-.375-1.624a4.434,4.434,0,0,1,2.317,1.332c3.624,3.718,6.959,7.774,10.908,11.1a24.646,24.646,0,0,1,8.434,13.862c1.7,7.276,3.807,14.459,5.851,21.651a45.532,45.532,0,0,0,2.289,5.321c3.31-1.144,6.34-2.286,9.431-3.228,2.177-.663,2.572-1.755,1.844-3.878-4.085-11.912-7.9-23.919-12.149-35.772a31.191,31.191,0,0,0-5.645-10.156c-7.178-8.051-15.7-14.669-24.533-20.826a9.777,9.777,0,0,0-6.081-1.648,108.5,108.5,0,0,0-12.025,2.457c-3.734.82-4.334,1.287-4.044,4.973.553,7.019,1.44,14.01,2.132,21.018a10.245,10.245,0,0,1-.136,3.814c-.209.7-1.31,1.141-2.01,1.7-.349-.717-.974-1.424-1-2.153-.137-3.689.059-7.4-.2-11.075-.364-5.267-1.019-10.513-1.573-15.992-3.069.5-4.671-.81-6.107-3.368-1.638.944-3.144,1.8-4.635,2.674-1.935,1.138-3.866,2.281-5.785,3.447a37.962,37.962,0,0,0-4.908,3.106C-61.136,1029.986-61.571,1030.07-65.068,1027.147Zm-51.206,26.721a96.465,96.465,0,0,0,23.017,12.482,10.331,10.331,0,0,0,8.233-.392A69.375,69.375,0,0,0-60.466,1047c.724-.872,1.736-1.719.888-3.144s-2.018-2.546-3.658-2.176a14.1,14.1,0,0,0-5.013,2.1,51.608,51.608,0,0,0-5.815,5.21,29.5,29.5,0,0,1-12.056,7.5,5.071,5.071,0,0,1-5.357-1.026c-5.768-4.947-12.76-7.111-20.05-8.4Zm82.4-41.111c-1.186,3.029-4.256,3.279-6.064,5.187.967,2.717,3.934.581,4.99,2.451,3.3-4.023,8.476-2.952,11.64-5.133a45.263,45.263,0,0,1-5.717-3.468,26.952,26.952,0,0,1-9.907-17.728,9.292,9.292,0,0,0-1.16-3.642c-.958-1.489-2.37-1.211-3.165.412-1.443,2.948-1.823,3.11-5,2.4-.929-.208-2.466-.671-2.751-.289-1.766,2.357-4.4,1.312-6.9,1.911a20.075,20.075,0,0,0,.651,3.185c1.968,5.156,3.821,10.37,6.088,15.4,2.046,4.535,6.966,5.2,10.587,1.7A8.361,8.361,0,0,1-33.874,1012.756Zm19.686,1.584a2.409,2.409,0,0,0-.41-.653c-5.634-4.856-8.777-11.125-10.732-18.192a56.108,56.108,0,0,0-3.514-8.35c-.825-1.783-2.314-2.3-4.3-2.113a82.258,82.258,0,0,0-22.715,5.359c-.932.372-1.8.9-3.375,1.689,2.548.9,4.312,1.45,5.913.178a5.065,5.065,0,0,1,5.192-.737c1.658.565,2.725.445,3.506-1.537,1.156-2.938,4.349-3.1,5.954-.356a12.111,12.111,0,0,1,1.268,4.3,25.894,25.894,0,0,0,10.448,17.7,8.448,8.448,0,0,0,3.467,1.594C-20.414,1013.744-17.3,1013.986-14.188,1014.34Zm139.052-99.476c2.516-1.366,1.12-2.641.669-3.832-2-5.266,1.146-10.969,6.437-11.629a5.241,5.241,0,0,1,5.3,2.431c1.019,1.849.679,3.8-1.112,5.61-.756.763-1.711,1.326-2.536,2.028-1.448,1.234-2.867,2.5-4.306,3.766,4.8,4.928,13.36,3.308,16.469-2.819a11.73,11.73,0,0,0-.828-12.375c-2.76-4.167-7-5.768-11.856-5.358-5.537.469-9.736,3.717-10.612,8.153C121.53,905.7,122.757,910.244,124.865,914.865Zm-260.714,90.4a17.186,17.186,0,0,0,.731,2.059,15.571,15.571,0,0,0,1.367,2.2,15.369,15.369,0,0,0,18.56,5.054c6.263-2.659,10.834-10.862,9.835-18.14-2.9,1.025-6.3.683-8.137,3.852-3.333,5.742-7.041,6.91-12.945,4.056a5.062,5.062,0,0,0-2.689-.752C-131.338,1003.961-133.5,1004.652-135.849,1005.26Zm126.1,237.67c3.4-.189,7.2-.3,10.968-.682a3.9,3.9,0,0,0,2.7-1.673,26.155,26.155,0,0,0,1.71-5.206c.916-3.282.3-4.212-3.116-4.258a40.249,40.249,0,0,0-19.766,4.58,15.634,15.634,0,0,0-3.805,2.982,3.148,3.148,0,0,0-.882,2.56c.212.609,1.506,1.107,2.363,1.181C-16.446,1242.686-13.3,1242.761-9.748,1242.93Zm-21.022-14.688c-10.409-4.789-19.3.6-22.607,6.5-.975,1.74-2.5,3.707-1,5.71,1.439,1.931,3.791,1.377,5.762.935a27.391,27.391,0,0,0,15.734-9.733A32.907,32.907,0,0,0-30.77,1228.241Zm-33.024-204.852,14.733-4.558c-5.873-6.019-7.514-13.961-10.473-22C-61.66,1005.958-65.167,1014.215-63.794,1023.389Zm-71.19-25.29c3.879.973,5.1.344,6.115-3.143,1.546-5.323,9.07-7.473,13.345-3.87.742.626,1.944,1.45,2.645,1.237a49.951,49.951,0,0,0,6.112-2.705c-3.666-5.058-9.521-6.791-15.749-5.014C-129.05,986.467-134.549,992.419-134.984,998.1Zm100.448-17.434c-2.5-4.219-7.923-5.781-13.429-4.135-6.131,1.833-10.248,6.07-9.966,10.327Zm-103.65,23.863c-.628,6.983,4.522,13.993,12.078,14.053a13.538,13.538,0,0,1,2.761.741,10.661,10.661,0,0,0,3.317.628c9.743-1.014,17.857-9.613,18.548-19.662.165-2.413.5-4.932-1.138-7.169-.407,1.336-.4,2.71-.7,4.015-.789,3.461-1.214,7.119-2.674,10.291a16.691,16.691,0,0,1-22.732,8.148A18.086,18.086,0,0,1-138.186,1004.529Zm162.408,92.353c2.707,1.376,3.834,2.981,3.626,5.436a3.737,3.737,0,0,0,.022,1.821c1.2,2.383,5.861,3.6,8.85,2.137-2.15-4.468-4.255-8.971-6.515-13.394a2.448,2.448,0,0,0-2.085-.979c-2.725.575-5.4,1.4-7.994,2.112.079,3.678.805,4.879,4.1,6.941Zm-145.516-92.639a6.64,6.64,0,0,0,6.509-4.866c.259-1.014.517-2.4.04-3.137-.62-.963-1.969-1.46-3.013-2.143-2.508-1.643-4.445-1.586-6.808.184-2.25,1.685-3.433,4.68-2.7,6.822C-126.667,1002.832-123.979,1004.246-121.295,1004.243Zm21.644-14.467c-3.742-8.886-16.186-13.458-26.636-9.916-9.028,3.059-16.476,14.221-14.28,22.236.327-1.421.552-2.315.739-3.217a24.178,24.178,0,0,1,7.275-13.2c5.439-5.028,11.8-6.754,19-4.738a18.836,18.836,0,0,1,11.058,8.1C-101.848,990.049-101.29,991.31-99.65,989.776Zm-144.222,134.876a8.758,8.758,0,0,0,10.118,2.747,8.383,8.383,0,0,0,5.524-7.714c.121-3.106-1.259-5.222-4.736-6.664-.276,2.338-.648,4.526-.762,6.729a2.988,2.988,0,0,1-2.622,3.157C-238.772,1123.437-241.184,1124.025-243.872,1124.652ZM73.192,961.345c-3.48-3.423-6.912-4.014-10.6-2.067-3.221,1.7-4.37,4.215-3.644,8.328,2.238.417,4.57.822,6.89,1.294,2.146.435,3.675-.219,4.785-2.608-1.163.391-2.018.987-2.74.854a8.473,8.473,0,0,1-3.662-1.495,2.63,2.63,0,0,1-.133-2.538,6.871,6.871,0,0,1,3.669-1.345c1.081-.026,2.183.788,3.46,1.305ZM128.1,911.819c2.355-1.8,4.708-3.492,6.929-5.343,1.136-.946,1.964-2.461.857-3.712a5.231,5.231,0,0,0-3.553-1.62,5.727,5.727,0,0,0-5.227,3.815A5.9,5.9,0,0,0,128.1,911.819Zm-452.677,210.831c-2.689.32-3.97,1.521-4.421,4.335a6.644,6.644,0,0,0,3.837,7.637l3.706-6.009Zm199.867-80.441c-.393.628-.668,1.091-.966,1.539-1.97,2.97-1.712,4.581,1.476,6.083a29.262,29.262,0,0,0,6.4,1.83c1.483.316,2.022-.731,2.307-2.31C-119.89,1048.65-119.8,1042.57-124.708,1042.208Zm92.075-95.691c-3.841-2.158-6.73-1.847-9.256.693-2.623,2.638-3.232,6.128-1.456,9.2l4.558-2.909C-38.879,948.714-37.73,947.347-32.634,946.517Zm-165.074,72.15a40.968,40.968,0,0,1-5.164-.407c-2.366-.489-3.873.068-4.414,1.978-.484,1.7.72,3.51,2.735,4.106C-200.821,1025.45-197.69,1022.864-197.708,1018.667Zm272.377-54.2a21.848,21.848,0,0,0-1.9,3.922c-1.013,4.2-3.9,6.462-8.23,6.169-.961-.064-1.914-.255-3.232-.436,3.48,3.265,7.419,3.631,10.616,1.285A8.987,8.987,0,0,0,74.669,964.47Zm-184.651,80.506c.295.445.372.706.529.769a9.476,9.476,0,0,0,1.546.478,40.242,40.242,0,0,1,17.775,8.346c1.465,1.223,2.675.822,4.611-.277-1.182-1.115-1.969-2.417-3.075-2.807-6.334-2.225-12.74-4.245-19.134-6.294A11.212,11.212,0,0,0-109.982,1044.976Zm-213.4,90.626c5.158.385,8.414-2.2,8.3-6.343C-319.851,1128.352-321.045,1129.242-323.384,1135.6Zm82.663-23.1c-.169-.1-.391-.336-.5-.292-2.825,1.16-5.282,5.729-4.508,8.564.166.611.822,1.476,1.334,1.535,1.6.187,3.344.525,4.838-.72C-242.842,1117.989-242.955,1116.994-240.722,1112.5Zm210.053-157.91c.418-3.119.053-4.691-1.581-5.465a4.434,4.434,0,0,0-3.252-.174c-.785.331-1.758,1.711-1.608,2.4a4.126,4.126,0,0,0,2.216,2.343A19.239,19.239,0,0,0-30.669,954.591Zm-.805,1.888c-3.98-.133-7.642-2.587-10.453,1.567C-38.6,960.661-34.894,960.243-31.474,956.479ZM-198.3,1016.695c-2.1-2.913-3.986-3.653-6.609-2.909-2.469.7-3.626,2.252-3.908,5.582,1.886-2.792,4.129-3.468,7.059-2.347C-200.863,1017.364-199.635,1016.847-198.3,1016.695Zm-38.1,94.833c-1.644,1.556-3.113,2.449-3.782,3.752-.463.9-.1,2.508.407,3.543a1.43,1.43,0,0,0,2.628.174,19.675,19.675,0,0,0,1.9-4.809C-235.107,1113.638-235.794,1112.864-236.4,1111.528ZM70.927,969.444c-4.141,2.324-7.628-.312-11.249.141C62.768,974.245,67.4,974.4,70.927,969.444ZM-98.959,992.322l-.925-.042a69.535,69.535,0,0,1-.081,8.732,69.827,69.827,0,0,1-2.113,8.491C-99.136,1004.074-97.109,998.5-98.959,992.322Zm-23.03,60.533-.808.1c.235,3.816.469,7.633.747,12.162C-120.114,1062.487-120.44,1054.824-121.989,1052.855Zm-12.212-62.18a23.821,23.821,0,0,1,16.612-8.786C-124.9,981.478-130.378,984.51-134.2,990.675Zm80.124,31.534-.189-.382-9.133,3.492c.914,2.627,2.091,2.686,3.591,1.5C-57.889,1025.291-55.987,1023.745-54.078,1022.209Zm-86.975-18.745c-1.589,3,.465,8.564,3.068,10.256C-138.889,1010.7-139.9,1007.33-141.053,1003.464Zm20.384,20.477-.373.023v12.716l.373-.019Zm6.823,21.8-5.7-3.079C-117.643,1047.432-116.051,1048.269-113.845,1045.745Zm-204.333,81.1h3.051a6.165,6.165,0,0,0-3.99-5.032Z" transform="translate(506.567 -890.998)" fill="#0b3d41"/>
    <g id="Group_2" data-name="Group 2" transform="translate(442.463 84.89)">
      <path id="Union_2" data-name="Union 2" d="M.7,49.432,9.837,45.94l.19.382C8.118,47.857,6.215,49.4,4.3,50.928a2.8,2.8,0,0,1-1.627.745C1.908,51.672,1.258,51.023.7,49.432ZM4.57,20.941c2.959,8.042,4.6,15.983,10.473,22L.31,47.5C-1.063,38.328,2.444,30.071,4.57,20.941Zm36.055,16.4a8.436,8.436,0,0,1-3.467-1.594,25.9,25.9,0,0,1-10.449-17.7,12.106,12.106,0,0,0-1.268-4.3c-1.6-2.744-4.8-2.583-5.954.355-.781,1.983-1.848,2.1-3.506,1.537a5.064,5.064,0,0,0-5.193.737c-1.6,1.272-3.364.72-5.913-.179C6.448,15.4,7.318,14.877,8.25,14.5A82.223,82.223,0,0,1,30.965,9.146c1.983-.192,3.472.329,4.3,2.112a56.188,56.188,0,0,1,3.514,8.35c1.954,7.068,5.1,13.336,10.732,18.192a2.394,2.394,0,0,1,.41.653C46.8,38.1,43.691,37.857,40.625,37.339ZM16.14.643C21.645-1,27.069.559,29.568,4.778,21.612,6.885,13.9,8.925,6.174,10.97,5.892,6.713,10.009,2.476,16.14.643Z" transform="translate(0)" fill="#fff" stroke="rgba(0,0,0,0)" stroke-width="1"/>
    </g>
    <g id="Group_3" data-name="Group 3" transform="translate(177.44 1.629)">
      <path id="Path_8" data-name="Path 8" d="M96.083,914.733c-2.107-4.621-3.334-9.167-2.375-14.023.876-4.436,5.075-7.685,10.612-8.154,4.858-.41,9.1,1.191,11.856,5.358A11.73,11.73,0,0,1,117,910.289c-3.109,6.127-11.671,7.747-16.469,2.819,1.439-1.262,2.858-2.533,4.306-3.766.825-.7,1.78-1.264,2.536-2.028,1.791-1.808,2.131-3.762,1.112-5.61a5.241,5.241,0,0,0-5.3-2.432c-5.291.66-8.44,6.363-6.437,11.63C97.2,912.092,98.6,913.367,96.083,914.733Z" transform="translate(357.909 -892.495)" fill="#fff" stroke="rgba(0,0,0,0)" stroke-width="1"/>
      <path id="Union_11" data-name="Union 11" d="M-5204.15-194.662a13.52,13.52,0,0,0-2.761-.741c-7.555-.06-12.706-7.07-12.078-14.053a18.085,18.085,0,0,0,9.462,11.045,16.691,16.691,0,0,0,22.732-8.148c1.46-3.172,1.885-6.831,2.674-10.292.3-1.3.291-2.678.7-4.015,1.639,2.238,1.3,4.757,1.138,7.17-.691,10.05-8.805,18.648-18.548,19.663a3.175,3.175,0,0,1-.328.016A13.91,13.91,0,0,1-5204.15-194.662Zm-10.4-9.8a15.482,15.482,0,0,1-1.367-2.2,17.008,17.008,0,0,1-.73-2.059c2.353-.608,4.511-1.3,6.723-1.668a5.065,5.065,0,0,1,2.688.752c5.9,2.854,9.612,1.686,12.946-4.056,1.84-3.169,5.238-2.828,8.137-3.852,1,7.277-3.572,15.481-9.836,18.139a15.751,15.751,0,0,1-6.165,1.274A15.458,15.458,0,0,1-5214.553-204.464Zm-7.3-6.058c1.156,3.867,2.163,7.236,3.066,10.257C-5221.39-201.957-5223.444-207.523-5221.854-210.522Zm41.087-2.45a69.493,69.493,0,0,0,.082-8.732l.924.041c1.85,6.18-.177,11.753-3.118,17.183A69.975,69.975,0,0,0-5180.767-212.972Zm-27.3.089c-.737-2.142.447-5.138,2.7-6.822,2.362-1.77,4.3-1.826,6.808-.184,1.043.683,2.394,1.18,3.014,2.142.476.741.218,2.124-.041,3.138a6.643,6.643,0,0,1-6.509,4.866C-5204.782-209.739-5207.469-211.153-5208.065-212.883Zm.977-21.242c10.45-3.541,22.895,1.03,26.637,9.916-1.64,1.535-2.2.274-2.85-.735a18.836,18.836,0,0,0-11.058-8.1c-7.2-2.016-13.557-.29-19,4.738a24.182,24.182,0,0,0-7.274,13.2c-.187.9-.412,1.8-.738,3.217C-5223.565-219.9-5216.117-231.065-5207.089-234.125Zm-8.7,18.24c.436-5.682,5.935-11.633,12.467-13.5,6.228-1.776,12.083-.043,15.75,5.014a49.905,49.905,0,0,1-6.111,2.706c-.7.214-1.9-.611-2.646-1.236-4.275-3.6-11.8-1.454-13.344,3.869-.734,2.531-1.581,3.556-3.474,3.557A11.276,11.276,0,0,1-5215.787-215.885Zm17.4-16.211A23.818,23.818,0,0,0-5215-223.31C-5211.18-229.475-5205.7-232.507-5198.392-232.1Z" transform="translate(5409.929 321.358)" stroke="rgba(0,0,0,0)" stroke-width="1" fill="url(#linear-gradient)"/>
      <path id="Path_14" data-name="Path 14" d="M-243.09,1106.719c2.688-.627,5.1-1.215,7.524-1.745a2.988,2.988,0,0,0,2.622-3.157c.113-2.2.485-4.392.762-6.73,3.477,1.443,4.856,3.558,4.735,6.664a8.383,8.383,0,0,1-5.524,7.714A8.759,8.759,0,0,1-243.09,1106.719Z" transform="translate(328.344 -874.693)" fill="#fff" stroke="rgba(0,0,0,0)" stroke-width="1"/>
      <path id="Path_15" data-name="Path 15" d="M49.533,955.919l-1.979,1.729c-1.277-.517-2.379-1.332-3.46-1.305a6.869,6.869,0,0,0-3.669,1.346,2.631,2.631,0,0,0,.133,2.538,8.477,8.477,0,0,0,3.662,1.495c.722.133,1.577-.463,2.74-.854-1.111,2.389-2.639,3.043-4.786,2.608-2.319-.472-4.652-.877-6.889-1.294-.726-4.112.423-6.628,3.644-8.328C42.62,951.905,46.053,952.5,49.533,955.919Z" transform="translate(352.786 -887.201)" fill="#fff" stroke="rgba(0,0,0,0)" stroke-width="1"/>
      <path id="Path_16" data-name="Path 16" d="M98.973,911a5.9,5.9,0,0,1-.994-6.859,5.727,5.727,0,0,1,5.227-3.815,5.232,5.232,0,0,1,3.553,1.62c1.106,1.251.279,2.766-.857,3.712C103.681,907.507,101.328,909.2,98.973,911Z" transform="translate(358.254 -891.807)" fill="#fff" stroke="rgba(0,0,0,0)" stroke-width="1"/>
      <path id="Path_17" data-name="Path 17" d="M-316.908,1103.939l3.122,5.964-3.706,6.008a6.644,6.644,0,0,1-3.837-7.637C-320.877,1105.46-319.6,1104.259-316.908,1103.939Z" transform="translate(321.458 -873.916)" fill="#fff" stroke="rgba(0,0,0,0)" stroke-width="1"/>
      <path id="Path_18" data-name="Path 18" d="M-47.966,942.149c-5.1.83-6.245,2.2-6.153,6.988l-4.558,2.909c-1.776-3.076-1.167-6.566,1.456-9.2C-54.7,940.3-51.807,939.991-47.966,942.149Z" transform="translate(344.459 -888.258)" fill="#fff" stroke="rgba(0,0,0,0)" stroke-width="1"/>
      <path id="Path_19" data-name="Path 19" d="M-199.872,1008.4c.017,4.2-3.114,6.783-6.844,5.677-2.015-.6-3.219-2.4-2.735-4.106.542-1.91,2.048-2.466,4.415-1.978A40.966,40.966,0,0,0-199.872,1008.4Z" transform="translate(331.291 -882.361)" fill="#fff" stroke="rgba(0,0,0,0)" stroke-width="1"/>
      <path id="Path_20" data-name="Path 20" d="M50.8,958.536a8.987,8.987,0,0,1-2.747,10.94c-3.2,2.347-7.136,1.98-10.616-1.285,1.319.182,2.271.372,3.232.436,4.333.293,7.217-1.97,8.23-6.169A21.859,21.859,0,0,1,50.8,958.536Z" transform="translate(352.993 -886.692)" fill="#fff" stroke="rgba(0,0,0,0)" stroke-width="1"/>
      <path id="Path_21" data-name="Path 21" d="M-316.18,1116.381c2.339-6.359,3.533-7.25,8.3-6.344C-307.766,1114.186-311.022,1116.767-316.18,1116.381Z" transform="translate(321.922 -873.406)" fill="#fff" stroke="rgba(0,0,0,0)" stroke-width="1"/>
      <path id="Path_22" data-name="Path 22" d="M-239.778,1094.636c-2.233,4.491-2.12,5.486,1.165,9.086-1.494,1.245-3.234.907-4.838.72-.511-.059-1.167-.923-1.334-1.535-.773-2.835,1.683-7.4,4.508-8.564C-240.168,1094.3-239.947,1094.532-239.778,1094.636Z" transform="translate(328.183 -874.76)" fill="#fff" stroke="rgba(0,0,0,0)" stroke-width="1"/>
      <path id="Path_23" data-name="Path 23" d="M-46.586,949.929a19.233,19.233,0,0,1-4.224-.9,4.126,4.126,0,0,1-2.216-2.343c-.15-.689.822-2.069,1.608-2.4a4.432,4.432,0,0,1,3.252.174C-46.532,945.239-46.168,946.811-46.586,949.929Z" transform="translate(345.043 -887.965)" fill="#fff" stroke="rgba(0,0,0,0)" stroke-width="1"/>
      <path id="Path_24" data-name="Path 24" d="M-47,951.258c-3.42,3.764-7.124,4.182-10.453,1.568C-54.645,948.671-50.983,951.125-47,951.258Z" transform="translate(344.655 -887.406)" fill="#fff" stroke="rgba(0,0,0,0)" stroke-width="1"/>
      <path id="Path_25" data-name="Path 25" d="M-200.354,1006.8c-1.33.152-2.559.669-3.457.325-2.931-1.121-5.173-.445-7.059,2.348.282-3.33,1.438-4.881,3.908-5.582C-204.34,1003.146-202.458,1003.886-200.354,1006.8Z" transform="translate(331.175 -882.731)" fill="#fff" stroke="rgba(0,0,0,0)" stroke-width="1"/>
      <path id="Path_26" data-name="Path 26" d="M-235.9,1093.716c.609,1.336,1.3,2.109,1.149,2.661a19.674,19.674,0,0,1-1.9,4.808,1.43,1.43,0,0,1-2.628-.174c-.51-1.036-.87-2.642-.407-3.543C-239.015,1096.165-237.545,1095.272-235.9,1093.716Z" transform="translate(328.625 -874.815)" fill="#fff" stroke="rgba(0,0,0,0)" stroke-width="1"/>
      <path id="Path_27" data-name="Path 27" d="M47.192,963.108c-3.531,4.953-8.159,4.8-11.249.141C39.563,962.8,43.051,965.432,47.192,963.108Z" transform="translate(352.862 -886.291)" fill="#fff" stroke="rgba(0,0,0,0)" stroke-width="1"/>
      <path id="Path_31" data-name="Path 31" d="M-311.318,1108.207l-.939-5.033c2.237,1.056,3.616,2.453,3.99,5.033Z" transform="translate(322.267 -873.983)" fill="#fff" stroke="rgba(0,0,0,0)" stroke-width="1"/>
    </g>
  </g>
</svg>
