<svg id="Social_Button" data-name="Social Button" xmlns="http://www.w3.org/2000/svg" width="33.018" height="33.018" viewBox="0 0 33.018 33.018">
  <g id="Twitter" transform="translate(0 0)">
    <circle id="Placeholder" cx="16.509" cy="16.509" r="16.509" fill="#fff"/>
    <path id="Icon_awesome-instagram" data-name="Icon awesome-instagram" d="M6.051,5.187a3.1,3.1,0,1,0,3.1,3.1A3.1,3.1,0,0,0,6.051,5.187Zm0,5.122A2.018,2.018,0,1,1,8.069,8.291,2.022,2.022,0,0,1,6.051,10.31ZM10.006,5.06a.724.724,0,1,1-.724-.724A.722.722,0,0,1,10.006,5.06Zm2.056.735a3.583,3.583,0,0,0-.978-2.537A3.607,3.607,0,0,0,8.547,2.28c-1-.057-4-.057-5,0a3.6,3.6,0,0,0-2.537.975A3.6,3.6,0,0,0,.037,5.792c-.057,1-.057,4,0,5a3.583,3.583,0,0,0,.978,2.537,3.611,3.611,0,0,0,2.537.978c1,.057,4,.057,5,0a3.583,3.583,0,0,0,2.537-.978,3.607,3.607,0,0,0,.978-2.537c.057-1,.057-3.993,0-4.993ZM10.771,11.86A2.043,2.043,0,0,1,9.62,13.011a13.343,13.343,0,0,1-3.569.243,13.447,13.447,0,0,1-3.569-.243A2.043,2.043,0,0,1,1.331,11.86a13.343,13.343,0,0,1-.243-3.569,13.447,13.447,0,0,1,.243-3.569A2.043,2.043,0,0,1,2.482,3.572a13.343,13.343,0,0,1,3.569-.243,13.447,13.447,0,0,1,3.569.243,2.043,2.043,0,0,1,1.151,1.151,13.343,13.343,0,0,1,.243,3.569A13.336,13.336,0,0,1,10.771,11.86Z" transform="translate(10.629 8.386)" fill="#3c6467"/>
  </g>
</svg>
