<svg xmlns="http://www.w3.org/2000/svg" xmlns:xlink="http://www.w3.org/1999/xlink" width="656.898" height="647.466" viewBox="0 0 656.898 647.466">
  <defs>
    <linearGradient id="linear-gradient" x1="0.572" y1="0.812" x2="0.607" y2="-0.11" gradientUnits="objectBoundingBox">
      <stop offset="0" stop-color="#9fc"/>
      <stop offset="1" stop-color="#0b3d41"/>
    </linearGradient>
    <linearGradient id="linear-gradient-2" x1="0.57" y1="1.031" x2="0.5" y2="-0.215" xlink:href="#linear-gradient"/>
  </defs>
  <g id="Group_37087" data-name="Group 37087" transform="translate(2795.336 -2523.807)">
    <path id="Union_14" data-name="Union 14" d="M223.178,645.056c-.1-1.345-.111-2.7-.111-4.052.006-24.35-.542-113.571.239-137.9.475-14.856-.177-29.743.88-44.536.872-12.17.311-24.3.736-36.437.058-1.633.4-3.256.548-4.888.106-1.148.113-2.3.2-4.3-3.289,1.776-5.95,3.215-8.385,4.531-.5,4.152-.89,7.857-1.4,11.547-1.8,13.037-8.471,22.878-19.749,29.581-7.918,4.706-16.635,6.618-25.768,6.842-1.3.032-2.6.022-3.9.013-1.258-.009-2.517-.018-3.774.011a49.005,49.005,0,0,1-34.321-12.357c-5.707-4.975-9.35-11.605-11.885-18.778-2.712-7.676-4.688-15.463-4.583-23.7.027-2.025-.726-4.06-1.164-6.3-1.747-.081-3.217-.206-4.69-.208-9.03,0-18.1-.536-27.082.169-5.782.453-11.572.442-17.353.432-6.089-.011-12.166-.022-18.214.508-7.045.617-14.077.592-21.1.568-4.829-.016-9.655-.032-14.482.159-.452.018-.9.014-1.354-.011-5.789-.328-7.933-3.976-5.442-9.268q.383-.817.826-1.6c4.036-7.155,8.075-14.309,12.229-21.665l3.1.937c-1.863-3.083-1.9-6.476-1.817-9.934q.143-5.635-.016-11.272c-.258-8.987-.092-18.026-1.074-26.937-.762-6.915-.453-13.777-.71-20.659-.348-9.284-.107-18.625-1.088-27.84-.8-7.515-.452-14.98-.732-22.462-.343-9.136-.6-18.273-.956-27.407-.211-5.383-.685-10.756-.8-16.139-.118-5.3,1.726-7.859,6.754-9.231a35.843,35.843,0,0,1,8.419-1.216c3.912-.1,7.827-.089,11.743-.076,2.858.01,5.718.021,8.575-.014,22.545-.282,45.12-.031,67.627-1.121,7.417-.36,14.836-.336,22.248-.311,8.67.029,17.331.058,25.972-.528,10.345-.7,20.686-.671,31.025-.639,6.94.021,13.878.041,20.816-.158,6.745-.2,13.523-.219,20.211-.979,3.8-.431,7.489-2.084,11.161-3.374,9.9-3.479,19.766-7.058,30.125-10.768.279-.441.857-1.3,1.381-2.191,1.943-3.3,4.4-6.1,8-7.616,3.724-1.56,5.84-4.228,7.273-8.038,1.24-3.3,3.488-6.254,5.471-9.24a6.123,6.123,0,0,1,5.405-2.778c2.687.069,5.368.37,8.05.573,1.329.1,2.659.208,3.748.293.478-.449.841-.622.887-.859,1.1-5.684,4.19-10.044,8.343-14.052,10.715-10.337,21.31-20.811,31.627-31.545,7.782-8.1,15.167-16.585,22.512-25.087,3.615-4.183,6.7-8.82,10.1-13.186,2.116-2.714,4.32-5.368,6.608-7.94,5.578-6.273,11.129-12.576,16.876-18.694,7.4-7.881,14.954-15.619,22.5-23.362,1.616-1.659,2.788-3.239,2.905-5.789.166-3.644,2.111-5.3,5.831-5.564,1.972-.141,3.81-.1,5.334-1.769,3.1-3.384,6.719-3.595,10.6-1.336.646.376,1.349.658,1.848.9,5.834-1.486,11.447-3.1,17.145-4.325A88.537,88.537,0,0,1,506.174.764,87.059,87.059,0,0,1,535.71,9.8a132.966,132.966,0,0,1,22.45,14.9,61.877,61.877,0,0,1,17.4,20.906c1.632,3.287,2.816,6.631,2.494,10.36a5.747,5.747,0,0,0,1.988,5.223c2.291,1.987,1.976,4.586,1.175,7.078C578.679,76.154,575.7,83.8,575.089,92.3c-.751,10.4-2.886,20.694-4.14,31.065-.664,5.488-.318,11.11-1.165,16.557-1.164,7.492-.368,14.988-.846,22.455-.508,7.938,1.78,15.128,5.242,22.046,2.468,4.93,5.335,9.664,7.734,14.629,3.719,7.7,7.144,15.541,10.786,23.281,2.035,4.325,4.443,8.484,6.339,12.867a38,38,0,0,1,3.385,14.806,26.878,26.878,0,0,1-4.038,14.717c3.043,11.147,6.139,22.1,9.007,33.111,2.375,9.123,4.351,18.35,6.775,27.46a83.337,83.337,0,0,0,4.2,11.365c2.075,4.824,4.333,9.575,6.655,14.286,4.58,9.291,9.169,18.579,13.927,27.779,3.792,7.329,7.754,14.575,11.8,21.768,3.18,5.648,4.312,11.855,4.845,18.1.718,8.4.2,16.835-2.741,24.847-2.641,7.19-5.991,14-11.416,19.693-3.617,3.791-7.065,7.739-11.454,10.644-11.758,7.787-24.322,13.845-38.426,15.788-11.757,1.618-22.29-1.471-31.168-9.656a47.578,47.578,0,0,1-12.905-20.829c-2.153-6.662-3.643-13.539-5.412-20.263-.067,1.786-.067,3.828-.239,5.854-.177,2.081-.755,4.145-.761,6.218-.058,25.853-.143,115.347.027,141.2.04,6.1,1.025,12.193,1.531,18.294a40.927,40.927,0,0,1,.144,4.949,66.287,66.287,0,0,0,1.486,15.47c.365,1.674.969,3.489-.788,4.974-2.082-.726-2.01-2.579-2.386-4.059a49.969,49.969,0,0,1-.882-6.516c-.406-4.62-.761-9.244-1.036-13.872-1.951-33.021-.565-129.712-.862-162.748-.035-3.713.408-7.43.643-11.366a12.037,12.037,0,0,0-2.684-1.4c-8.769-2.053-15.453-7.8-22.646-12.642q-5.77-3.888-11.517-7.808c-2.966-2.03-6.156-3.822-8.8-6.211-5.489-4.961-5.912-8.312-2.538-14.631-6.892-7.134-4.836-14.138,3.668-19.774-.363-.593-.777-1.173-1.094-1.8-2.671-5.288-1.07-9.912,4.5-11.993,4.207-1.57,8.568-3,13.533-.823a47.923,47.923,0,0,0-12.784-8.162c-6.453-2.458-12.922-4.874-19.371-7.345a48.833,48.833,0,0,1-4.524-2.016c-3.863-1.952-4.333-2.57-5.67-6.968,1.595-6.4,7.637-7.471,12.428-7.023,7.645.716,14.944,3.1,22.221,5.469,5.417,1.763,10.964,3.172,16.273,5.21,5.033,1.932,9.883,4.372,14.713,6.79a47.557,47.557,0,0,0,11.562,3.928c.065-3.445.145-6.53.175-9.615.032-3.307-.093-6.619.052-9.92.136-3.132.463-6.26.832-9.375.346-2.934-1.014-6.151,1.19-9,2.168,1.192,1.541,3.019,1.548,4.528.045,9.769.011,19.539,0,29.309,0,1.646,0,3.291,0,4.966,2.835,2.164,5.971,2.856,9.592,3.493.548-3.605,1-6.987,1.585-10.342,1.963-11.177,8.277-19.4,17.587-25.535,4.122-2.714,8.148-5.473,13.121-6.764,4.905-1.272,8.505-.023,11.615,3.686,2.133,2.545,2.192,3.939-.227,6.143-2.768,2.523-5.736,4.83-8.457,7.4a62.631,62.631,0,0,0-5.7,6.259,6.769,6.769,0,0,0-1.326,3.309c-.594,4.992-2.384,9.856-1.027,15.069.627,2.4.39,5.087.249,7.628-.33,6.034,1.537,11.542,3.781,16.978.859,2.078,1.751,4.151,2.768,6.154,1.868,3.678,3.458,7.445,7.76,9.334,2.975,1.307,5.39,3.837,8.309,5.325,4.075,2.08,8.545,2.516,13.148,2.389a22.1,22.1,0,0,1,17.89,7.981c1.131,1.292,2.1,2.542.482,4.685-1.2-1.078-2.322-1.983-3.326-3.006a21.572,21.572,0,0,0-16.618-6.8c-7.691.321-14.189-1.792-19.863-6.831-.182-.163-.56-.1-1.246-.208.194,2.646.417,5.215.563,7.788.311,5.528.613,11.055.866,16.584a45.711,45.711,0,0,1-4.9,22.147c-2.961,6.182-8.018,9.7-14.08,11.8-6.505,2.258-13.109,2.887-19.621-.7a16.219,16.219,0,0,1-7.434-8.615c-.94-2.353-1.585-4.824-2.444-7.494l-6-1.094c-1.674,3.848-.2,7.379.542,10.76,2.067,9.475,5.785,18.4,12.034,25.854a31.989,31.989,0,0,0,23.851,11.928c10.651.473,20.436-2.553,29.935-6.9q3.283-1.5,6.464-3.222a64,64,0,0,0,22.608-19.58c6.376-9.167,9.939-19.408,9.63-30.821-.157-5.851.109-11.713-1.789-17.36a38.487,38.487,0,0,0-2.283-5.827c-3.451-6.493-7.151-12.852-10.546-19.372-4.914-9.44-9.695-18.951-14.439-28.48-4.68-9.4-9.124-18.933-12.06-29.039-1.664-5.736-2.679-11.657-4.044-17.481a543.789,543.789,0,0,0-16.116-55.218c-1.517-4.342-2.957-8.757-5.7-12.416-5.59,5.9-10.748,11.939-16.517,17.322-12.494,11.654-26.885,19.994-43.832,23.491-7.024,1.45-13.666,1.076-19.716-3.3-3.427-2.481-5.345-6.08-7.106-9.663-2.867-5.833-4-12.249-4.744-18.631a130.027,130.027,0,0,1-.917-17.924c.148-6.709,1.286-13.393,1.481-20.1.188-6.422-.311-12.866-.447-19.3-.072-3.427-.013-6.857-.013-10.9-4.15,2.537-7.584,4.619-11,6.729a68.107,68.107,0,0,1-22.073,8.673c-8.065,1.691-15.946,4.234-23.949,6.236a150.452,150.452,0,0,1-17.256,2.793c-6.261.813-12.211-.085-18.216-1.113-8.835-1.515-15.765-6.3-21.333-13.184-5.855-7.233-7.982-15.991-10.084-24.752-.417-1.737-.725-3.5-1.255-6.084-2.059,7.565-3.908,14.35-5.84,21.451a55.433,55.433,0,0,0,9.714,15.719,77.687,77.687,0,0,0,33.187,23.108c5.768,2.113,11.6,4.05,18.1,6.311,1.87,5.44,3.907,11.364,6.18,17.974.813-2.086,1.29-3.624,1.991-5.052,1.913-3.9,3.858-7.778,5.932-11.588a6.652,6.652,0,0,1,2.462-2.583c9.95-5.432,17.247-13.912,25.111-21.722,2.632-2.614,4.922-5.571,7.863-8.938.447,1.422.947,2.182.822,2.819a5.166,5.166,0,0,1-1.289,2.331c-8.817,9.607-17.113,19.746-28.283,26.912-5.212,3.344-7.756,8.716-9.531,14.348-2.114,6.707-3.824,13.541-5.677,20.329a12.426,12.426,0,0,1-3.1,5.858,51.334,51.334,0,0,0-6.748,7.806,17.773,17.773,0,0,0-2.533,7.087c-.878,6.207-1.283,12.48-2.01,18.713-.778,6.669-1.8,13.311-2.535,19.985-.509,4.606-.639,9.251-1.066,13.866-.494,5.35-1.494,10.678-1.616,16.032-.191,8.519-1,17.1,1.173,25.537.58,2.249.929,4.558,1.427,7.06,5.4.033,10.021-.506,13.909-3.563a8.523,8.523,0,0,0,.386-1.518c.34-8.383.572-16.771,1.009-25.147.473-9.108,1.137-18.206,1.708-27.31.056-.9.072-1.8.059-2.7-.1-7.5,1.155-14.909,1.576-22.357.365-6.449,1.308-12.785,2.032-19.17.219-1.922.383-3.619,3.244-3.275a13.319,13.319,0,0,1,.349,3.063c-.788,6.52-1.746,13.018-2.494,19.544-.476,4.156-.771,8.338-.989,12.515-.388,7.478-.67,14.962-.976,22.442-.323,7.931-.594,15.865-.945,23.794-.238,5.38-.867,10.761-.772,16.131.076,4.268-1.838,6.7-5.39,8.457-4.96,2.452-10.1,2.287-15.669,1.557-.831-4.019-1.7-7.919-2.433-11.844a65.165,65.165,0,0,1-.269-22.342c.541-3.387.7-6.838.962-10.264.373-4.925.643-9.856,1.025-14.779.3-3.875.677-7.745,1.079-11.613q.764-7.348,1.636-14.688c.714-5.93,1.487-11.853,2.245-17.779a14.744,14.744,0,0,0,.4-2.653c-.193-3.133,1.275-5.385,3.388-7.525,2.522-2.554,4.846-5.314,7.143-8.08a6.793,6.793,0,0,0,1.216-2.794c.855-3.793,1.6-7.609,2.309-11.023-2.446-7.367-4.793-14.434-7.093-21.366-12.549-3.427-24.119-7.85-34.484-15.1a89.876,89.876,0,0,1-25.4-27.14c-2.265,4.064-4.269,7.658-6.224,11.168a88.2,88.2,0,0,0,15.582,18.761c12.613,11.756,26.97,20.417,44.1,23.9a22.99,22.99,0,0,0,4.033.321c1.752.041,3.295.352,4.032,2.319-1.059,1.822-2.859,1.428-4.386,1.2a85.755,85.755,0,0,1-33.493-12.4,112.226,112.226,0,0,1-30.543-28.863c-.431-.581-.906-1.13-1.629-2.027-8.2,7.883-17.662,12.492-29.429,11.924.491,6.052.945,11.658,1.4,17.262.049.6.1,1.2.125,1.8.322,8.385.527,16.776.99,25.154.413,7.459,1.112,14.9,1.682,22.357.023.3.03.6.042.9.322,8.234.524,16.477,1,24.7.357,6.113,1.076,12.2,1.632,18.3.028.3.048.6.062.9.317,7.633.6,15.268.963,22.9.237,4.929.643,9.851.873,14.783a4.852,4.852,0,0,0,2.055,3.787c1.863,1.5,3.669,3.082,5.422,4.712,5.161,4.808,10.226,9.719,15.451,14.456a6.15,6.15,0,0,1,2.051,6.851c-.844,2.837-2.973,3.962-5.777,4.178-3.129.241-6.25.738-9.38.8-2.461.051-4.927.009-7.392-.033a117.765,117.765,0,0,0-12.017.2c-11.558.979-23.17.032-34.661.992-7.206.6-14.4.581-21.583.563-4.217-.011-8.432-.022-12.649.093a12.948,12.948,0,0,0-6.742,1.941c-5.366,3.267-10.9,6.259-16.715,9.56-.327,4.278-.863,8.724-.963,13.18-.169,7.512.489,15.079-.192,22.534-1.285,14.1.087,28.24-.915,42.289-1.338,18.767-.307,101.164-.8,119.915-.045,1.782-.383,3.557-.56,5.338a19.186,19.186,0,0,0-.1,2.227c.176,9.137.371,19.486.537,28.623.005.264-.235.53-.513,1.118l-2.241.144A5.1,5.1,0,0,1,223.178,645.056ZM115.01,403.943a11.273,11.273,0,0,0-.252,2.147c.247,3.725.59,7.445.85,11.169a55.878,55.878,0,0,0,6.811,23.072c5.122,9.443,12.754,15.663,22.838,19.232,6.484,2.295,13.272,2.108,19.915,3.091a9.147,9.147,0,0,0,2.236-.192c1.93-.2,3.857-.571,5.791-.594a44.739,44.739,0,0,0,15.824-3,35.685,35.685,0,0,0,13.227-8.353c6.208-6.539,9.158-14.67,10.73-23.351.326-1.8.672-3.8-.682-5.861l-6.439,4.272c-.356,2.436-.185,4.2-.88,5.513-3.1,5.816-6.313,11.619-10.712,16.559a45.532,45.532,0,0,1-8.4,7.41c-6,4.05-12.84,2.706-16.961-3.241-4.092-5.908-7.975-11.967-11.744-18.086a83.013,83.013,0,0,1-4.657-9.257c-1.5-3.315-1.077-5.458,1.351-7.569.45.55,1.27,1.087,1.276,1.635.043,3.752,1.532,6.945,3.414,10.073,4.243,7.051,8.161,14.308,12.657,21.193,3.717,5.69,10.077,6.461,15.208,2.058,6.824-5.855,11.182-13.474,15.066-21.84a5.745,5.745,0,0,0-3.3,1.238c-1.167.754-2.318,1.508-4.007,1.147a9.108,9.108,0,0,1,.888-2.821,12.528,12.528,0,0,1,2.735-2.325c12.576-8.993,25.151-17.986,39.372-24.325,1.138-.506,2.173-1.24,4.139-2.382-7.835,0-14.591-.059-21.344.061a5.335,5.335,0,0,0-3.179,1.332c-6.121,5.508-13.438,9.007-20.762,12.479a66.925,66.925,0,0,1-6.622,2.353c-1.174-2.877.319-3.618,2.085-4.442q8.751-4.092,17.4-8.409c.763-.379,1.262-1.286,2.386-2.486-6.368,0-11.918-.056-17.466.043a9.888,9.888,0,0,0-3.425.957c-5.82,2.414-11.62,4.879-17.423,7.337-1.4.593-2.776,1.217-4.162-.742,3.888-3.89,9.31-4.627,14.391-7.555-1.86,0-3.02-.049-4.175.009-5.234.26-10.475.889-15.693.732a20.726,20.726,0,0,0-13.1,3.824c-1.523,1.072-3.11,2.259-5.194,2.17-.08-2.325-.08-2.325,3.5-5.614-2.55-.489-4.528.485-6.4,1.724-1.623,1.075-3.1,2.375-4.779,3.359-5.818,3.422-12.119,2.515-16.688-2.475a4.066,4.066,0,0,0-5.629-1.274Zm378.223-.144c2.083,3.5,5.664,5.252,8.837,7.454,6.161,4.269,12.42,8.393,18.573,12.669,6.06,4.213,12.136,8.435,19.653,9.521,4.731.686,9.522.97,14.295,1.327,1.963.146,3.982-.064,4.752,2.014-.757,1.465-1.954,2.724-1.961,3.988-.025,4.581,5.107,11.627,9.667,13,7.792,2.343,20.722-1.269,25.385-9.267a46.459,46.459,0,0,0,6.249-19.971,89.813,89.813,0,0,0-1.869-25.466,29.66,29.66,0,0,0-2.542-6.622c-2.4-5-5.028-9.885-7.393-14.9a37.156,37.156,0,0,1-3.367-14.348c-.275-6.6-.23-13.229-.025-19.836.153-4.912,1.571-9.482,5.485-12.869,3.4-2.938,6.848-5.809,10.247-8.742,1.1-.949,2.107-2,3.105-2.961-1.379-3.036-3.423-4.329-6.277-3.9-2.64.394-5.5.59-7.788,1.777a82.351,82.351,0,0,0-10.869,7.108A31.546,31.546,0,0,0,564.422,346.5c-.441,3.806-.957,7.68-2.93,11.708a36.794,36.794,0,0,1-5.14-.88c-6.447-2.045-12.859-4.2-19.261-6.382a19.857,19.857,0,0,1-4.508-2.029c-5.587-3.664-11.75-6.03-18.038-8.074-7.136-2.319-14.31-4.537-21.527-6.592-4.6-1.31-9.221-2.686-14.148-2.3-2.906.229-5.233,1.086-6.439,3.771.364,2.529,2.237,3.357,4.011,4.106,3.317,1.4,6.676,2.715,10.08,3.89a118.691,118.691,0,0,1,20.992,9.159c6.341,3.67,13.036,6.735,19.6,10.007,1.877.934,3.912,1.558,5.773,2.521,1.451.752,2.93,1.7,2.355,3.817-1.774,1.3-3.454.355-5.153-.137-6.776-1.957-13.569-3.857-20.327-5.87a14.7,14.7,0,0,0-10.118.734c-2.012.83-3.694,1.932-3.828,4.493-.123,2.4.9,3.87,2.876,5.143A66.994,66.994,0,0,0,516.74,381.6a32.044,32.044,0,0,1,5.066,1.814c.519.249.657,1.294,1.277,2.642-9.406-1.422-17.324-4.8-24.718-8.548-4.974,1.385-8.253,3.872-8.688,10.26a27.508,27.508,0,0,0,3.867,3.886c5.253,3.677,11.466,5.12,17.47,7.007,1.571.492,3.246.661,4.8,1.2,1.244.428,2,1.343.885,3.391a76.68,76.68,0,0,1-22.013-7.038C491.79,399.111,491.486,400.864,493.233,403.8Zm-356.513-.381h-13.6C128.8,407.543,132.718,407.453,136.72,403.418ZM13.31,381.472C10.373,386.7,7.272,391.847,4.5,397.16c-1.855,3.553-.355,5.946,3.627,5.961,2.526.009,5.047-.674,7.58-.76,12.006-.409,24.007.227,36.034-.795,5.845-.5,11.712-.466,17.588-.436,5.99.032,11.989.064,17.985-.464,5.688-.5,11.4-.486,17.124-.472,5.54.014,11.091.029,16.637-.424,6.079-.5,12.18-.471,18.291-.445,6.206.026,12.423.052,18.635-.468,6-.5,12.033-.479,18.072-.454,5.978.024,11.966.049,17.951-.438,6.128-.5,12.279-.471,18.439-.443,6.309.029,12.627.059,18.941-.479,6.139-.522,12.3-.517,18.479-.512,5.394,0,10.795.009,16.195-.338,15.876-1.021,31.833-.77,47.755-1.119q17.333-.379,34.664-.949a17.4,17.4,0,0,0,4.141-1.091c1.09-3.045-.223-4.612-1.84-6.122-5.159-4.811-10.281-9.657-15.426-14.483-2.185-2.05-4.388-4.081-6.409-5.957H302.585l-.015.632h14.5c2.075,2.5,4.066,4.573,5.647,6.917,1.463,2.173,5.008,3.286,3.894,7.069a8.665,8.665,0,0,1-1.727.457c-6.136.332-12.273.726-18.416.911-5.207.157-10.414.154-15.621.152-8.307,0-16.616-.006-24.931.635-11.017.851-22.119.239-33.2.9-13.933.837-27.924.68-41.888,1.06-10.353.282-20.694-.157-31.074.706-5.992.5-12.009.489-18.035.48-5.99-.009-11.991-.018-17.984.472-5.839.477-11.7.462-17.566.446-5.7-.014-11.4-.03-17.106.407-6.326.482-12.675.45-19.032.418-6.865-.035-13.739-.07-20.6.544-7.016.629-14.136.153-21.209.139-1.449,0-2.9-.156-4.67-.258.8-5.373,4.628-9.056,5.713-14.2H17.187C15.9,376.738,14.633,379.12,13.31,381.472Zm19.122-3.178c-3.074,3.667-3.074,3.667-3.919,7.77,1.566,0,3.035.053,4.5-.009,6.44-.27,12.876-.634,19.319-.851,4.805-.163,9.61-.158,14.416-.154,7.5.007,15.007.014,22.524-.613,6.025-.5,12.074-.479,18.132-.453,6.109.025,12.228.051,18.343-.465,5.712-.484,11.446-.441,17.188-.4a177,177,0,0,0,18.389-.5c9.688-.936,19.475-.084,29.249-.878,6.051-.492,12.122-.465,18.2-.438,6.234.028,12.479.056,18.721-.475,6.545-.558,13.117-.554,19.7-.55,5.436,0,10.879.007,16.321-.305,17.985-1.035,36.044-.806,54.071-1.112.291-.005.581,0,.873,0,.613,0,1.226,0,1.834-.047a20.316,20.316,0,0,0,2.4-.575c-1.26-1.451-2.1-2.289-2.792-3.239-2.531-3.494-5.854-4.513-10.157-4.325-11.4.5-22.8-.071-34.225.865-5.916.485-11.85.473-17.795.462-5.62-.011-11.248-.022-16.877.388-14.212,1.032-28.52.731-42.785,1.106-10.353.272-20.694-.069-31.073.7-13.762,1.017-27.617.748-41.429,1.111-9,.237-17.987-.027-27.014.691-12.406.987-24.908.743-37.368,1.1-2.921.083-5.848.037-8.775-.008-1.744-.027-3.49-.055-5.233-.055A69.467,69.467,0,0,0,32.432,378.294ZM15.862,279.246c.428,8.589.9,17.176,1.273,25.767q.555,12.8.941,25.6c.369,12.891.642,25.784.99,38.675a12.9,12.9,0,0,0,.706,2.55c3.072-.366,6.006-.959,8.95-1.021,11.557-.241,23.111.083,34.673-.863,4.709-.386,9.43-.371,14.161-.355a153.706,153.706,0,0,0,15.547-.474c9.68-.949,19.478-.041,29.245-.938,4.983-.458,9.986-.433,15-.409a151.981,151.981,0,0,0,15.605-.46c5.159-.507,10.348-.5,15.549-.487,5.01.009,10.032.019,15.048-.433,5.451-.491,10.927-.469,16.413-.446s10.962.045,16.447-.443c5.45-.485,10.925-.466,16.411-.447,5.629.019,11.267.039,16.9-.486,5.367-.5,10.759-.5,16.162-.493,4.808,0,9.626.008,14.442-.344,14.211-1.04,28.516-.8,42.781-1.1,1.627-.034,3.256,0,5.535,0,0-2.672.129-4.609-.023-6.523-.5-6.254-1.229-12.493-1.624-18.753-.461-7.322-.662-14.66-.977-21.992-.026-.6-.032-1.2-.084-1.8-.556-6.4-1.219-12.787-1.661-19.192-.68-9.849-1.214-19.706-1.805-29.56-.61-10.15-1.28-20.3-1.8-30.453-.416-8.077-.661-16.162-.962-24.244a15.321,15.321,0,0,0-4.209-10.713c-1.255,0-2.887-.039-4.516.008-11.254.316-22.5-.131-33.776.733-7.689.588-15.4.581-23.126.573-6.1-.005-12.206-.011-18.311.277-22.656,1.067-45.374.823-68.066,1.118-1.436.017-2.872.009-4.307,0-1.876-.011-3.752-.021-5.626.026-10.653.262-21.3.656-31.956.853-19.831.365-39.665.6-59.5.945q-22.074.381-44.146.9a12.27,12.27,0,0,0-8.585,3.331c0,1.4-.038,3.035.006,4.665.293,10.789.58,21.578.916,32.366.284,9.137.632,18.272.972,27.4.01.257.246.508.812,1.606,0-2.291.044-3.761-.008-5.227-.287-8.384-.562-16.768-.913-25.15-.218-5.229-.67-10.453-.815-15.683s-.031-10.447-.031-16.125a48.949,48.949,0,0,1,5.549-.87c11.853-.449,23.7.122,35.583-.752,7.468-.552,14.96-.509,22.46-.467,7.526.043,15.061.085,22.592-.472,7.128-.527,14.278-.488,21.435-.448,7.115.039,14.24.078,21.361-.438,7.315-.531,14.652-.493,22-.455,7.38.038,14.769.076,22.154-.463,7.214-.526,14.449-.487,21.691-.448,7.182.039,14.372.077,21.561-.435,7.531-.536,15.085-.506,22.648-.476,7.313.029,14.636.058,21.954-.425,8.606-.568,17.257-.444,25.906-.32,3.7.052,7.406.105,11.106.1,1.325,0,2.65.151,4.49.266a41.614,41.614,0,0,1,.891,5.237c.393,8.982.678,17.968,1,26.952q.024.678.072,1.35c.561,7.6,1.212,15.2,1.66,22.807.439,7.476.669,14.964.995,22.447.012.3.05.6.076.9.548,6.249,1.144,12.5,1.629,18.75q.552,7.158.875,14.332c.368,7.93.625,15.866,1,23.8.119,2.532.528,5.05.67,7.58a29.847,29.847,0,0,1-.256,3.832,17.972,17.972,0,0,1-2.6.589c-6.136.335-12.271.7-18.41.91-11.253.374-22.5-.241-33.776.785-5.4.491-10.83.461-16.267.43-5.526-.031-11.063-.063-16.6.455s-11.094.5-16.666.475c-5.392-.02-10.795-.04-16.192.427-5.821.5-11.666.461-17.519.419a179.71,179.71,0,0,0-18.5.5c-5.046.484-10.119.478-15.2.472-4.828-.005-9.667-.012-14.5.4-5.635.482-11.293.458-16.96.435-5.9-.025-11.808-.05-17.711.5-5.048.467-10.119.439-15.2.412a151.12,151.12,0,0,0-15.861.47,137.148,137.148,0,0,1-14.286.422,132.8,132.8,0,0,0-14.963.487c-6.7.723-13.53.178-20.3.141a26.28,26.28,0,0,1-3.51-.489,12.721,12.721,0,0,1-.631-2.375q-.521-10.543-.95-21.091c-.286-7.331-.09-14.651-.734-22.008-.952-10.885-.784-21.865-1.1-32.8-.046-1.571-.133-3.14-.2-4.71Zm193.7,89.969h0Zm28.151-.428h11.41l-.013-.409h0l.012.409H237.716v-.007Zm30.713-.9h15.925l-.019-.391.018.39H268.429ZM67.511,213.844q-23.431.441-46.861.931a16.9,16.9,0,0,0-2.554.51c0,1.614-.059,3.081.011,4.544.273,5.831.629,11.658.873,17.489.3,7.179-.008,14.348.745,21.559.853,8.166.09,16.45.96,24.7.754,7.128.287,14.343.847,21.547.917,11.8.724,23.674,1.127,35.512.191,5.681.659,11.351,1.046,17.022.027.386.43.746.82,1.379,1.394,0,2.89.039,4.383-.005,8.246-.246,16.478-.022,24.749-.725,5.572-.474,11.166-.458,16.77-.442,5.81.017,11.631.033,17.446-.495,5.316-.484,10.656-.464,16.006-.444,5.312.021,10.634.041,15.955-.432,5.624-.5,11.273-.468,16.934-.434a172.46,172.46,0,0,0,17.737-.5c5-.486,10.019-.478,15.053-.471,4.728.007,9.466.014,14.2-.387,5.774-.491,11.574-.457,17.383-.426a181.912,181.912,0,0,0,18.643-.534c9.244-.9,18.572-.105,27.9-.826,13.154-1.018,26.41-.766,39.621-1.1q16.431-.413,32.863-.952a8.648,8.648,0,0,0,2.146-.685c0-3.608.177-7.064-.038-10.494-.434-6.858-1.2-13.7-1.609-20.554-.456-7.772-.663-15.562-.979-23.343-.013-.3-.022-.6-.041-.9-.58-8.8-1.178-17.6-1.735-26.406-.358-5.674-.641-11.355-.98-17.031-.571-9.552-1.122-19.107-1.758-28.654-.305-4.594-.783-9.176-1.264-14.682-5.147.434-9.745,1.031-14.358,1.168-5.914.175-11.828.173-17.743.171-9.1,0-18.208,0-27.32.636-7.343.517-14.7.456-22.072.4-7.807-.064-15.623-.127-23.436.5-12.7,1.012-25.51.706-38.268,1.059-5.687.157-11.372.157-17.059.157-8.576,0-17.156,0-25.749.539-17.527,1.1-35.142.8-52.719,1.094-1.256.021-2.511.014-3.766.008q-.906-.005-1.812-.006C68.91,213.827,68.21,213.831,67.511,213.844ZM451.048,58.833c10.176,1.907,20.267,4.246,29.708,8.643a44.627,44.627,0,0,1,11.186,7.436c3.51,3.174,5.033,7.414,7.416,11.194a45.016,45.016,0,0,1,7.306,27.3c-.273,4.478-.636,8.951-1.01,13.421a11.389,11.389,0,0,1-.6,2.163c-2.966,10.044-6.251,20.005-6.931,30.577-.287,4.468-1.142,8.9-1.3,13.369-.23,6.3-.075,12.621-.041,18.934.006,1.19.262,2.379.309,3.573.174,4.482.6,8.98.4,13.449-.314,7.008-1.363,13.989-1.53,21-.145,6.116.453,12.255.8,18.38.4,6.935,1.607,13.777,4.846,19.936,4.162,7.922,10.818,12.066,20.472,10.064,3.371-.7,6.75-1.437,10.038-2.442A91.81,91.81,0,0,0,556.6,263.689c6.291-4.243,11.408-9.721,16.756-14.98a51.028,51.028,0,0,0,8.591-10.92c.823-1.429,1.377-3.4,3.917-4.082,2.069,4.255,4.119,8.5,6.2,12.732,2.046,4.163,2.424,9,5.246,13,1.1-3.256,2.473-6.542,2.129-9.636a53.759,53.759,0,0,0-6.171-19.567c-3.53-6.591-7.948-12.748-10.05-20.087a43.345,43.345,0,0,0-3.261-7.385c-3.776-7.494-7.894-14.832-11.338-22.475a34.478,34.478,0,0,1-3.1-12.115,236.168,236.168,0,0,1,.89-35.047c.662-6.682,1.677-13.328,2.545-19.989,1.156-8.879,2.353-17.753,3.459-26.637a40.774,40.774,0,0,0,.027-4.909,10.7,10.7,0,0,0-2.2.02,41.237,41.237,0,0,1-13.362,1.437c-3.281-.22-6.551-.629-9.833-.824-11.168-.668-21.872-3.518-32.438-6.935-9.155-2.959-17.829-7.049-26.453-11.3A181.649,181.649,0,0,1,458.978,46.2c-7.111-5.362-13.718-11.174-18.014-19.178-1.108-2.065-2.413-4.025-3.832-6.37-1.392,1.287-2.52,2.236-3.539,3.289Q421.529,36.4,409.51,48.9c-4.563,4.768-9.03,9.63-13.521,14.467a20.123,20.123,0,0,0-1.34,1.8c-4.689,6.381-9.2,12.909-14.122,19.1-4.842,6.085-9.842,12.091-15.251,17.672-11.09,11.445-22.49,22.594-33.793,33.835a50.191,50.191,0,0,1-4.1,3.491c-4.34,3.471-7.638,7.59-8.731,13.222a53.851,53.851,0,0,1-1.687,5.446c-2.422-.125-4.633-.2-6.838-.367-1.638-.124-3.272-.319-4.9-.569-3.893-.6-6.263,1.52-8.034,4.541a34.055,34.055,0,0,0-3,6.053,13.759,13.759,0,0,1-7.756,8.281c-4.864,2.214-7.7,6.14-9.529,10.892-1.948,5.065,1.382,9.983,6.784,9.865,2.558-.055,5.119,0,7.681.051,5.7.118,11.4.237,17.061-.835a14.031,14.031,0,0,1,3.6-.02c5.674.434,9.406,3.86,10.3,9.489.211,1.323.21,2.68.34,4.514a20.178,20.178,0,0,0,2.5.369c11.539.05,20.624-4.652,26.939-14.3,4.569-6.983,7.079-14.884,9.125-22.876,3.751-14.642,7.2-29.362,10.876-44.023a69.36,69.36,0,0,1,8.749-20.658,112.045,112.045,0,0,1,25.482-28.258A149.809,149.809,0,0,1,440.878,60a18.326,18.326,0,0,1,7.053-1.459A16.842,16.842,0,0,1,451.048,58.833Zm-7.665,3.522c-6.019,3.051-12.155,5.878-18.1,9.066a112.626,112.626,0,0,0-34.426,28.474,83.419,83.419,0,0,0-15.721,30.541c-2.181,7.774-4.856,15.493-3.907,23.787.255,2.223.635,4.433.85,6.658a67.715,67.715,0,0,0,5.9,22.025c4.3,9.288,11.344,15.578,21.426,18.342,9.2,2.523,18.464,2.183,27.611.363,10.57-2.1,20.927-5.293,31.514-7.277,12.054-2.256,22.138-8.162,31.7-15.3a7.015,7.015,0,0,0,2.746-3.862c.872-5.3,1.535-10.649,1.873-16.007A78.657,78.657,0,0,1,498.9,137.63c2.956-8.313,4.157-16.815,4.191-27.231a30.212,30.212,0,0,0-3.632-16.579c-1.724-2.99-3.193-6.129-4.669-9.253-3.036-6.422-8.165-10.646-14.384-13.677a110.6,110.6,0,0,0-29.527-9.2,18.155,18.155,0,0,0-3.141-.314A9.418,9.418,0,0,0,443.382,62.355ZM245.534,196.917l.127.868,29.1-.968c-.726-3.455-1.346-6.4-2.032-9.664C263.771,190.368,254.653,193.644,245.534,196.917ZM439.518,13.143c.529,2.321.668,4.446,1.489,6.263a57.233,57.233,0,0,0,15.52,20.584c9.7,8.188,20.355,14.717,31.47,20.669a174.11,174.11,0,0,0,29.142,11.916c15.117,4.862,30.509,7.6,46.437,6.861a20.708,20.708,0,0,0,9.863-2.735,27.14,27.14,0,0,0,3.454-3.161c-1.824,0-2.588-.2-3.193.031-10.263,3.817-20.832,2.72-31.116.972a143.617,143.617,0,0,1-37.93-12.367c-13.675-6.55-27.006-13.653-39.146-22.937-9.637-7.371-17.852-15.537-21.424-27.482-.062-.208-.463-.313-.914-.6C442.256,11.658,441.237,12.211,439.518,13.143Zm10.84-5c-2.316,1.859-2.587,2.894-1.773,5.872,1.558,5.705,5.224,10.082,9.141,14.234,4.96,5.256,10.849,9.428,16.788,13.492A228.227,228.227,0,0,0,507.168,59.82c17.907,8.361,36.562,13.576,56.553,12.33a50.586,50.586,0,0,0,10.509-2.191,6.552,6.552,0,0,0,4.615-4.442c-2.128-3.46-2.136-3.494-5.672-2.607a73.31,73.31,0,0,1-31.232,1.168c-12.321-2.238-24.354-5.631-35.306-11.8-9.273-5.22-18.352-10.854-27.113-16.889A132.137,132.137,0,0,1,462.643,21.3c-3.547-3.443-7.386-7.32-5.766-13.142a7.45,7.45,0,0,0-3.568-1.446A4.84,4.84,0,0,0,450.357,8.14Zm15.33-.525a58.47,58.47,0,0,0-5.958,2.665,12.163,12.163,0,0,0,3.776,7.529c2.748,2.546,5.495,5.1,8.365,7.5,14.145,11.83,29.9,21.1,46.588,28.822A78.738,78.738,0,0,0,531.617,58.7c4.9,1.28,9.949,2.057,14.958,2.888a53.123,53.123,0,0,0,28.537-2.743,21.533,21.533,0,0,0-.031-3.709c-1.07-5.691-3.065-11.134-6.883-15.469A112.233,112.233,0,0,0,549.393,22.28,133.546,133.546,0,0,0,528.477,9.994c-9.132-4.285-18.874-6.08-28.686-7.02q-3.121-.3-6.224-.294C484.1,2.68,474.782,4.66,465.687,7.615ZM180.046,315.81a.2.2,0,0,1-.121-.306l.634-1.4,0,0-1.423-2.948a.225.225,0,0,1-.014-.179.265.265,0,0,1,.307-.143.221.221,0,0,1,.128.124l1.243,2.624,1.187-2.617a.21.21,0,0,1,.307-.114.2.2,0,0,1,.121.3l-2.066,4.542a.2.2,0,0,1-.185.146A.314.314,0,0,1,180.046,315.81Zm-65.223-.036c-3.881,0-7.026-3.836-7.026-8.567V291.173c0-4.73,3.146-8.566,7.026-8.566h44.941V260.216c0-4.731,3.146-8.567,7.027-8.567h45.486c3.881,0,7.026,3.836,7.026,8.567V276.25c0,4.731-3.146,8.567-7.026,8.567H167.336v4.4h-.186a10.38,10.38,0,0,1,.186,1.957v16.034c0,4.731-3.146,8.567-7.027,8.567Zm110.732-1.607a1.376,1.376,0,0,1-.564-.552,1.76,1.76,0,0,1-.208-.887v-1.659a.236.236,0,0,1,.07-.173.234.234,0,0,1,.172-.069.241.241,0,0,1,.179.069.236.236,0,0,1,.07.173v1.659a1.262,1.262,0,0,0,.15.651.954.954,0,0,0,.408.383,1.308,1.308,0,0,0,.584.128,1.285,1.285,0,0,0,.564-.122,1,1,0,0,0,.4-.331.825.825,0,0,0,.147-.479v-1.888a.229.229,0,0,1,.242-.242.248.248,0,0,1,.179.067.23.23,0,0,1,.07.176v3a.239.239,0,0,1-.07.182.248.248,0,0,1-.179.067.237.237,0,0,1-.175-.067.247.247,0,0,1-.067-.182v-.218a1.445,1.445,0,0,1-.409.323,1.558,1.558,0,0,1-.752.182A1.7,1.7,0,0,1,225.554,314.168Zm21.037.054a1.4,1.4,0,0,1-.6-.382.2.2,0,0,1-.057-.172.255.255,0,0,1,.1-.167.254.254,0,0,1,.344.032.977.977,0,0,0,.406.274,1.555,1.555,0,0,0,.558.1,1.123,1.123,0,0,0,.682-.163.505.505,0,0,0,.218-.392.449.449,0,0,0-.218-.38,1.834,1.834,0,0,0-.715-.232,1.93,1.93,0,0,1-.944-.357.773.773,0,0,1-.3-.606.845.845,0,0,1,.173-.543,1.03,1.03,0,0,1,.459-.325,1.757,1.757,0,0,1,.632-.109,1.7,1.7,0,0,1,.736.147,1.342,1.342,0,0,1,.5.4.221.221,0,0,1,.05.172.2.2,0,0,1-.1.147.257.257,0,0,1-.176.029.287.287,0,0,1-.169-.093.971.971,0,0,0-.37-.271,1.272,1.272,0,0,0-.485-.086.982.982,0,0,0-.561.144.427.427,0,0,0-.131.616.648.648,0,0,0,.274.191,2.462,2.462,0,0,0,.545.14,2.421,2.421,0,0,1,.756.227.977.977,0,0,1,.4.351.85.85,0,0,1,.118.437.835.835,0,0,1-.176.526,1.148,1.148,0,0,1-.485.354,1.845,1.845,0,0,1-.711.128A2.267,2.267,0,0,1,246.592,314.221Zm-3.438,0a1.4,1.4,0,0,1-.6-.382.2.2,0,0,1-.058-.172.263.263,0,0,1,.1-.167.255.255,0,0,1,.345.032.968.968,0,0,0,.4.274,1.558,1.558,0,0,0,.558.1,1.125,1.125,0,0,0,.683-.163.5.5,0,0,0,.217-.392.45.45,0,0,0-.217-.38,1.84,1.84,0,0,0-.715-.232,1.922,1.922,0,0,1-.943-.357.774.774,0,0,1-.3-.606.85.85,0,0,1,.173-.543,1.036,1.036,0,0,1,.459-.325,1.765,1.765,0,0,1,.632-.109,1.7,1.7,0,0,1,.737.147,1.339,1.339,0,0,1,.5.4.225.225,0,0,1,.051.172.209.209,0,0,1-.1.147.254.254,0,0,1-.175.029.284.284,0,0,1-.169-.093.978.978,0,0,0-.37-.271,1.271,1.271,0,0,0-.485-.086.984.984,0,0,0-.562.144.425.425,0,0,0-.13.616.642.642,0,0,0,.274.191,2.449,2.449,0,0,0,.545.14,2.436,2.436,0,0,1,.756.227.974.974,0,0,1,.4.351.85.85,0,0,1,.118.437.835.835,0,0,1-.176.526,1.145,1.145,0,0,1-.484.354,1.85,1.85,0,0,1-.712.128A2.262,2.262,0,0,1,243.154,314.221Zm-3.722-.1a1.626,1.626,0,0,1-.625-.629,1.837,1.837,0,0,1-.227-.918,1.928,1.928,0,0,1,.213-.922,1.613,1.613,0,0,1,.59-.628,1.633,1.633,0,0,1,.868-.229,1.6,1.6,0,0,1,.845.22,1.487,1.487,0,0,1,.558.61,1.922,1.922,0,0,1,.2.887.213.213,0,0,1-.064.162.227.227,0,0,1-.166.061h-2.577a1.32,1.32,0,0,0,.162.529,1.241,1.241,0,0,0,.463.473,1.306,1.306,0,0,0,.676.172,1.42,1.42,0,0,0,.463-.079,1.141,1.141,0,0,0,.374-.2.261.261,0,0,1,.159-.06.224.224,0,0,1,.153.048.241.241,0,0,1,.086.166.184.184,0,0,1-.074.153,1.714,1.714,0,0,1-.536.3,1.86,1.86,0,0,1-1.541-.108Zm.182-2.715a1.158,1.158,0,0,0-.424.476,1.424,1.424,0,0,0-.133.443h2.335a1.38,1.38,0,0,0-.126-.465,1.1,1.1,0,0,0-.4-.46,1.124,1.124,0,0,0-.616-.166A1.177,1.177,0,0,0,239.613,311.408Zm-9.977,2.813a1.4,1.4,0,0,1-.6-.382.2.2,0,0,1-.057-.172.255.255,0,0,1,.1-.167.252.252,0,0,1,.185-.05.255.255,0,0,1,.159.083.968.968,0,0,0,.4.274,1.555,1.555,0,0,0,.558.1,1.123,1.123,0,0,0,.682-.163.5.5,0,0,0,.217-.392.448.448,0,0,0-.217-.38,1.834,1.834,0,0,0-.715-.232,1.93,1.93,0,0,1-.944-.357.773.773,0,0,1-.3-.606.845.845,0,0,1,.173-.543,1.03,1.03,0,0,1,.459-.325,1.761,1.761,0,0,1,.632-.109,1.7,1.7,0,0,1,.736.147,1.342,1.342,0,0,1,.5.4.221.221,0,0,1,.05.172.2.2,0,0,1-.1.147.257.257,0,0,1-.175.029.282.282,0,0,1-.168-.093.981.981,0,0,0-.371-.271,1.265,1.265,0,0,0-.485-.086.982.982,0,0,0-.561.144.425.425,0,0,0-.131.616.642.642,0,0,0,.275.191,2.439,2.439,0,0,0,.544.14,2.421,2.421,0,0,1,.756.227.977.977,0,0,1,.4.351.85.85,0,0,1,.118.437.835.835,0,0,1-.175.526,1.148,1.148,0,0,1-.485.354,1.842,1.842,0,0,1-.711.128A2.262,2.262,0,0,1,229.637,314.221Zm-8.43-.1a1.7,1.7,0,0,1-.631-.628,1.778,1.778,0,0,1-.239-.9v-3.011a.245.245,0,0,1,.067-.182.248.248,0,0,1,.182-.067.238.238,0,0,1,.175.067.245.245,0,0,1,.068.182v1.876a1.54,1.54,0,0,1,.558-.482,1.64,1.64,0,0,1,.775-.182,1.676,1.676,0,0,1,.88.233,1.7,1.7,0,0,1,.616.634,1.812,1.812,0,0,1,.227.906,1.789,1.789,0,0,1-.233.912,1.7,1.7,0,0,1-.635.634,1.884,1.884,0,0,1-1.809,0Zm.239-2.7a1.208,1.208,0,0,0-.459.475,1.475,1.475,0,0,0,0,1.362,1.245,1.245,0,0,0,.459.475,1.288,1.288,0,0,0,1.783-.475,1.454,1.454,0,0,0,0-1.362,1.229,1.229,0,0,0-.463-.475,1.347,1.347,0,0,0-1.32,0Zm-9.15,2.708a1.629,1.629,0,0,1-.626-.629,1.837,1.837,0,0,1-.227-.918,1.918,1.918,0,0,1,.214-.922,1.611,1.611,0,0,1,.59-.628,1.633,1.633,0,0,1,.868-.229,1.6,1.6,0,0,1,.845.22,1.487,1.487,0,0,1,.558.61,1.921,1.921,0,0,1,.2.887.216.216,0,0,1-.063.162.229.229,0,0,1-.167.061H211.91a1.307,1.307,0,0,0,.163.529,1.245,1.245,0,0,0,.462.473,1.309,1.309,0,0,0,.676.172,1.416,1.416,0,0,0,.463-.079,1.132,1.132,0,0,0,.374-.2.261.261,0,0,1,.159-.06.224.224,0,0,1,.153.048.234.234,0,0,1,.086.166.183.183,0,0,1-.073.153,1.729,1.729,0,0,1-.536.3,1.858,1.858,0,0,1-1.54-.108Zm.181-2.715a1.158,1.158,0,0,0-.424.476,1.424,1.424,0,0,0-.133.443h2.336a1.4,1.4,0,0,0-.127-.465,1.093,1.093,0,0,0-.4-.46,1.12,1.12,0,0,0-.616-.166A1.182,1.182,0,0,0,212.477,311.408Zm-9.227,2.715a1.635,1.635,0,0,1-.626-.629,1.846,1.846,0,0,1-.226-.918,1.928,1.928,0,0,1,.213-.922,1.613,1.613,0,0,1,.59-.628,1.63,1.63,0,0,1,.867-.229,1.593,1.593,0,0,1,.845.22,1.483,1.483,0,0,1,.559.61,1.933,1.933,0,0,1,.2.887.213.213,0,0,1-.064.162.228.228,0,0,1-.167.061h-2.576a1.306,1.306,0,0,0,.162.529,1.241,1.241,0,0,0,.463.473,1.3,1.3,0,0,0,.676.172,1.415,1.415,0,0,0,.462-.079,1.137,1.137,0,0,0,.374-.2.259.259,0,0,1,.159-.06.224.224,0,0,1,.153.048.236.236,0,0,1,.086.166.183.183,0,0,1-.073.153,1.709,1.709,0,0,1-.536.3,1.858,1.858,0,0,1-1.54-.108Zm.182-2.715a1.166,1.166,0,0,0-.425.476,1.449,1.449,0,0,0-.133.443h2.336a1.4,1.4,0,0,0-.127-.465,1.091,1.091,0,0,0-.4-.46,1.125,1.125,0,0,0-.617-.166A1.176,1.176,0,0,0,203.432,311.408Zm-4.487,2.712a1.706,1.706,0,0,1-.632-.628,1.787,1.787,0,0,1-.239-.9v-3.011a.23.23,0,0,1,.249-.248.237.237,0,0,1,.175.067.245.245,0,0,1,.067.182v1.876a1.54,1.54,0,0,1,.558-.482,1.64,1.64,0,0,1,.775-.182,1.677,1.677,0,0,1,1.5.868,1.812,1.812,0,0,1,.227.906,1.789,1.789,0,0,1-.232.912,1.713,1.713,0,0,1-.635.634,1.783,1.783,0,0,1-.912.233A1.763,1.763,0,0,1,198.944,314.12Zm.239-2.7a1.21,1.21,0,0,0-.46.475,1.482,1.482,0,0,0,0,1.362,1.255,1.255,0,0,0,1.117.651,1.264,1.264,0,0,0,1.126-.651,1.461,1.461,0,0,0,0-1.362,1.242,1.242,0,0,0-.463-.475,1.284,1.284,0,0,0-.663-.173A1.268,1.268,0,0,0,199.184,311.415Zm-6.807,2.7a1.7,1.7,0,0,1-.634-.634,1.781,1.781,0,0,1-.233-.912,1.812,1.812,0,0,1,.227-.906,1.674,1.674,0,0,1,1.5-.868,1.623,1.623,0,0,1,.771.182,1.546,1.546,0,0,1,.555.482v-1.876a.24.24,0,0,1,.07-.182.273.273,0,0,1,.357,0,.24.24,0,0,1,.07.182V312.6a1.849,1.849,0,0,1-.246.9,1.7,1.7,0,0,1-.632.628,1.87,1.87,0,0,1-1.8,0Zm.248-2.7a1.255,1.255,0,0,0-.465.475,1.434,1.434,0,0,0,0,1.362,1.3,1.3,0,0,0,.465.475,1.324,1.324,0,0,0,1.318,0,1.288,1.288,0,0,0,.46-.475,1.461,1.461,0,0,0,0-1.362,1.248,1.248,0,0,0-.46-.475,1.342,1.342,0,0,0-1.318,0Zm-8.892,2.7a1.677,1.677,0,0,1-.632-.632,1.94,1.94,0,0,1,0-1.831,1.677,1.677,0,0,1,.632-.632,1.922,1.922,0,0,1,1.822,0,1.674,1.674,0,0,1,.628.632,1.871,1.871,0,0,1,.236.919,1.789,1.789,0,0,1-.232.912,1.7,1.7,0,0,1-.632.632,1.922,1.922,0,0,1-1.822,0Zm.249-2.7a1.229,1.229,0,0,0-.463.475,1.374,1.374,0,0,0-.169.686,1.356,1.356,0,0,0,.169.682,1.238,1.238,0,0,0,.463.472,1.36,1.36,0,0,0,1.327,0,1.216,1.216,0,0,0,.459-.472,1.382,1.382,0,0,0,.166-.682,1.4,1.4,0,0,0-.166-.686,1.208,1.208,0,0,0-.459-.475,1.359,1.359,0,0,0-1.327,0Zm-7.671,2.708a1.623,1.623,0,0,1-.625-.629,1.837,1.837,0,0,1-.227-.918,1.918,1.918,0,0,1,.214-.922,1.611,1.611,0,0,1,.589-.628,1.633,1.633,0,0,1,.868-.229,1.6,1.6,0,0,1,.845.22,1.487,1.487,0,0,1,.558.61,1.922,1.922,0,0,1,.2.887.215.215,0,0,1-.063.162.229.229,0,0,1-.166.061h-2.577a1.307,1.307,0,0,0,.163.529,1.245,1.245,0,0,0,.462.473,1.306,1.306,0,0,0,.676.172,1.416,1.416,0,0,0,.463-.079,1.132,1.132,0,0,0,.374-.2.261.261,0,0,1,.159-.06.224.224,0,0,1,.153.048.234.234,0,0,1,.086.166.182.182,0,0,1-.074.153,1.714,1.714,0,0,1-.536.3,1.858,1.858,0,0,1-1.54-.108Zm.181-2.715a1.158,1.158,0,0,0-.424.476,1.424,1.424,0,0,0-.133.443h2.336a1.4,1.4,0,0,0-.127-.465,1.093,1.093,0,0,0-.4-.46,1.122,1.122,0,0,0-.616-.166A1.182,1.182,0,0,0,176.493,311.408Zm60.767,2.84a.234.234,0,0,1-.07-.172v-1.66a1.282,1.282,0,0,0-.149-.651.967.967,0,0,0-.409-.383,1.31,1.31,0,0,0-.584-.128,1.284,1.284,0,0,0-.564.122,1.013,1.013,0,0,0-.4.331.819.819,0,0,0-.147.479v1.889a.23.23,0,0,1-.242.241.242.242,0,0,1-.182-.067.234.234,0,0,1-.067-.175v-3a.231.231,0,0,1,.249-.248.233.233,0,0,1,.175.067.244.244,0,0,1,.068.182v.215a1.479,1.479,0,0,1,.409-.32,1.556,1.556,0,0,1,.752-.182,1.712,1.712,0,0,1,.81.188,1.376,1.376,0,0,1,.564.552,1.762,1.762,0,0,1,.208.887v1.66a.238.238,0,0,1-.243.241A.241.241,0,0,1,237.26,314.248Zm-4.488,0a.247.247,0,0,1-.067-.182v-2.992a.23.23,0,0,1,.249-.248.233.233,0,0,1,.175.067.244.244,0,0,1,.068.182v2.992a.244.244,0,0,1-.068.182.233.233,0,0,1-.175.067A.245.245,0,0,1,232.771,314.25Zm-17.162,0a.238.238,0,0,1-.064-.178v-3.005a.221.221,0,0,1,.242-.242.221.221,0,0,1,.243.242v.277a1.38,1.38,0,0,1,.418-.38,1.3,1.3,0,0,1,.672-.178,1.007,1.007,0,0,1,.454.083.2.2,0,0,1,.121.243.193.193,0,0,1-.086.127.27.27,0,0,1-.147.026l-.194-.014a1.429,1.429,0,0,0-.635.074.964.964,0,0,0-.44.322.838.838,0,0,0-.162.517v1.908a.241.241,0,0,1-.064.178.244.244,0,0,1-.179.063A.241.241,0,0,1,215.609,314.254Zm-5.18.063a1.135,1.135,0,0,1-1.021-.6,1.3,1.3,0,0,1-.153-.634v-1.7h-.415a.221.221,0,0,1-.159-.06.2.2,0,0,1-.064-.15.21.21,0,0,1,.064-.157.225.225,0,0,1,.159-.06h.415v-.989a.247.247,0,0,1,.068-.178.229.229,0,0,1,.175-.07.24.24,0,0,1,.249.248v.989h.721a.225.225,0,0,1,.159.06.207.207,0,0,1,.064.157.2.2,0,0,1-.064.15.221.221,0,0,1-.159.06h-.721v1.7a.751.751,0,0,0,.192.532.637.637,0,0,0,.49.208h.173a.212.212,0,0,1,.166.07.257.257,0,0,1,.064.179.217.217,0,0,1-.077.175.276.276,0,0,1-.191.067Zm-2.564,0a1.132,1.132,0,0,1-1.021-.6,1.3,1.3,0,0,1-.153-.634v-1.7h-.415a.221.221,0,0,1-.159-.06.2.2,0,0,1-.064-.15.21.21,0,0,1,.064-.157.225.225,0,0,1,.159-.06h.415v-.989a.247.247,0,0,1,.068-.178.229.229,0,0,1,.175-.07.243.243,0,0,1,.179.07.241.241,0,0,1,.069.178v.989h.722a.226.226,0,0,1,.159.06.21.21,0,0,1,.064.157.2.2,0,0,1-.064.15.222.222,0,0,1-.159.06h-.722v1.7a.751.751,0,0,0,.192.532.639.639,0,0,0,.491.208h.173a.214.214,0,0,1,.166.07.256.256,0,0,1,.063.179.219.219,0,0,1-.077.175.276.276,0,0,1-.191.067Zm-17.676-.069a.234.234,0,0,1-.07-.172v-1.66a1.273,1.273,0,0,0-.15-.651.96.96,0,0,0-.408-.383,1.309,1.309,0,0,0-.583-.128,1.283,1.283,0,0,0-.565.122,1.013,1.013,0,0,0-.4.331.819.819,0,0,0-.147.479v1.889a.23.23,0,0,1-.243.241.241.241,0,0,1-.181-.067.234.234,0,0,1-.068-.175v-3a.244.244,0,0,1,.068-.182.241.241,0,0,1,.181-.067.234.234,0,0,1,.176.067.244.244,0,0,1,.067.182v.215a1.479,1.479,0,0,1,.409-.32,1.558,1.558,0,0,1,.752-.182,1.715,1.715,0,0,1,.81.188,1.376,1.376,0,0,1,.564.552,1.763,1.763,0,0,1,.208.887v1.66a.238.238,0,0,1-.243.241A.241.241,0,0,1,190.189,314.248Zm-18.634.069a.3.3,0,0,1-.2-.067.225.225,0,0,1-.08-.182v-4.485a.24.24,0,0,1,.249-.248h1.55a1.457,1.457,0,0,1,.692.163,1.284,1.284,0,0,1,.491.443,1.168,1.168,0,0,1,.182.651,1.053,1.053,0,0,1-.184.613,1.211,1.211,0,0,1-.485.409,1.3,1.3,0,0,1,.689.43,1.212,1.212,0,0,1,.262.8,1.461,1.461,0,0,1-.2.765,1.4,1.4,0,0,1-.545.52,1.644,1.644,0,0,1-.794.187Zm.217-.478h1.41a1.166,1.166,0,0,0,.542-.122.9.9,0,0,0,.37-.344,1.014,1.014,0,0,0,.134-.529.925.925,0,0,0-.134-.5.9.9,0,0,0-.37-.332,1.2,1.2,0,0,0-.542-.118h-1.41Zm0-2.424h1.3a.925.925,0,0,0,.632-.218.76.76,0,0,0,.248-.606.7.7,0,0,0-.248-.58.985.985,0,0,0-.632-.2h-1.3Zm60.933-1.353a.34.34,0,0,1-.1-.248.319.319,0,0,1,.1-.252.364.364,0,0,1,.247-.094.35.35,0,0,1,.238.094.317.317,0,0,1,.105.252.347.347,0,0,1-.351.35A.334.334,0,0,1,232.7,310.063Zm1.073-2.618a.721.721,0,0,1-.2-.531v-8.79a5.234,5.234,0,0,1,.7-2.616,4.974,4.974,0,0,1,1.844-1.834,5.142,5.142,0,0,1,2.616-.671,5.218,5.218,0,0,1,2.663.68,5.015,5.015,0,0,1,1.853,1.853,5.217,5.217,0,0,1,.68,2.663,5.3,5.3,0,0,1-.661,2.644,4.892,4.892,0,0,1-4.368,2.533,4.81,4.81,0,0,1-2.263-.53,4.5,4.5,0,0,1-1.63-1.407v5.476a.718.718,0,0,1-.2.531.693.693,0,0,1-.512.2A.718.718,0,0,1,233.778,307.445Zm3.046-12.627a3.631,3.631,0,0,0-1.341,1.388,4.324,4.324,0,0,0,0,3.976,3.549,3.549,0,0,0,1.341,1.387,3.712,3.712,0,0,0,1.918.5,3.751,3.751,0,0,0,1.937-.5,3.628,3.628,0,0,0,1.35-1.387,4.247,4.247,0,0,0,0-3.976,3.688,3.688,0,0,0-3.287-1.9A3.659,3.659,0,0,0,236.823,294.818Zm-32.041,8.306a5.3,5.3,0,0,1-1.76-.978,4.289,4.289,0,0,1-1.136-1.471.562.562,0,0,1-.01-.55.737.737,0,0,1,.475-.344.673.673,0,0,1,.512.056.866.866,0,0,1,.382.391,2.978,2.978,0,0,0,.82.968,3.924,3.924,0,0,0,1.284.661,5.464,5.464,0,0,0,1.639.233,4.421,4.421,0,0,0,1.751-.327,2.741,2.741,0,0,0,1.2-.949,2.576,2.576,0,0,0,.438-1.517,2.64,2.64,0,0,0-.839-1.956,4.469,4.469,0,0,0-2.626-1.043,6.1,6.1,0,0,1-3.407-1.35,3.437,3.437,0,0,1-1.229-2.673,3.278,3.278,0,0,1,.606-1.974,3.892,3.892,0,0,1,1.667-1.294,6.128,6.128,0,0,1,2.439-.456,5.048,5.048,0,0,1,3.325,1.183,4.932,4.932,0,0,1,1.015,1.165.746.746,0,0,1,.121.577.652.652,0,0,1-.327.428.777.777,0,0,1-1.005-.317,4.182,4.182,0,0,0-.7-.81,3.1,3.1,0,0,0-1.015-.606,4.386,4.386,0,0,0-1.434-.242,4.055,4.055,0,0,0-2.365.624,2.076,2.076,0,0,0-.895,1.816,2.139,2.139,0,0,0,.336,1.164,2.648,2.648,0,0,0,1.108.913,7.016,7.016,0,0,0,2.076.568,6.13,6.13,0,0,1,3.455,1.425,3.772,3.772,0,0,1,1.127,2.84,4.2,4.2,0,0,1-.363,1.787,3.611,3.611,0,0,1-1.025,1.313,4.7,4.7,0,0,1-1.545.811,6.276,6.276,0,0,1-1.891.279A6.82,6.82,0,0,1,204.782,303.124ZM248.127,303a4.094,4.094,0,0,1-1.751-1.118.6.6,0,0,1-.167-.5.751.751,0,0,1,.279-.483.733.733,0,0,1,.54-.149.742.742,0,0,1,.466.242,2.853,2.853,0,0,0,1.183.8,4.55,4.55,0,0,0,1.629.279,3.286,3.286,0,0,0,1.993-.475,1.464,1.464,0,0,0,.634-1.145,1.307,1.307,0,0,0-.634-1.109,5.393,5.393,0,0,0-2.085-.68,5.614,5.614,0,0,1-2.757-1.043,2.256,2.256,0,0,1-.876-1.769,2.467,2.467,0,0,1,.5-1.582,3.047,3.047,0,0,1,1.341-.95,5.191,5.191,0,0,1,1.844-.316,4.993,4.993,0,0,1,2.15.428,3.944,3.944,0,0,1,1.463,1.155.652.652,0,0,1,.148.5.6.6,0,0,1-.3.428.744.744,0,0,1-.512.084.829.829,0,0,1-.493-.27,2.844,2.844,0,0,0-1.08-.792,3.741,3.741,0,0,0-1.416-.251,2.861,2.861,0,0,0-1.639.419,1.245,1.245,0,0,0-.382,1.8,1.881,1.881,0,0,0,.8.558,7.116,7.116,0,0,0,1.592.41,7.058,7.058,0,0,1,2.207.661,2.871,2.871,0,0,1,1.155,1.025,2.475,2.475,0,0,1,.345,1.275,2.433,2.433,0,0,1-.512,1.536A3.369,3.369,0,0,1,252.383,303a5.426,5.426,0,0,1-2.076.372A6.663,6.663,0,0,1,248.127,303Zm-24.034-.289a4.76,4.76,0,0,1-1.825-1.834,5.376,5.376,0,0,1-.661-2.682,5.611,5.611,0,0,1,.624-2.691,4.71,4.71,0,0,1,1.723-1.834,4.762,4.762,0,0,1,2.533-.671,4.638,4.638,0,0,1,2.468.642,4.355,4.355,0,0,1,1.63,1.778,5.646,5.646,0,0,1,.577,2.589.627.627,0,0,1-.185.475.677.677,0,0,1-.485.176h-7.52a3.884,3.884,0,0,0,.472,1.546,3.642,3.642,0,0,0,1.35,1.378,3.833,3.833,0,0,0,1.975.5,4.133,4.133,0,0,0,1.35-.233,3.3,3.3,0,0,0,1.09-.587.763.763,0,0,1,.465-.177.659.659,0,0,1,.446.14.688.688,0,0,1,.252.483.538.538,0,0,1-.214.447,5.048,5.048,0,0,1-1.564.866,5.421,5.421,0,0,1-4.5-.316Zm.531-7.924a3.364,3.364,0,0,0-1.238,1.388,4.2,4.2,0,0,0-.389,1.294h6.819a4.016,4.016,0,0,0-.369-1.359,3.19,3.19,0,0,0-1.164-1.342,3.258,3.258,0,0,0-1.8-.484A3.431,3.431,0,0,0,224.625,294.79ZM180.73,303a4.094,4.094,0,0,1-1.751-1.118.6.6,0,0,1-.167-.5.751.751,0,0,1,.279-.483.742.742,0,0,1,1.006.093,2.859,2.859,0,0,0,1.183.8,4.55,4.55,0,0,0,1.629.279,3.286,3.286,0,0,0,1.993-.475,1.461,1.461,0,0,0,.634-1.145,1.307,1.307,0,0,0-.634-1.109,5.392,5.392,0,0,0-2.085-.68,5.614,5.614,0,0,1-2.757-1.043,2.255,2.255,0,0,1-.875-1.769,2.462,2.462,0,0,1,.5-1.582,3.044,3.044,0,0,1,1.34-.95,5.191,5.191,0,0,1,1.844-.316,4.993,4.993,0,0,1,2.15.428,3.944,3.944,0,0,1,1.462,1.155.652.652,0,0,1,.149.5.6.6,0,0,1-.3.428.744.744,0,0,1-.512.084.829.829,0,0,1-.493-.27,2.844,2.844,0,0,0-1.08-.792,3.738,3.738,0,0,0-1.416-.251,2.861,2.861,0,0,0-1.639.419,1.245,1.245,0,0,0-.382,1.8,1.886,1.886,0,0,0,.8.558,7.116,7.116,0,0,0,1.592.41,7.071,7.071,0,0,1,2.208.661,2.883,2.883,0,0,1,1.155,1.025,2.483,2.483,0,0,1,.344,1.275,2.433,2.433,0,0,1-.512,1.536A3.371,3.371,0,0,1,184.986,303a5.434,5.434,0,0,1-2.077.372A6.663,6.663,0,0,1,180.73,303Zm37.917.279a3.308,3.308,0,0,1-2.98-1.742,3.772,3.772,0,0,1-.447-1.853v-4.973h-1.211a.647.647,0,0,1-.465-.177.576.576,0,0,1-.186-.436.6.6,0,0,1,.186-.457.654.654,0,0,1,.465-.176h1.211V290.58a.725.725,0,0,1,.2-.521.676.676,0,0,1,.512-.205.7.7,0,0,1,.726.726v2.887h2.1a.652.652,0,0,1,.465.176.6.6,0,0,1,.186.457.576.576,0,0,1-.186.436.645.645,0,0,1-.465.177h-2.1v4.973a2.2,2.2,0,0,0,.558,1.555,1.862,1.862,0,0,0,1.435.6h.5a.626.626,0,0,1,.484.205.747.747,0,0,1,.187.522.648.648,0,0,1-.224.512.821.821,0,0,1-.559.2Zm-25.272,0a3.308,3.308,0,0,1-2.979-1.742,3.762,3.762,0,0,1-.447-1.853v-4.973h-1.211a.648.648,0,0,1-.466-.177.579.579,0,0,1-.186-.436.606.606,0,0,1,.186-.457.654.654,0,0,1,.466-.176h1.211V290.58a.724.724,0,0,1,.2-.521.678.678,0,0,1,.512-.205.7.7,0,0,1,.726.726v2.887h2.1a.656.656,0,0,1,.466.176.606.606,0,0,1,.186.457.579.579,0,0,1-.186.436.649.649,0,0,1-.466.177h-2.1v4.973a2.2,2.2,0,0,0,.559,1.555,1.86,1.86,0,0,0,1.434.6h.5a.628.628,0,0,1,.484.205.746.746,0,0,1,.186.522.65.65,0,0,1-.223.512.823.823,0,0,1-.559.2Zm-18.8-.205a.686.686,0,0,1-.213-.521v-12.1l-1.863.652a.909.909,0,0,1-.373.093.7.7,0,0,1-.521-.2.684.684,0,0,1-.205-.5.833.833,0,0,1,.1-.41.633.633,0,0,1,.364-.279l2.868-.987a1.722,1.722,0,0,1,.2-.066.709.709,0,0,1,.176-.028.662.662,0,0,1,.512.214.733.733,0,0,1,.2.512v13.111a.731.731,0,0,1-1.239.521Z" transform="translate(-2794.818 2524.293)" stroke="rgba(0,0,0,0)" stroke-width="1" fill="url(#linear-gradient)"/>
    <path id="Path_82568" data-name="Path 82568" d="M-2449.4,2657.792c-1.733,2.284-3.078,4.018-4.382,5.782a120.019,120.019,0,0,1-19.755,20.725c-7.16,5.99-14.615,11.419-23.13,15.306a23.207,23.207,0,0,1-4.21,1.55,8.036,8.036,0,0,1-2.675-.4c.438-2.223,2.067-2.741,3.456-3.484,4.359-2.33,8.9-4.377,13.049-7.037a109.639,109.639,0,0,0,26.789-23.637c2.054-2.565,4.1-5.139,6.1-7.744C-2453.107,2657.478-2453.126,2657.47-2449.4,2657.792Z" transform="translate(147.145 67.354)" fill="url(#linear-gradient-2)"/>
    <path id="Path_82571" data-name="Path 82571" d="M-2454.619,2655.375l2.69.968c.372,5.5.4,10.572,1.132,15.544.873,5.943,3.61,11.2,9.791,12.864a23.265,23.265,0,0,0,11.53.116,51.042,51.042,0,0,0,25.829-15.643,40.305,40.305,0,0,0,4.159-6.387c1.129-1.931,2.064-3.977,3.181-6.161l2.612.56a6.42,6.42,0,0,1-.154,1.533c-6.566,16.464-19.607,25.309-35.98,29.859a23.539,23.539,0,0,1-10.708-.008c-7.242-1.514-10.928-7.037-13.021-13.624C-2455.51,2668.866-2454.28,2662.547-2454.619,2655.375Z" transform="translate(171.827 66.221)" fill="url(#linear-gradient-2)"/>
    <path id="Path_82572" data-name="Path 82572" d="M-2441.519,2676.331l-2.831-.328c2.21-25.233,7.963-49.754,9.284-74.8.017-.31.587-.592,1.275-1.242a11.888,11.888,0,0,1,1.052,2.9,39.378,39.378,0,0,1,.02,6.3c-.578,6.246-1.164,12.5-1.99,18.716-1.337,10.062-2.883,20.1-4.309,30.144C-2439.855,2663.918-2440.632,2669.822-2441.519,2676.331Z" transform="translate(177.053 38.225)" fill="url(#linear-gradient-2)"/>
  </g>
</svg>
