<svg xmlns="http://www.w3.org/2000/svg" width="210" height="55.823" viewBox="0 0 210 55.823">
  <path id="Logo" d="M-1.645,131.823c-3.37,0-6.066-3.326-6.066-7.416V110.563c0-4.091,2.7-7.416,6.066-7.416H37.144V83.82c0-4.09,2.7-7.416,6.068-7.416H82.493c3.371,0,6.068,3.283,6.068,7.371V97.617c0,4.09-2.7,7.417-6.068,7.417H43.7v3.819h-.179a7.164,7.164,0,0,1,.179,1.708v13.846c0,4.09-2.7,7.416-6.066,7.416Zm98.072-1.574V76h1.349v54.25Zm18.518-10.563a.3.3,0,0,1-.218-.363.314.314,0,0,1,.038-.089l.755-1.722-1.654-3.132a.286.286,0,0,1,0-.271.347.347,0,0,1,.18-.179.278.278,0,0,1,.269,0,.347.347,0,0,1,.18.179l1.34,2.681,1.176-2.681a.3.3,0,0,1,.365-.217.307.307,0,0,1,.088.038.3.3,0,0,1,.218.363.285.285,0,0,1-.038.089l-2.292,5.124c.045.135-.089.226-.226.226a.345.345,0,0,1-.18-.046Zm77.892-1.887a1.905,1.905,0,0,1-.679-.405.329.329,0,0,1-.089-.269.388.388,0,0,1,.135-.269.379.379,0,0,1,.315-.089.322.322,0,0,1,.269.135,1.541,1.541,0,0,0,.4.271,1.43,1.43,0,0,0,.628.135,1.5,1.5,0,0,0,.679-.135.463.463,0,0,0,.226-.36.474.474,0,0,0-.226-.4,2.7,2.7,0,0,0-.809-.271,2.429,2.429,0,0,1-1.079-.453.936.936,0,0,1-.36-.719.973.973,0,0,1,.226-.628,1.279,1.279,0,0,1,.584-.36,2.03,2.03,0,0,1,.719-.136,2.409,2.409,0,0,1,.854.136,1.446,1.446,0,0,1,.585.453.329.329,0,0,1,.089.269.247.247,0,0,1-.135.226.3.3,0,0,1-.271.045.393.393,0,0,1-.271-.135.92.92,0,0,0-.4-.226,2.045,2.045,0,0,0-1.034.044.332.332,0,0,0-.137.541.417.417,0,0,0,.271.179,3.834,3.834,0,0,0,.629.18,7.527,7.527,0,0,1,.9.269,1.006,1.006,0,0,1,.453.4.964.964,0,0,1,.136.54,1.028,1.028,0,0,1-.18.628,1.82,1.82,0,0,1-.539.453,3.46,3.46,0,0,1-.944.135A2.09,2.09,0,0,1,192.837,117.8Zm-4.046,0a1.949,1.949,0,0,1-.679-.405.333.333,0,0,1-.088-.269.389.389,0,0,1,.135-.269.379.379,0,0,1,.315-.089.321.321,0,0,1,.269.135,1.59,1.59,0,0,0,.4.271,1.438,1.438,0,0,0,.629.135,1.508,1.508,0,0,0,.679-.135.46.46,0,0,0,.226-.36.474.474,0,0,0-.226-.4,2.687,2.687,0,0,0-.809-.271,2.416,2.416,0,0,1-1.079-.453.936.936,0,0,1-.36-.719.973.973,0,0,1,.226-.628,1.282,1.282,0,0,1,.585-.36,2.03,2.03,0,0,1,.719-.136,2.4,2.4,0,0,1,.854.136,1.466,1.466,0,0,1,.585.453.329.329,0,0,1,.089.269.246.246,0,0,1-.136.226.3.3,0,0,1-.269.045.391.391,0,0,1-.271-.135.92.92,0,0,0-.4-.226,2.05,2.05,0,0,0-1.035.044.332.332,0,0,0-.137.541.414.414,0,0,0,.271.179,3.791,3.791,0,0,0,.628.18,7.529,7.529,0,0,1,.9.269,1.011,1.011,0,0,1,.453.4.963.963,0,0,1,.135.54,1.034,1.034,0,0,1-.179.628,1.825,1.825,0,0,1-.54.453,3.2,3.2,0,0,1-.943.135,2.09,2.09,0,0,1-.945-.183Zm-4.315-.091a1.969,1.969,0,0,1-.764-.719,2.292,2.292,0,0,1,0-2.156,1.844,1.844,0,0,1,.719-.719,1.975,1.975,0,0,1,1.035-.269,1.7,1.7,0,0,1,.988.269,1.635,1.635,0,0,1,.629.719,2.507,2.507,0,0,1,.226,1.034.336.336,0,0,1-.091.226.343.343,0,0,1-.226.089H184.18a1.193,1.193,0,0,0,.161.453,1.731,1.731,0,0,0,.495.495,1.291,1.291,0,0,0,.764.179,1.584,1.584,0,0,0,.453-.089,3.565,3.565,0,0,0,.4-.179c.089-.046.136-.091.226-.091a.345.345,0,0,1,.226.091c.089.089.135.135.135.226a.247.247,0,0,1-.135.226,2.118,2.118,0,0,1-.629.315,2.429,2.429,0,0,1-.719.179,2.124,2.124,0,0,1-1.083-.278Zm2.151-2.112a1.7,1.7,0,0,0-.123-.453.97.97,0,0,0-.4-.453,1.032,1.032,0,0,0-.628-.179,1.227,1.227,0,0,0-.719.179,1.565,1.565,0,0,0-.453.495,1.867,1.867,0,0,0-.113.4Zm-4.887,2.292a.331.331,0,0,1-.089-.271v-1.843a1.485,1.485,0,0,0-.136-.674.869.869,0,0,0-.4-.4,1.326,1.326,0,0,0-1.169,0,.793.793,0,0,0-.4.359,1.026,1.026,0,0,0-.135.495h-.089v2.022a.654.654,0,0,1-.089.271.393.393,0,0,1-.271.135.633.633,0,0,1-.271-.089.331.331,0,0,1-.089-.271v-3.371a.376.376,0,0,1,.089-.269.327.327,0,0,1,.271-.091.387.387,0,0,1,.271.091.329.329,0,0,1,.089.269v.242a1.454,1.454,0,0,1,.495-.377,1.9,1.9,0,0,1,1.8,0,1.425,1.425,0,0,1,.628.629,2.345,2.345,0,0,1,.226,1.034v1.843a.654.654,0,0,1-.089.271,2.077,2.077,0,0,1-.361.089.627.627,0,0,1-.275-.089Zm-5.258,0a.331.331,0,0,1-.091-.271v-3.371a.377.377,0,0,1,.091-.269.326.326,0,0,1,.269-.091.38.38,0,0,1,.271.091.329.329,0,0,1,.089.269v3.326a.638.638,0,0,1-.089.271.272.272,0,0,1-.271.135.653.653,0,0,1-.274-.089ZM172.8,117.8a1.925,1.925,0,0,1-.674-.405.329.329,0,0,1-.091-.269.39.39,0,0,1,.136-.269.378.378,0,0,1,.314-.089.318.318,0,0,1,.271.135,1.589,1.589,0,0,0,.4.271,1.438,1.438,0,0,0,.629.135,1.5,1.5,0,0,0,.674-.135.451.451,0,0,0,.226-.36.474.474,0,0,0-.226-.4,2.7,2.7,0,0,0-.809-.271,2.417,2.417,0,0,1-1.078-.453.936.936,0,0,1-.36-.719.973.973,0,0,1,.226-.628,1.282,1.282,0,0,1,.585-.36,2.03,2.03,0,0,1,.719-.136,2.408,2.408,0,0,1,.854.136,1.46,1.46,0,0,1,.584.453.326.326,0,0,1,.091.269.248.248,0,0,1-.136.226.3.3,0,0,1-.269.045.389.389,0,0,1-.269-.135.919.919,0,0,0-.4-.226,2.05,2.05,0,0,0-1.035.044.341.341,0,0,0-.226.315.344.344,0,0,0,.091.226.414.414,0,0,0,.271.179,3.791,3.791,0,0,0,.628.18,7.588,7.588,0,0,1,.9.269,1.024,1.024,0,0,1,.453.4.972.972,0,0,1,.135.54,1.035,1.035,0,0,1-.18.628,1.8,1.8,0,0,1-.539.453,2.994,2.994,0,0,1-.943.135,2.091,2.091,0,0,1-.953-.183Zm-2.516.089a.331.331,0,0,1-.091-.271v-.189a1.528,1.528,0,0,1-.453.324,1.152,1.152,0,0,1-.809.226,1.9,1.9,0,0,1-.9-.226,1.419,1.419,0,0,1-.629-.628,2.36,2.36,0,0,1-.226-1.034v-1.843a.633.633,0,0,1,.089-.269.329.329,0,0,1,.271-.091.645.645,0,0,1,.269.091.326.326,0,0,1,.091.269v1.843a1.508,1.508,0,0,0,.135.679.885.885,0,0,0,.4.4,1.339,1.339,0,0,0,1.171,0,.788.788,0,0,0,.4-.36.9.9,0,0,0,.135-.495h.045v-2.068a.382.382,0,0,1,.091-.269.329.329,0,0,1,.271-.091.38.38,0,0,1,.271.091.329.329,0,0,1,.089.269v3.326a.671.671,0,0,1-.089.271.272.272,0,0,1-.271.135.629.629,0,0,1-.271-.094Zm-7.282-.18a2.2,2.2,0,0,1-.719-.719,2.079,2.079,0,0,1-.271-1.034v-3.371a.386.386,0,0,1,.089-.271.332.332,0,0,1,.271-.089.384.384,0,0,1,.271.089.475.475,0,0,1,.089.271v2.022a2.208,2.208,0,0,1,.629-.495,1.539,1.539,0,0,1,.809-.179,1.922,1.922,0,0,1,.988.269,2.075,2.075,0,0,1,.95,1.752,1.961,1.961,0,0,1-.271,1.034,1.829,1.829,0,0,1-.719.719,2.132,2.132,0,0,1-1.078.269,1.961,1.961,0,0,1-1.046-.268Zm.361-3.011a1.717,1.717,0,0,0-.495.495,1.41,1.41,0,0,0,.495,1.932,1.267,1.267,0,0,0,.679.179,1.084,1.084,0,0,0,.674-.179,1.186,1.186,0,0,0,.453-.495,1.525,1.525,0,0,0,0-1.438,1.6,1.6,0,0,0-.453-.495,1.083,1.083,0,0,0-.674-.179,1.171,1.171,0,0,0-.685.179ZM156.3,117.89a.386.386,0,0,1-.089-.271v-3.371a.382.382,0,0,1,.629-.269.371.371,0,0,1,.089.269v.179a1.953,1.953,0,0,1,.453-.359,1.829,1.829,0,0,1,.808-.226,1.258,1.258,0,0,1,.679.136.4.4,0,0,1,.18.36.231.231,0,0,1-.089.179c-.045.045-.091.045-.136.089h-.179a1.843,1.843,0,0,0-.854,0,.837.837,0,0,0-.585.315.952.952,0,0,0-.226.585h-.046v2.067a.374.374,0,0,1-.089.271.4.4,0,0,1-.55.045Zm-3.866-.18a1.953,1.953,0,0,1-.764-.719,2.292,2.292,0,0,1,0-2.156,1.844,1.844,0,0,1,.719-.719,1.974,1.974,0,0,1,1.034-.269,1.708,1.708,0,0,1,.989.269,1.62,1.62,0,0,1,.628.719,2.468,2.468,0,0,1,.226,1.034.306.306,0,0,1-.316.316H152.14a1.193,1.193,0,0,0,.161.453,1.735,1.735,0,0,0,.5.495,1.283,1.283,0,0,0,.764.179,1.624,1.624,0,0,0,.453-.089,3.562,3.562,0,0,0,.4-.179c.089-.046.135-.091.226-.091a.342.342,0,0,1,.226.091c.089.089.135.135.135.226a.247.247,0,0,1-.135.226,2.053,2.053,0,0,1-.629.315,2.42,2.42,0,0,1-.719.179,2.128,2.128,0,0,1-1.091-.28Zm2.144-2.112a1.656,1.656,0,0,0-.122-.453.993.993,0,0,0-.4-.453,1.035,1.035,0,0,0-.629-.179,1.227,1.227,0,0,0-.719.179,1.564,1.564,0,0,0-.453.495,1.8,1.8,0,0,0-.113.4Zm-4.482,2.377a1.217,1.217,0,0,1-1.132-.674,1.7,1.7,0,0,1-.18-.719V114.7h-.36a.635.635,0,0,1-.269-.091.328.328,0,0,1,0-.453.383.383,0,0,1,.269-.089h.36v-1.034a.635.635,0,0,1,.091-.269c.045-.091.179-.091.269-.091a.62.62,0,0,1,.271.091c.089.045.089.179.089.269v1.034h.629a.633.633,0,0,1,.269.089.328.328,0,0,1,0,.453.377.377,0,0,1-.269.091h-.629v1.887a.681.681,0,0,0,.18.495.438.438,0,0,0,.4.179h.269a.341.341,0,0,1,.226.089.638.638,0,0,1,.089.271.391.391,0,0,1-.135.271.379.379,0,0,1-.315.089Zm-3.011,0a1.217,1.217,0,0,1-1.132-.674,1.7,1.7,0,0,1-.18-.719V114.7h-.314a.639.639,0,0,1-.271-.091.331.331,0,0,1,0-.453.381.381,0,0,1,.271-.089h.314v-1.034a.651.651,0,0,1,.091-.269c.045-.091.179-.091.269-.091a.62.62,0,0,1,.271.091c.089.045.089.179.089.269v1.034h.679a.633.633,0,0,1,.269.089.331.331,0,0,1,0,.453.382.382,0,0,1-.269.091H146.5v1.887a.681.681,0,0,0,.18.495.438.438,0,0,0,.4.179h.271a.341.341,0,0,1,.226.089.638.638,0,0,1,.089.271.391.391,0,0,1-.135.271.379.379,0,0,1-.315.089Zm-5.259-.269a1.969,1.969,0,0,1-.764-.719,2.292,2.292,0,0,1,0-2.156,1.844,1.844,0,0,1,.719-.719,1.974,1.974,0,0,1,1.034-.269,1.7,1.7,0,0,1,.988.269,1.617,1.617,0,0,1,.629.719,2.508,2.508,0,0,1,.226,1.034.337.337,0,0,1-.091.226.341.341,0,0,1-.226.089h-2.813a1.193,1.193,0,0,0,.161.453,1.73,1.73,0,0,0,.495.495,1.283,1.283,0,0,0,.764.179,1.576,1.576,0,0,0,.453-.089,3.4,3.4,0,0,0,.4-.179c.091-.046.136-.091.226-.091a.34.34,0,0,1,.226.091c.091.089.136.135.136.226a.246.246,0,0,1-.136.226,2.047,2.047,0,0,1-.628.315,2.419,2.419,0,0,1-.719.179,2.126,2.126,0,0,1-1.09-.275Zm2.151-2.112a1.659,1.659,0,0,0-.123-.453.982.982,0,0,0-.4-.453,1.034,1.034,0,0,0-.628-.179,1.225,1.225,0,0,0-.719.179,1.565,1.565,0,0,0-.453.495,1.866,1.866,0,0,0-.113.4Zm-7.179,2.112a2.2,2.2,0,0,1-.719-.719,2.092,2.092,0,0,1-.269-1.034v-3.371a.384.384,0,0,1,.089-.271.33.33,0,0,1,.269-.089.381.381,0,0,1,.269.089.483.483,0,0,1,.089.271V114.6a2.188,2.188,0,0,1,.629-.495,1.539,1.539,0,0,1,.809-.179,1.922,1.922,0,0,1,.989.269,2.088,2.088,0,0,1,.944,1.752,1.948,1.948,0,0,1-.271,1.034,1.833,1.833,0,0,1-.718.719,2.139,2.139,0,0,1-1.079.269,1.958,1.958,0,0,1-1.046-.265Zm.36-3.011a1.731,1.731,0,0,0-.495.495,1.525,1.525,0,0,0,0,1.438,1.3,1.3,0,0,0,.495.495,1.379,1.379,0,0,0,1.358,0,1.2,1.2,0,0,0,.453-.495,1.534,1.534,0,0,0,0-1.438,1.617,1.617,0,0,0-.453-.495,1.086,1.086,0,0,0-.679-.179,1.172,1.172,0,0,0-.691.182Zm-7.955,3.011a2.192,2.192,0,0,1-.719-.719,2.079,2.079,0,0,1-.271-1.034,1.969,1.969,0,0,1,.271-1.034,2.076,2.076,0,0,1,.679-.719,1.811,1.811,0,0,1,.988-.269,1.536,1.536,0,0,1,.809.179,1.723,1.723,0,0,1,.629.495v-2.022a.384.384,0,0,1,.089-.271.33.33,0,0,1,.269-.089.384.384,0,0,1,.271.089.475.475,0,0,1,.089.271v3.371a1.992,1.992,0,0,1-.989,1.752,2.243,2.243,0,0,1-1.079.269,1.962,1.962,0,0,1-1.049-.267Zm.36-3.011a1.731,1.731,0,0,0-.495.495,1.41,1.41,0,0,0,.495,1.932,1.368,1.368,0,0,0,1.353,0,1.194,1.194,0,0,0,.453-.495,1.525,1.525,0,0,0,0-1.438,1.6,1.6,0,0,0-.453-.495,1.085,1.085,0,0,0-.679-.179,1.172,1.172,0,0,0-.685.182Zm-3.1,3.192a.331.331,0,0,1-.091-.271v-1.843a1.5,1.5,0,0,0-.135-.674.869.869,0,0,0-.4-.4,1.326,1.326,0,0,0-1.169,0,.8.8,0,0,0-.4.359,1.026,1.026,0,0,0-.135.495h-.091v2.022a.638.638,0,0,1-.089.271.272.272,0,0,1-.271.135.639.639,0,0,1-.269-.089.331.331,0,0,1-.091-.271v-3.371a.382.382,0,0,1,.091-.269.326.326,0,0,1,.269-.091.38.38,0,0,1,.271.091.329.329,0,0,1,.089.269v.242a1.469,1.469,0,0,1,.495-.377,1.9,1.9,0,0,1,1.8,0,1.422,1.422,0,0,1,.629.629,2.345,2.345,0,0,1,.226,1.034v1.843a.64.64,0,0,1-.091.271,1.039,1.039,0,0,1-.36.089.637.637,0,0,1-.281-.087Zm-7.417-.18a1.844,1.844,0,0,1-.719-.719,2.284,2.284,0,0,1,0-2.156,1.844,1.844,0,0,1,.719-.719,2.139,2.139,0,0,1,1.079-.269,1.864,1.864,0,0,1,1.034.269,2.193,2.193,0,0,1,.719.719,2.292,2.292,0,0,1,0,2.156,1.988,1.988,0,0,1-1.752.988,2.133,2.133,0,0,1-1.09-.267Zm.405-3.011a1.2,1.2,0,0,0-.453.495,1.534,1.534,0,0,0,0,1.438,1.617,1.617,0,0,0,.453.495,1.169,1.169,0,0,0,.674.179,1.086,1.086,0,0,0,.679-.179,1.2,1.2,0,0,0,.453-.495,1.866,1.866,0,0,0,.18-.719,1.311,1.311,0,0,0-.18-.719,1.2,1.2,0,0,0-.453-.495,1.382,1.382,0,0,0-1.364,0Zm-8.809,3.011a1.96,1.96,0,0,1-.764-.719,2.284,2.284,0,0,1,0-2.156,1.844,1.844,0,0,1,.719-.719,1.974,1.974,0,0,1,1.034-.269,1.708,1.708,0,0,1,.989.269,1.62,1.62,0,0,1,.628.719,2.468,2.468,0,0,1,.226,1.034.306.306,0,0,1-.316.316h-2.813a1.2,1.2,0,0,0,.162.453,1.727,1.727,0,0,0,.494.495,1.283,1.283,0,0,0,.764.179,1.576,1.576,0,0,0,.453-.089,3.4,3.4,0,0,0,.4-.179c.089-.046.135-.091.226-.091a.34.34,0,0,1,.226.091c.089.089.135.135.135.226a.247.247,0,0,1-.135.226,2.053,2.053,0,0,1-.629.315,2.421,2.421,0,0,1-.718.179,2.137,2.137,0,0,1-1.1-.276Zm2.144-2.112a1.656,1.656,0,0,0-.122-.453.992.992,0,0,0-.4-.453,1.035,1.035,0,0,0-.629-.179,1.223,1.223,0,0,0-.718.179,1.565,1.565,0,0,0-.453.495,1.866,1.866,0,0,0-.113.4Zm-7.9,2.377a.643.643,0,0,1-.271-.089.332.332,0,0,1-.089-.271v-5.034a.386.386,0,0,1,.089-.271.332.332,0,0,1,.271-.089h1.8a2,2,0,0,1,.9.18,1.36,1.36,0,0,1,.585.539,1.557,1.557,0,0,1,.226.809,1.267,1.267,0,0,1-.179.679,1.055,1.055,0,0,1-.54.453,1.788,1.788,0,0,1,.809.453,1.443,1.443,0,0,1,.315.9,1.906,1.906,0,0,1-.226.9,1.882,1.882,0,0,1-1.669.855Zm.4-.719h1.528a1.132,1.132,0,0,0,.585-.135.8.8,0,0,0,.4-.36,1.121,1.121,0,0,0,.135-.585.957.957,0,0,0-.135-.539.987.987,0,0,0-.4-.315,1.232,1.232,0,0,0-.585-.089h-1.528Zm0-2.742h1.394a1.1,1.1,0,0,0,.674-.226.866.866,0,0,0,0-1.258,1.105,1.105,0,0,0-.674-.226h-1.394Zm71.1-1.439a.5.5,0,0,1,.36-.855.5.5,0,1,1-.37.861Zm2.113-3.235a1.084,1.084,0,0,1-.315-.809V99.14a6.156,6.156,0,0,1,.809-3.1,5.826,5.826,0,0,1,5.169-2.966,5.844,5.844,0,0,1,3.056.809,6.188,6.188,0,0,1,2.158,2.156,5.919,5.919,0,0,1,.809,3.1,6.257,6.257,0,0,1-.719,3.056,6.089,6.089,0,0,1-1.978,2.158,5.2,5.2,0,0,1-2.83.809,5.122,5.122,0,0,1-2.338-.539,5.865,5.865,0,0,1-1.843-1.439v5.842a1.08,1.08,0,0,1-.315.809,1.259,1.259,0,0,1-.854.315,1.085,1.085,0,0,1-.823-.308Zm3.685-14.2a4.275,4.275,0,0,0-1.392,1.439,4.583,4.583,0,0,0-.495,2.113,4.523,4.523,0,0,0,.495,2.067,3.578,3.578,0,0,0,1.392,1.439,3.9,3.9,0,0,0,3.956,0,4.274,4.274,0,0,0,1.392-1.439,4.015,4.015,0,0,0,.5-2.067,4.706,4.706,0,0,0-.495-2.113,3.885,3.885,0,0,0-1.392-1.439,3.9,3.9,0,0,0-3.968.007Zm-38.159,9.215a6.2,6.2,0,0,1-2.2-1.214,4.648,4.648,0,0,1-1.348-1.8.952.952,0,0,1,0-.854,1.054,1.054,0,0,1,.764-.495,1.119,1.119,0,0,1,.764.135,1.32,1.32,0,0,1,.584.629,2.87,2.87,0,0,0,.854.988,4.8,4.8,0,0,0,1.439.719,5.979,5.979,0,0,0,1.8.271,5.45,5.45,0,0,0,1.932-.315,3.642,3.642,0,0,0,1.439-.943,2.271,2.271,0,0,0,.539-1.528,2.99,2.99,0,0,0-.9-2.068,4.541,4.541,0,0,0-2.967-1.123,7.666,7.666,0,0,1-4.225-1.574,4.147,4.147,0,0,1-1.528-3.283,3.768,3.768,0,0,1,.809-2.427,4.986,4.986,0,0,1,2.2-1.528,8.221,8.221,0,0,1,3.056-.54,6.831,6.831,0,0,1,2.292.36,4.721,4.721,0,0,1,1.707,1.034,6.917,6.917,0,0,1,1.258,1.528,1.472,1.472,0,0,1,.271.9,1.059,1.059,0,0,1-.4.679.911.911,0,0,1-.9.089,1.146,1.146,0,0,1-.719-.584,3.965,3.965,0,0,0-.854-1.079,3.331,3.331,0,0,0-1.168-.679,4.287,4.287,0,0,0-1.573-.269,5.447,5.447,0,0,0-2.7.584,2.018,2.018,0,0,0-1.079,1.888,2.493,2.493,0,0,0,.315,1.258,2.726,2.726,0,0,0,1.259,1.035,9.131,9.131,0,0,0,2.6.628,7.2,7.2,0,0,1,4.045,1.575,4.474,4.474,0,0,1,1.439,3.459,4.767,4.767,0,0,1-.495,2.158A4.929,4.929,0,0,1,151,103.991a7.007,7.007,0,0,1-1.932.943,7.665,7.665,0,0,1-2.377.36,7.477,7.477,0,0,1-2.666-.439Zm50.924-.135a6.155,6.155,0,0,1-2.023-1.168.905.905,0,0,1-.271-.809,1.063,1.063,0,0,1,.4-.719,1.342,1.342,0,0,1,.855-.315,1.369,1.369,0,0,1,.718.36,3.1,3.1,0,0,0,1.168.764,4.757,4.757,0,0,0,1.8.36,3.762,3.762,0,0,0,1.932-.4,1.221,1.221,0,0,0,.679-1.079,1.291,1.291,0,0,0-.629-1.124,5.584,5.584,0,0,0-2.338-.764,6.642,6.642,0,0,1-3.191-1.3,2.7,2.7,0,0,1-.989-2.113,2.854,2.854,0,0,1,.629-1.842,3.8,3.8,0,0,1,1.663-1.079,6.709,6.709,0,0,1,2.113-.36,6.3,6.3,0,0,1,2.516.453,4.63,4.63,0,0,1,1.754,1.259.824.824,0,0,1,.269.719.777.777,0,0,1-.36.629.852.852,0,0,1-.809.135,1.4,1.4,0,0,1-.811-.4,2.964,2.964,0,0,0-1.168-.719,4.672,4.672,0,0,0-1.438-.179,3.569,3.569,0,0,0-1.618.315,1.035,1.035,0,0,0-.674.943,1.348,1.348,0,0,0,.226.719,1.713,1.713,0,0,0,.81.584,10.5,10.5,0,0,0,1.8.495,10.744,10.744,0,0,1,2.562.809,3.183,3.183,0,0,1,1.348,1.168,2.867,2.867,0,0,1,.4,1.528,3.127,3.127,0,0,1-.539,1.8,3.441,3.441,0,0,1-1.572,1.259,3.99,3.99,0,0,1-2.377.539,8.327,8.327,0,0,1-2.85-.446Zm-27.866-.315a5.531,5.531,0,0,1-2.2-2.112,5.908,5.908,0,0,1-.809-3.1,6.513,6.513,0,0,1,.764-3.147,5.194,5.194,0,0,1,2.067-2.112,6.173,6.173,0,0,1,3.056-.764,5.547,5.547,0,0,1,2.921.764,4.579,4.579,0,0,1,1.843,2.067A7.077,7.077,0,0,1,175.362,99a.913.913,0,0,1-.271.679.949.949,0,0,1-.719.269h-8.307a3.96,3.96,0,0,0,.487,1.392,3.9,3.9,0,0,0,1.483,1.483,4.329,4.329,0,0,0,2.2.539,4.042,4.042,0,0,0,1.392-.269,3.711,3.711,0,0,0,1.124-.585,1.426,1.426,0,0,1,.719-.271,1.107,1.107,0,0,1,.679.226,1.3,1.3,0,0,1,.4.719.749.749,0,0,1-.36.679,6.961,6.961,0,0,1-3.91,1.3,6.7,6.7,0,0,1-3.2-.763Zm6.245-6.2a4.782,4.782,0,0,0-.4-1.3,3.114,3.114,0,0,0-1.168-1.349,3.4,3.4,0,0,0-1.842-.495,4,4,0,0,0-2.112.539,3.6,3.6,0,0,0-1.348,1.483A4.136,4.136,0,0,0,166.1,98.2Zm-57.62,6.517a6.15,6.15,0,0,1-2.022-1.168.908.908,0,0,1-.271-.809,1.063,1.063,0,0,1,.4-.719,1.341,1.341,0,0,1,.854-.315,1.356,1.356,0,0,1,.719.36,3.082,3.082,0,0,0,1.168.764,4.763,4.763,0,0,0,1.8.36,3.76,3.76,0,0,0,1.932-.4,1.221,1.221,0,0,0,.679-1.079,1.291,1.291,0,0,0-.629-1.124,5.579,5.579,0,0,0-2.338-.764,6.624,6.624,0,0,1-3.191-1.3,2.7,2.7,0,0,1-.989-2.113,2.856,2.856,0,0,1,.629-1.842,3.8,3.8,0,0,1,1.663-1.079,6.707,6.707,0,0,1,2.112-.36,6.3,6.3,0,0,1,2.518.453,4.633,4.633,0,0,1,1.752,1.259.819.819,0,0,1,.271.719.771.771,0,0,1-.36.629.854.854,0,0,1-.809.135,1.4,1.4,0,0,1-.809-.4,2.963,2.963,0,0,0-1.168-.719,4.675,4.675,0,0,0-1.439-.179,3.588,3.588,0,0,0-1.618.315,1.038,1.038,0,0,0-.679.943,1.369,1.369,0,0,0,.226.719,1.715,1.715,0,0,0,.809.584,10.556,10.556,0,0,0,1.8.495,10.744,10.744,0,0,1,2.562.809,3.185,3.185,0,0,1,1.349,1.168,2.87,2.87,0,0,1,.4,1.528,3.128,3.128,0,0,1-.54,1.8,3.444,3.444,0,0,1-1.574,1.259,3.9,3.9,0,0,1-2.377.539,8.308,8.308,0,0,1-2.847-.446Zm42.7-.18a3.458,3.458,0,0,1-1.349-1.528,4.8,4.8,0,0,1-.495-2.157V95.5h-1.034a.95.95,0,0,1-.719-.269.882.882,0,0,1-.271-.628.848.848,0,0,1,.271-.679,1.023,1.023,0,0,1,.719-.271h1.034V90.507a.927.927,0,0,1,.316-.764.984.984,0,0,1,.764-.315.93.93,0,0,1,.764.315.988.988,0,0,1,.315.764v3.146h1.843a.955.955,0,0,1,.719.271.918.918,0,0,1,.269.679.759.759,0,0,1-.269.628,1.271,1.271,0,0,1-.719.269h-1.843v5.349a2.148,2.148,0,0,0,.495,1.439,1.423,1.423,0,0,0,1.168.584h.719a.811.811,0,0,1,.679.315,1.135,1.135,0,0,1,.269.764.959.959,0,0,1-.36.764,1.268,1.268,0,0,1-.943.315h-.4v.045a3.472,3.472,0,0,1-1.948-.534Zm-29.978,0a3.451,3.451,0,0,1-1.349-1.528,4.763,4.763,0,0,1-.495-2.157V95.5h-1.079a.95.95,0,0,1-.719-.269.89.89,0,0,1-.269-.628.848.848,0,0,1,.269-.679,1.025,1.025,0,0,1,.719-.271H126.6V90.507a.929.929,0,0,1,.315-.764.986.986,0,0,1,.753-.3.929.929,0,0,1,.764.315.984.984,0,0,1,.314.764v3.146h1.8a.954.954,0,0,1,.719.271.918.918,0,0,1,.269.679.755.755,0,0,1-.269.628,1.271,1.271,0,0,1-.719.269h-1.8v5.349a2.149,2.149,0,0,0,.5,1.439,1.424,1.424,0,0,0,1.168.584h.719a.805.805,0,0,1,.674.315,1.136,1.136,0,0,1,.271.764.959.959,0,0,1-.36.764,1.266,1.266,0,0,1-.943.315h-.4v.045a3.47,3.47,0,0,1-1.931-.546Zm-20.226.226A1.052,1.052,0,0,1,107.9,104V90.742l-1.574.674a1.962,1.962,0,0,1-.679.136,1.088,1.088,0,0,1-.809-.315.988.988,0,0,1-.315-.764,1.03,1.03,0,0,1,.181-.629,1.226,1.226,0,0,1,.538-.4l3.372-1.214a.408.408,0,0,1,.225-.045h.181a1.083,1.083,0,0,1,.808.315,1.286,1.286,0,0,1,.315.809V104a.923.923,0,0,1-.315.764,1.119,1.119,0,0,1-.854.315,1.056,1.056,0,0,1-.771-.315Z" transform="translate(7.711 -76)" fill="#fff"/>
</svg>
