<svg xmlns="http://www.w3.org/2000/svg" width="13.214" height="13.213" viewBox="0 0 13.214 13.213">
  <path id="Path_82527" data-name="Path 82527" d="M2.681,1.549a1.441,1.441,0,0,1,2.156.134l1.481,1.9A1.437,1.437,0,0,1,6.579,4.82L6.127,6.628a.56.56,0,0,0,.147.532L8.3,9.189a.56.56,0,0,0,.532.147l1.807-.452a1.441,1.441,0,0,1,1.234.261l1.9,1.481a1.441,1.441,0,0,1,.135,2.156l-.855.855a2.3,2.3,0,0,1-2.376.58A15.388,15.388,0,0,1,4.9,10.566,15.388,15.388,0,0,1,1.247,4.778,2.3,2.3,0,0,1,1.827,2.4l.855-.853Z" transform="translate(-1.124 -1.126)" fill="#fff" fill-rule="evenodd"/>
</svg>
