<svg xmlns="http://www.w3.org/2000/svg" width="27.147" height="48" viewBox="0 0 27.147 48">
  <path id="Icon_material-attach-money" data-name="Icon material-attach-money" d="M24.093,25.567c-6.053-1.573-8-3.2-8-5.733,0-2.907,2.693-4.933,7.2-4.933,4.747,0,6.507,2.267,6.667,5.6h5.893a10.63,10.63,0,0,0-8.56-10.16V4.5h-8v5.76C14.12,11.38,9.96,14.74,9.96,19.887c0,6.16,5.093,9.227,12.533,11.013,6.667,1.6,8,3.947,8,6.427,0,1.84-1.307,4.773-7.2,4.773-5.493,0-7.653-2.453-7.947-5.6H9.48c.32,5.84,4.693,9.12,9.813,10.213V52.5h8V46.767c5.2-.987,9.333-4,9.333-9.467C36.627,29.727,30.147,27.14,24.093,25.567Z" transform="translate(-9.48 -4.5)" fill="#fff"/>
</svg>
