<svg xmlns="http://www.w3.org/2000/svg" width="59.851" height="53.7" viewBox="0 0 59.851 53.7">
  <g id="Group_36966" data-name="Group 36966" transform="translate(-130.573 -1901.337)">
    <path id="Path_2526" data-name="Path 2526" d="M143.958,559.731a6.662,6.662,0,1,0-6.661-6.662A6.669,6.669,0,0,0,143.958,559.731Zm2.656-6.662c0,3.51-5.311,3.51-5.311,0S146.613,549.556,146.613,553.069Zm8.043,24.4h-8.7V567.09l5.758,4.26c1.136.839,1.214.577,10.553-3.247a2.005,2.005,0,0,0,1.1-2.609h0a2,2,0,0,0-2.611-1.1l-6.844,2.779A1.363,1.363,0,0,1,152.58,567l-5.874-4.435a2.787,2.787,0,0,0-1.68-.562H143.6a1.647,1.647,0,0,0-1.647,1.647v15.824a2,2,0,0,0,2,2h10.7a4.381,4.381,0,0,1,4.381,4.381v12.191a2,2,0,0,0,2,2h0a2,2,0,0,0,2-2V585.853A8.386,8.386,0,0,0,154.656,577.466Zm30-9.08,3.748-12.745a2,2,0,0,0-1.356-2.486h0a2,2,0,0,0-2.487,1.356l-2.9,9.87a2,2,0,0,1-1.922,1.437h-10.1a2,2,0,0,0-2,2h0a2,2,0,0,0,2,2h13.1A2,2,0,0,0,184.66,568.386Zm9.381,6.424h0a2,2,0,0,0-2-2H164.984a2,2,0,0,0-2,2h0a2,2,0,0,0,2,2H176.12V596.1h-2.595a2,2,0,0,0-2,2h0a2,2,0,0,0,2,2h9.195a2,2,0,0,0,2-2h0a2,2,0,0,0-2-2h-2.595V576.813h11.913A2,2,0,0,0,194.041,574.81Zm-55.846,6.8V564.777a2,2,0,0,0-2-2h0a2,2,0,0,0-2,2v16.838a7.628,7.628,0,0,0,7.765,7.622V596.1h-1.818a2,2,0,0,0-2,2h0a2,2,0,0,0,2,2h7.642a2,2,0,0,0,2-2h0a2,2,0,0,0-2-2H145.96v-6.865h7.254a2,2,0,0,0,2-2h0a2,2,0,0,0-2-2h-11.4A3.617,3.617,0,0,1,138.2,581.614Z" transform="translate(-3.617 1354.93)" fill="#0b3d41"/>
  </g>
</svg>
