<svg xmlns="http://www.w3.org/2000/svg" xmlns:xlink="http://www.w3.org/1999/xlink" width="16.5" height="15" viewBox="0 0 16.5 15">
  <defs>
    <clipPath id="clip-path">
      <path id="icon_check-square" data-name="icon / check-square" d="M12.75,15H2.25A2.2,2.2,0,0,1,0,12.75V2.25A2.2,2.2,0,0,1,2.25,0H10.5a.71.71,0,0,1,.75.75.71.71,0,0,1-.75.751H2.25a.71.71,0,0,0-.75.75v10.5a.71.71,0,0,0,.75.75h10.5a.71.71,0,0,0,.75-.75V7.5a.75.75,0,0,1,1.5,0V12.75A2.2,2.2,0,0,1,12.75,15ZM7.5,9.75a.679.679,0,0,1-.525-.225l-2.25-2.25a.742.742,0,1,1,1.05-1.049L7.5,7.95,15.225.225a.725.725,0,0,1,1.049,0A.74.74,0,0,1,16.5.749a.743.743,0,0,1-.225.526L8.025,9.525A.68.68,0,0,1,7.5,9.75Z" transform="translate(0.75 0.5)" fill="#0b3d41"/>
    </clipPath>
  </defs>
  <g id="icon_action_check-square" data-name="icon / action / check-square" transform="translate(-0.75 -0.5)">
    <path id="icon_check-square-2" data-name="icon / check-square" d="M12.75,15H2.25A2.2,2.2,0,0,1,0,12.75V2.25A2.2,2.2,0,0,1,2.25,0H10.5a.71.71,0,0,1,.75.75.71.71,0,0,1-.75.751H2.25a.71.71,0,0,0-.75.75v10.5a.71.71,0,0,0,.75.75h10.5a.71.71,0,0,0,.75-.75V7.5a.75.75,0,0,1,1.5,0V12.75A2.2,2.2,0,0,1,12.75,15ZM7.5,9.75a.679.679,0,0,1-.525-.225l-2.25-2.25a.742.742,0,1,1,1.05-1.049L7.5,7.95,15.225.225a.725.725,0,0,1,1.049,0A.74.74,0,0,1,16.5.749a.743.743,0,0,1-.225.526L8.025,9.525A.68.68,0,0,1,7.5,9.75Z" transform="translate(0.75 0.5)" fill="#0b3d41"/>
  </g>
</svg>
