<svg xmlns="http://www.w3.org/2000/svg" width="63.959" height="45.961" viewBox="0 0 63.959 45.961">
  <g id="Group_36967" data-name="Group 36967" transform="translate(-933.5 -2032)">
    <path id="Path_2527" data-name="Path 2527" d="M54.776,9.506a11.56,11.56,0,0,0-8.788,9.02A11.058,11.058,0,0,0,49.47,28.941a.6.6,0,0,1-.11.977A16.135,16.135,0,0,0,41.4,41.077a2.294,2.294,0,0,0,2.282,2.636h0a2.306,2.306,0,0,0,2.257-1.949,11.516,11.516,0,0,1,11.322-9.542,10.627,10.627,0,0,1,7.761,3.066,9.023,9.023,0,0,0,1.563,10.017.449.449,0,0,1-.062.676,11.594,11.594,0,0,0-4.3,6.352,2.3,2.3,0,0,0,2.231,2.87h0A2.369,2.369,0,0,0,66.7,53.373a6.894,6.894,0,0,1,13.294,0A2.368,2.368,0,0,0,82.236,55.2h0a2.3,2.3,0,0,0,2.231-2.87A11.57,11.57,0,0,0,80.2,46a.483.483,0,0,1-.067-.726,9.133,9.133,0,0,0,2.4-6.161,9.041,9.041,0,0,0-.866-3.829,10.634,10.634,0,0,1,7.761-3.066,11.518,11.518,0,0,1,11.325,9.542,2.305,2.305,0,0,0,2.254,1.949h0a2.291,2.291,0,0,0,2.282-2.636,16.127,16.127,0,0,0-7.981-11.171.581.581,0,0,1-.106-.949,11.064,11.064,0,0,0,3.5-10.431,11.487,11.487,0,0,0-22.762,2.206,11.148,11.148,0,0,0,3.364,7.9A.868.868,0,0,1,81.146,30a16.385,16.385,0,0,0-2.36,1.751,9,9,0,0,0-10.881,0,16.391,16.391,0,0,0-2.643-1.919.6.6,0,0,1-.11-.977,11.2,11.2,0,0,0,3.6-8.128A11.523,11.523,0,0,0,54.776,9.506Zm2.482,4.332a6.894,6.894,0,1,1-6.894,6.894A6.86,6.86,0,0,1,57.258,13.838Zm32.173,0a6.894,6.894,0,1,1-6.894,6.894A6.86,6.86,0,0,1,89.431,13.838ZM73.344,34.52a4.6,4.6,0,1,1-4.6,4.6A4.561,4.561,0,0,1,73.344,34.52Z" transform="translate(892.135 2022.758)" fill="#fff"/>
  </g>
</svg>
