<svg xmlns="http://www.w3.org/2000/svg" width="11.061" height="17.697" viewBox="0 0 11.061 17.697">
  <path id="Icon_awesome-mobile-alt" data-name="Icon awesome-mobile-alt" d="M9.4,0H1.659A1.66,1.66,0,0,0,0,1.659V16.038A1.66,1.66,0,0,0,1.659,17.7H9.4a1.66,1.66,0,0,0,1.659-1.659V1.659A1.66,1.66,0,0,0,9.4,0ZM5.53,16.591a1.106,1.106,0,1,1,1.106-1.106A1.1,1.1,0,0,1,5.53,16.591ZM9.4,12.858a.416.416,0,0,1-.415.415H2.074a.416.416,0,0,1-.415-.415V2.074a.416.416,0,0,1,.415-.415H8.987a.416.416,0,0,1,.415.415Z" fill="#fff"/>
</svg>
