<svg xmlns="http://www.w3.org/2000/svg" width="58" height="56.161" viewBox="0 0 58 56.161">
  <g id="Group_36965" data-name="Group 36965" transform="translate(-60.5 -15.09)">
    <path id="Path_2525" data-name="Path 2525" d="M118,19.476V16.885a1.3,1.3,0,0,0-1.3-1.3H62.3a1.3,1.3,0,0,0-1.3,1.3v2.591a1.3,1.3,0,0,0,1.3,1.3h0a1.3,1.3,0,0,1,1.3,1.3V45.385a1.3,1.3,0,0,1-1.3,1.3h0a1.3,1.3,0,0,0-1.3,1.3v2.591a1.3,1.3,0,0,0,1.3,1.3H85.614a1.3,1.3,0,0,1,1.3,1.3v4.866a1.294,1.294,0,0,1-.38.916l-7.393,7.393a2.588,2.588,0,0,0,0,3.656h0a2.588,2.588,0,0,0,3.664,0L88.584,64.2a1.3,1.3,0,0,1,1.832,0L96.2,69.993a2.588,2.588,0,0,0,3.664,0h0a2.588,2.588,0,0,0,0-3.656L92.47,58.94a1.294,1.294,0,0,1-.38-.916V53.158a1.3,1.3,0,0,1,1.3-1.3H116.7a1.3,1.3,0,0,0,1.3-1.3V47.976a1.3,1.3,0,0,0-1.3-1.3h0a1.3,1.3,0,0,1-1.3-1.3V22.067a1.3,1.3,0,0,1,1.3-1.3h0A1.3,1.3,0,0,0,118,19.476Zm-9.068,27.2H70.068a1.3,1.3,0,0,1-1.3-1.3V22.067a1.3,1.3,0,0,1,1.3-1.3h38.864a1.3,1.3,0,0,1,1.3,1.3V45.385A1.3,1.3,0,0,1,108.932,46.681Z" fill="#0b3d41" stroke="rgba(0,0,0,0)" stroke-width="1"/>
    <rect id="Rectangle_805" data-name="Rectangle 805" width="15.545" height="3.886" rx="1.5" transform="translate(81.727 39.556)" fill="#0b3d41" stroke="rgba(0,0,0,0)" stroke-width="1"/>
  </g>
</svg>
