<svg id="Social_Button" data-name="Social Button" xmlns="http://www.w3.org/2000/svg" width="33.018" height="33.018" viewBox="0 0 33.018 33.018">
  <g id="Twitter">
    <circle id="Placeholder" cx="16.509" cy="16.509" r="16.509" fill="#fff"/>
    <g id="Icon_Social_Twitter" data-name="Icon/Social/Twitter" transform="translate(11.556 12.382)">
      <path id="Twitter-2" data-name="Twitter" d="M3.375,9.08A6.363,6.363,0,0,0,9.639,2.557c0-.1,0-.2-.006-.3a4.579,4.579,0,0,0,1.1-1.187,4.25,4.25,0,0,1-1.264.361A2.289,2.289,0,0,0,10.435.166a4.308,4.308,0,0,1-1.4.556,2.143,2.143,0,0,0-3.115-.1,2.357,2.357,0,0,0-.637,2.191A6.174,6.174,0,0,1,.747.419a2.352,2.352,0,0,0,.682,3.06,2.119,2.119,0,0,1-1-.287v.029A2.273,2.273,0,0,0,2.2,5.468a2.106,2.106,0,0,1-.994.039A2.216,2.216,0,0,0,3.258,7.1a4.307,4.307,0,0,1-2.734.983A4.337,4.337,0,0,1,0,8.05,6.056,6.056,0,0,0,3.375,9.078" transform="translate(0 0)" fill="#3c6467"/>
    </g>
  </g>
</svg>
