<svg xmlns="http://www.w3.org/2000/svg" width="61.873" height="51.873" viewBox="0 0 61.873 51.873">
  <g id="user" transform="translate(0 3.873)">
    <path id="Path_2370" data-name="Path 2370" d="M34,16A10,10,0,1,1,24,6,10,10,0,0,1,34,16Z" fill="none" stroke="#0b3d41" stroke-linecap="round" stroke-linejoin="round" stroke-width="4"/>
    <path id="Path_2371" data-name="Path 2371" d="M40,42A16,16,0,0,0,8,42m32,0A16,16,0,0,0,8,42" fill="none" stroke="#0b3d41" stroke-linecap="round" stroke-linejoin="round" stroke-width="4"/>
    <path id="Path_2372" data-name="Path 2372" d="M0,0H48V48H0Z" fill="none"/>
    <g id="x" transform="translate(47.937 -3.873) rotate(45)">
      <path id="Path_2347" data-name="Path 2347" d="M21.855,12,12,21.855" transform="translate(-7.073 -7.073)" fill="none" stroke="#0b3d41" stroke-linecap="round" stroke-linejoin="round" stroke-width="4"/>
      <path id="Path_2348" data-name="Path 2348" d="M12,12l9.855,9.855" transform="translate(-7.073 -7.073)" fill="none" stroke="#0b3d41" stroke-linecap="round" stroke-linejoin="round" stroke-width="4"/>
      <path id="Path_2349" data-name="Path 2349" d="M0,0H19.709V19.709H0Z" fill="none"/>
    </g>
  </g>
</svg>
